# Generated by tools/gen_obj_models.py - edit that, not this.
mtllib cheval_de_frise.mtl
o cheval_de_frise
v 0 0.375 0.625
vt 0.375 1
v 0 0.375 0.375
vt 0.625 1
v 1 0.375 0.375
vt 0.625 0
v 1 0.375 0.625
vt 0.375 0
vn 0 -1 0
v 0 0.625 0.375
vt 0.375 1
v 0 0.625 0.625
vt 0.625 1
v 1 0.625 0.625
vt 0.625 0
v 1 0.625 0.375
vt 0.375 0
vn 0 1 0
v 1 0.625 0.375
vt 0.375 1
v 1 0.375 0.375
vt 0.625 1
v 0 0.375 0.375
vt 0.625 0
v 0 0.625 0.375
vt 0.375 0
vn 0 0 -1
v 0 0.625 0.625
vt 0.375 1
v 0 0.375 0.625
vt 0.625 1
v 1 0.375 0.625
vt 0.625 0
v 1 0.625 0.625
vt 0.375 0
vn 0 0 1
v 0 0.625 0.375
vt 0.375 0.625
v 0 0.375 0.375
vt 0.375 0.375
v 0 0.375 0.625
vt 0.625 0.375
v 0 0.625 0.625
vt 0.625 0.625
vn -1 0 0
v 1 0.625 0.625
vt 0.375 0.625
v 1 0.375 0.625
vt 0.375 0.375
v 1 0.375 0.375
vt 0.625 0.375
v 1 0.625 0.375
vt 0.625 0.625
vn 1 0 0
v 0.34375 0.941942 0.809359
vt 0.40625 1
v 0.34375 0.190641 0.0580583
vt 0.40625 0
v 0.15625 0.190641 0.0580583
vt 0.59375 0
v 0.15625 0.941942 0.809359
vt 0.59375 1
vn 0 0.707107 -0.707107
v 0.15625 0.809359 0.941942
vt 0.40625 1
v 0.15625 0.0580583 0.190641
vt 0.40625 0
v 0.34375 0.0580583 0.190641
vt 0.59375 0
v 0.34375 0.809359 0.941942
vt 0.59375 1
vn 0 -0.707107 0.707107
v 0.15625 0.941942 0.809359
vt 0.40625 1
v 0.15625 0.190641 0.0580583
vt 0.40625 0
v 0.15625 0.0580583 0.190641
vt 0.59375 0
v 0.15625 0.809359 0.941942
vt 0.59375 1
vn -1 0 0
v 0.34375 0.809359 0.941942
vt 0.40625 1
v 0.34375 0.0580583 0.190641
vt 0.40625 0
v 0.34375 0.190641 0.0580583
vt 0.59375 0
v 0.34375 0.941942 0.809359
vt 0.59375 1
vn 1 0 0
v 0.34375 0.941942 0.809359
vt 0.40625 0
v 0.15625 0.941942 0.809359
vt 0.59375 0
v 0.25 0.986136 0.986136
vt 0.5 0.182217
vn 0 0.970143 -0.242536
v 0.15625 0.941942 0.809359
vt 0.40625 0
v 0.15625 0.809359 0.941942
vt 0.59375 0
v 0.25 0.986136 0.986136
vt 0.5 0.182217
vn -0.857493 0.363803 0.363803
v 0.15625 0.809359 0.941942
vt 0.40625 0
v 0.34375 0.809359 0.941942
vt 0.59375 0
v 0.25 0.986136 0.986136
vt 0.5 0.182217
vn 0 -0.242536 0.970143
v 0.34375 0.809359 0.941942
vt 0.40625 0
v 0.34375 0.941942 0.809359
vt 0.59375 0
v 0.25 0.986136 0.986136
vt 0.5 0.182217
vn 0.857493 0.363803 0.363803
v 0.34375 0.0580583 0.190641
vt 0.40625 0
v 0.15625 0.0580583 0.190641
vt 0.59375 0
v 0.25 0.0138641 0.0138641
vt 0.5 0.182217
vn 0 -0.970143 0.242536
v 0.15625 0.0580583 0.190641
vt 0.40625 0
v 0.15625 0.190641 0.0580583
vt 0.59375 0
v 0.25 0.0138641 0.0138641
vt 0.5 0.182217
vn -0.857493 -0.363803 -0.363803
v 0.15625 0.190641 0.0580583
vt 0.40625 0
v 0.34375 0.190641 0.0580583
vt 0.59375 0
v 0.25 0.0138641 0.0138641
vt 0.5 0.182217
vn 0 0.242536 -0.970143
v 0.34375 0.190641 0.0580583
vt 0.40625 0
v 0.34375 0.0580583 0.190641
vt 0.59375 0
v 0.25 0.0138641 0.0138641
vt 0.5 0.182217
vn 0.857493 -0.363803 -0.363803
v 0.84375 0.809359 0.0580583
vt 0.40625 1
v 0.84375 0.0580583 0.809359
vt 0.40625 0
v 0.65625 0.0580583 0.809359
vt 0.59375 0
v 0.65625 0.809359 0.0580583
vt 0.59375 1
vn 0 -0.707107 -0.707107
v 0.65625 0.941942 0.190641
vt 0.40625 1
v 0.65625 0.190641 0.941942
vt 0.40625 0
v 0.84375 0.190641 0.941942
vt 0.59375 0
v 0.84375 0.941942 0.190641
vt 0.59375 1
vn 0 0.707107 0.707107
v 0.65625 0.809359 0.0580583
vt 0.40625 1
v 0.65625 0.0580583 0.809359
vt 0.40625 0
v 0.65625 0.190641 0.941942
vt 0.59375 0
v 0.65625 0.941942 0.190641
vt 0.59375 1
vn -1 0 0
v 0.84375 0.941942 0.190641
vt 0.40625 1
v 0.84375 0.190641 0.941942
vt 0.40625 0
v 0.84375 0.0580583 0.809359
vt 0.59375 0
v 0.84375 0.809359 0.0580583
vt 0.59375 1
vn 1 0 0
v 0.84375 0.809359 0.0580583
vt 0.40625 0
v 0.65625 0.809359 0.0580583
vt 0.59375 0
v 0.75 0.986136 0.0138641
vt 0.5 0.182217
vn -0 -0.242536 -0.970143
v 0.65625 0.809359 0.0580583
vt 0.40625 0
v 0.65625 0.941942 0.190641
vt 0.59375 0
v 0.75 0.986136 0.0138641
vt 0.5 0.182217
vn -0.857493 0.363803 -0.363803
v 0.65625 0.941942 0.190641
vt 0.40625 0
v 0.84375 0.941942 0.190641
vt 0.59375 0
v 0.75 0.986136 0.0138641
vt 0.5 0.182217
vn -0 0.970143 0.242536
v 0.84375 0.941942 0.190641
vt 0.40625 0
v 0.84375 0.809359 0.0580583
vt 0.59375 0
v 0.75 0.986136 0.0138641
vt 0.5 0.182217
vn 0.857493 0.363803 -0.363803
v 0.84375 0.190641 0.941942
vt 0.40625 0
v 0.65625 0.190641 0.941942
vt 0.59375 0
v 0.75 0.0138641 0.986136
vt 0.5 0.182217
vn 0 0.242536 0.970143
v 0.65625 0.190641 0.941942
vt 0.40625 0
v 0.65625 0.0580583 0.809359
vt 0.59375 0
v 0.75 0.0138641 0.986136
vt 0.5 0.182217
vn -0.857493 -0.363803 0.363803
v 0.65625 0.0580583 0.809359
vt 0.40625 0
v 0.84375 0.0580583 0.809359
vt 0.59375 0
v 0.75 0.0138641 0.986136
vt 0.5 0.182217
vn 0 -0.970143 -0.242536
v 0.84375 0.0580583 0.809359
vt 0.40625 0
v 0.84375 0.190641 0.941942
vt 0.59375 0
v 0.75 0.0138641 0.986136
vt 0.5 0.182217
vn 0.857493 -0.363803 0.363803
usemtl bark
f 1/1/1 2/2/1 3/3/1 4/4/1
f 5/5/2 6/6/2 7/7/2 8/8/2
f 9/9/3 10/10/3 11/11/3 12/12/3
f 13/13/4 14/14/4 15/15/4 16/16/4
f 25/25/7 26/26/7 27/27/7 28/28/7
f 29/29/8 30/30/8 31/31/8 32/32/8
f 33/33/9 34/34/9 35/35/9 36/36/9
f 37/37/10 38/38/10 39/39/10 40/40/10
f 65/65/19 66/66/19 67/67/19 68/68/19
f 69/69/20 70/70/20 71/71/20 72/72/20
f 73/73/21 74/74/21 75/75/21 76/76/21
f 77/77/22 78/78/22 79/79/22 80/80/22
usemtl end
f 17/17/5 18/18/5 19/19/5 20/20/5
f 21/21/6 22/22/6 23/23/6 24/24/6
usemtl tip
f 41/41/11 42/42/11 43/43/11
f 44/44/12 45/45/12 46/46/12
f 47/47/13 48/48/13 49/49/13
f 50/50/14 51/51/14 52/52/14
f 53/53/15 54/54/15 55/55/15
f 56/56/16 57/57/16 58/58/16
f 59/59/17 60/60/17 61/61/17
f 62/62/18 63/63/18 64/64/18
f 81/81/23 82/82/23 83/83/23
f 84/84/24 85/85/24 86/86/24
f 87/87/25 88/88/25 89/89/25
f 90/90/26 91/91/26 92/92/26
f 93/93/27 94/94/27 95/95/27
f 96/96/28 97/97/28 98/98/28
f 99/99/29 100/100/29 101/101/29
f 102/102/30 103/103/30 104/104/30
