# Generated by tools/gen_obj_models.py - edit that, not this.
mtllib coffin_foot_body.mtl
o coffin_foot_body
v 0.6875 0.5 0.9375
vt 0.974146 0.5
v 0.6875 0 0.9375
vt 0.974146 0
v 0.830163 0 0
vt 0.0258537 0
v 0.830163 0.5 0
vt 0.0258537 0.5
vn 0.988619 0 0.150442
v 0.766944 0.5 0
vt 0.0574634 0.5
v 0.766944 0.0625 0
vt 0.0574634 0.0625
v 0.633791 0.0625 0.875
vt 0.942537 0.0625
v 0.633791 0.5 0.875
vt 0.942537 0.5
vn -0.988619 -0 -0.150442
v 0.766944 0.5 0
vt 0 0.233056
v 0.633791 0.5 0.875
vt 0.875 0.366209
v 0.6875 0.5 0.9375
vt 0.9375 0.3125
v 0.830163 0.5 0
vt 0 0.169837
vn 0 1 0
v 0.3125 0.5 0.9375
vt 0.6875 0.5
v 0.3125 0 0.9375
vt 0.6875 0
v 0.6875 0 0.9375
vt 0.3125 0
v 0.6875 0.5 0.9375
vt 0.3125 0.5
vn 0 0 1
v 0.633791 0.5 0.875
vt 0.366209 0.5
v 0.633791 0.0625 0.875
vt 0.366209 0.0625
v 0.366209 0.0625 0.875
vt 0.633791 0.0625
v 0.366209 0.5 0.875
vt 0.633791 0.5
vn 0 -0 -1
v 0.633791 0.5 0.875
vt 0.875 0.366209
v 0.366209 0.5 0.875
vt 0.875 0.633791
v 0.3125 0.5 0.9375
vt 0.9375 0.6875
v 0.6875 0.5 0.9375
vt 0.9375 0.3125
vn 0 1 0
v 0.169837 0.5 0
vt 0.974146 0.5
v 0.169837 0 0
vt 0.974146 0
v 0.3125 0 0.9375
vt 0.0258537 0
v 0.3125 0.5 0.9375
vt 0.0258537 0.5
vn -0.988619 0 0.150442
v 0.366209 0.5 0.875
vt 0.0574634 0.5
v 0.366209 0.0625 0.875
vt 0.0574634 0.0625
v 0.233056 0.0625 -1.11022e-16
vt 0.942537 0.0625
v 0.233056 0.5 -1.11022e-16
vt 0.942537 0.5
vn 0.988619 0 -0.150442
v 0.366209 0.5 0.875
vt 0.875 0.633791
v 0.233056 0.5 0
vt 0 0.766944
v 0.169837 0.5 0
vt 0 0.830163
v 0.3125 0.5 0.9375
vt 0.9375 0.6875
vn 0 1 0
v 0.830163 0 0
vt 0.830163 0
v 0.6875 0 0.9375
vt 0.6875 0.9375
v 0.3125 0 0.9375
vt 0.3125 0.9375
v 0.169837 0 0
vt 0.169837 0
vn 0 -1 0
v 0.233056 0.0625 0
vt 0.233056 1
v 0.366209 0.0625 0.875
vt 0.366209 0.125
v 0.633791 0.0625 0.875
vt 0.633791 0.125
v 0.766944 0.0625 0
vt 0.766944 1
vn 0 1 0
usemtl wood
f 1/1/1 2/2/1 3/3/1 4/4/1
f 9/9/3 10/10/3 11/11/3 12/12/3
f 13/13/4 14/14/4 15/15/4 16/16/4
f 21/21/6 22/22/6 23/23/6 24/24/6
f 25/25/7 26/26/7 27/27/7 28/28/7
f 33/33/9 34/34/9 35/35/9 36/36/9
f 37/37/10 38/38/10 39/39/10 40/40/10
usemtl lining
f 5/5/2 6/6/2 7/7/2 8/8/2
f 17/17/5 18/18/5 19/19/5 20/20/5
f 29/29/8 30/30/8 31/31/8 32/32/8
f 41/41/11 42/42/11 43/43/11 44/44/11
