# Generated by tools/gen_obj_models.py - edit that, not this.
mtllib coffin_head_body.mtl
o coffin_head_body
v 0.71875 0.5 0.0625
vt 0.71875 0.5
v 0.71875 0 0.0625
vt 0.71875 0
v 0.28125 0 0.0625
vt 0.28125 0
v 0.28125 0.5 0.0625
vt 0.28125 0.5
vn 0 -0 -1
v 0.322462 0.5 0.125
vt 0.322462 0.5
v 0.322462 0.0625 0.125
vt 0.322462 0.0625
v 0.677538 0.0625 0.125
vt 0.677538 0.0625
v 0.677538 0.5 0.125
vt 0.677538 0.5
vn 0 0 1
v 0.322462 0.5 0.125
vt 0.125 0.677538
v 0.677538 0.5 0.125
vt 0.125 0.322462
v 0.71875 0.5 0.0625
vt 0.0625 0.28125
v 0.28125 0.5 0.0625
vt 0.0625 0.71875
vn -0 1 0
v 0.90625 0.5 0.5
vt 0.737993 0.5
v 0.90625 0 0.5
vt 0.737993 0
v 0.71875 0 0.0625
vt 0.262007 0
v 0.71875 0.5 0.0625
vt 0.262007 0.5
vn 0.919145 0 -0.393919
v 0.677538 0.5 0.125
vt 0.29153 0.5
v 0.677538 0.0625 0.125
vt 0.29153 0.0625
v 0.841778 0.0625 0.508228
vt 0.70847 0.0625
v 0.841778 0.5 0.508228
vt 0.70847 0.5
vn -0.919145 0 0.393919
v 0.677538 0.5 0.125
vt 0.125 0.322462
v 0.841778 0.5 0.508228
vt 0.508228 0.158222
v 0.90625 0.5 0.5
vt 0.5 0.09375
v 0.71875 0.5 0.0625
vt 0.0625 0.28125
vn 0 1 0
v 0.830163 0.5 1
vt 0.752878 0.5
v 0.830163 0 1
vt 0.752878 0
v 0.90625 0 0.5
vt 0.247122 0
v 0.90625 0.5 0.5
vt 0.247122 0.5
vn 0.988619 0 0.150442
v 0.841778 0.5 0.508228
vt 0.251283 0.5
v 0.841778 0.0625 0.508228
vt 0.251283 0.0625
v 0.766944 0.0625 1
vt 0.748717 0.0625
v 0.766944 0.5 1
vt 0.748717 0.5
vn -0.988619 -0 -0.150442
v 0.841778 0.5 0.508228
vt 0.508228 0.158222
v 0.766944 0.5 1
vt 1 0.233056
v 0.830163 0.5 1
vt 1 0.169837
v 0.90625 0.5 0.5
vt 0.5 0.09375
vn 0 1 0
v 0.09375 0.5 0.5
vt 0.752878 0.5
v 0.09375 0 0.5
vt 0.752878 0
v 0.169837 0 1
vt 0.247122 0
v 0.169837 0.5 1
vt 0.247122 0.5
vn -0.988619 0 0.150442
v 0.233056 0.5 1
vt 0.251283 0.5
v 0.233056 0.0625 1
vt 0.251283 0.0625
v 0.158222 0.0625 0.508228
vt 0.748717 0.0625
v 0.158222 0.5 0.508228
vt 0.748717 0.5
vn 0.988619 0 -0.150442
v 0.233056 0.5 1
vt 1 0.766944
v 0.158222 0.5 0.508228
vt 0.508228 0.841778
v 0.09375 0.5 0.5
vt 0.5 0.90625
v 0.169837 0.5 1
vt 1 0.830163
vn 0 1 0
v 0.28125 0.5 0.0625
vt 0.737993 0.5
v 0.28125 0 0.0625
vt 0.737993 0
v 0.09375 0 0.5
vt 0.262007 0
v 0.09375 0.5 0.5
vt 0.262007 0.5
vn -0.919145 -0 -0.393919
v 0.158222 0.5 0.508228
vt 0.29153 0.5
v 0.158222 0.0625 0.508228
vt 0.29153 0.0625
v 0.322462 0.0625 0.125
vt 0.70847 0.0625
v 0.322462 0.5 0.125
vt 0.70847 0.5
vn 0.919145 0 0.393919
v 0.158222 0.5 0.508228
vt 0.508228 0.841778
v 0.322462 0.5 0.125
vt 0.125 0.677538
v 0.28125 0.5 0.0625
vt 0.0625 0.71875
v 0.09375 0.5 0.5
vt 0.5 0.90625
vn 0 1 0
v 0.28125 0 0.0625
vt 0.28125 0.0625
v 0.71875 0 0.0625
vt 0.71875 0.0625
v 0.90625 0 0.5
vt 0.90625 0.5
v 0.830163 0 1
vt 0.830163 1
vn 0 -1 0
v 0.28125 0 0.0625
vt 0.28125 0.0625
v 0.830163 0 1
vt 0.830163 1
v 0.169837 0 1
vt 0.169837 1
v 0.09375 0 0.5
vt 0.09375 0.5
vn 0 -1 0
v 0.766944 0.0625 1
vt 0.766944 0
v 0.841778 0.0625 0.508228
vt 0.841778 0.491772
v 0.677538 0.0625 0.125
vt 0.677538 0.875
v 0.322462 0.0625 0.125
vt 0.322462 0.875
vn 0 1 0
v 0.158222 0.0625 0.508228
vt 0.158222 0.491772
v 0.233056 0.0625 1
vt 0.233056 0
v 0.766944 0.0625 1
vt 0.766944 0
v 0.322462 0.0625 0.125
vt 0.322462 0.875
vn 0 1 0
usemtl wood
f 1/1/1 2/2/1 3/3/1 4/4/1
f 9/9/3 10/10/3 11/11/3 12/12/3
f 13/13/4 14/14/4 15/15/4 16/16/4
f 21/21/6 22/22/6 23/23/6 24/24/6
f 25/25/7 26/26/7 27/27/7 28/28/7
f 33/33/9 34/34/9 35/35/9 36/36/9
f 37/37/10 38/38/10 39/39/10 40/40/10
f 45/45/12 46/46/12 47/47/12 48/48/12
f 49/49/13 50/50/13 51/51/13 52/52/13
f 57/57/15 58/58/15 59/59/15 60/60/15
f 61/61/16 62/62/16 63/63/16 64/64/16
f 65/65/17 66/66/17 67/67/17 68/68/17
usemtl lining
f 5/5/2 6/6/2 7/7/2 8/8/2
f 17/17/5 18/18/5 19/19/5 20/20/5
f 29/29/8 30/30/8 31/31/8 32/32/8
f 41/41/11 42/42/11 43/43/11 44/44/11
f 53/53/14 54/54/14 55/55/14 56/56/14
f 69/69/18 70/70/18 71/71/18 72/72/18
f 73/73/19 74/74/19 75/75/19 76/76/19
