# Generated by tools/gen_obj_models.py - edit that, not this.
mtllib coffin_foot_lid.mtl
o coffin_foot_lid
v 0.714354 0.59375 0.96875
vt 0.989951 0.59375
v 0.714354 0.5 0.96875
vt 0.989951 0.5
v 0.861773 0.5 0
vt 0.0100488 0.5
v 0.861773 0.59375 0
vt 0.0100488 0.59375
vn 0.988619 0 0.150442
v 0.285646 0.59375 0.96875
vt 0.714354 0.59375
v 0.285646 0.5 0.96875
vt 0.714354 0.5
v 0.714354 0.5 0.96875
vt 0.285646 0.5
v 0.714354 0.59375 0.96875
vt 0.285646 0.59375
vn 0 0 1
v 0.138227 0.59375 0
vt 0.989951 0.59375
v 0.138227 0.5 0
vt 0.989951 0.5
v 0.285646 0.5 0.96875
vt 0.0100488 0.5
v 0.285646 0.59375 0.96875
vt 0.0100488 0.59375
vn -0.988619 0 0.150442
v 0.138227 0.59375 0
vt 0 0.861773
v 0.285646 0.59375 0.96875
vt 0.96875 0.714354
v 0.714354 0.59375 0.96875
vt 0.96875 0.285646
v 0.861773 0.59375 0
vt 0 0.138227
vn 0 1 0
v 0.861773 0.5 0
vt 0.861773 0
v 0.714354 0.5 0.96875
vt 0.714354 0.96875
v 0.285646 0.5 0.96875
vt 0.285646 0.96875
v 0.138227 0.5 0
vt 0.138227 0
vn 0 -1 0
usemtl wood
f 1/1/1 2/2/1 3/3/1 4/4/1
f 5/5/2 6/6/2 7/7/2 8/8/2
f 9/9/3 10/10/3 11/11/3 12/12/3
f 13/13/4 14/14/4 15/15/4 16/16/4
usemtl lining
f 17/17/5 18/18/5 19/19/5 20/20/5
