# Generated by tools/gen_obj_models.py - edit that, not this.
mtllib coffin_item.mtl
o coffin_item
v 0.609375 0.375 0.03125
vt 0.71875 0.5
v 0.609375 0.125 0.03125
vt 0.71875 0
v 0.390625 0.125 0.03125
vt 0.28125 0
v 0.390625 0.375 0.03125
vt 0.28125 0.5
vn 0 -0 -1
v 0.411231 0.375 0.0625
vt 0.322462 0.5
v 0.411231 0.15625 0.0625
vt 0.322462 0.0625
v 0.588769 0.15625 0.0625
vt 0.677538 0.0625
v 0.588769 0.375 0.0625
vt 0.677538 0.5
vn 0 0 1
v 0.411231 0.375 0.0625
vt 0.125 0.677538
v 0.588769 0.375 0.0625
vt 0.125 0.322462
v 0.609375 0.375 0.03125
vt 0.0625 0.28125
v 0.390625 0.375 0.03125
vt 0.0625 0.71875
vn -0 1 0
v 0.703125 0.375 0.25
vt 0.737993 0.5
v 0.703125 0.125 0.25
vt 0.737993 0
v 0.609375 0.125 0.03125
vt 0.262007 0
v 0.609375 0.375 0.03125
vt 0.262007 0.5
vn 0.919145 0 -0.393919
v 0.588769 0.375 0.0625
vt 0.29153 0.5
v 0.588769 0.15625 0.0625
vt 0.29153 0.0625
v 0.670889 0.15625 0.254114
vt 0.70847 0.0625
v 0.670889 0.375 0.254114
vt 0.70847 0.5
vn -0.919145 0 0.393919
v 0.588769 0.375 0.0625
vt 0.125 0.322462
v 0.670889 0.375 0.254114
vt 0.508228 0.158222
v 0.703125 0.375 0.25
vt 0.5 0.09375
v 0.609375 0.375 0.03125
vt 0.0625 0.28125
vn 0 1 0
v 0.665082 0.375 0.5
vt 0.752878 0.5
v 0.665082 0.125 0.5
vt 0.752878 0
v 0.703125 0.125 0.25
vt 0.247122 0
v 0.703125 0.375 0.25
vt 0.247122 0.5
vn 0.988619 0 0.150442
v 0.670889 0.375 0.254114
vt 0.251283 0.5
v 0.670889 0.15625 0.254114
vt 0.251283 0.0625
v 0.633472 0.15625 0.5
vt 0.748717 0.0625
v 0.633472 0.375 0.5
vt 0.748717 0.5
vn -0.988619 -0 -0.150442
v 0.670889 0.375 0.254114
vt 0.508228 0.158222
v 0.633472 0.375 0.5
vt 1 0.233056
v 0.665082 0.375 0.5
vt 1 0.169837
v 0.703125 0.375 0.25
vt 0.5 0.09375
vn 0 1 0
v 0.296875 0.375 0.25
vt 0.752878 0.5
v 0.296875 0.125 0.25
vt 0.752878 0
v 0.334918 0.125 0.5
vt 0.247122 0
v 0.334918 0.375 0.5
vt 0.247122 0.5
vn -0.988619 0 0.150442
v 0.366528 0.375 0.5
vt 0.251283 0.5
v 0.366528 0.15625 0.5
vt 0.251283 0.0625
v 0.329111 0.15625 0.254114
vt 0.748717 0.0625
v 0.329111 0.375 0.254114
vt 0.748717 0.5
vn 0.988619 0 -0.150442
v 0.366528 0.375 0.5
vt 1 0.766944
v 0.329111 0.375 0.254114
vt 0.508228 0.841778
v 0.296875 0.375 0.25
vt 0.5 0.90625
v 0.334918 0.375 0.5
vt 1 0.830163
vn 0 1 0
v 0.390625 0.375 0.03125
vt 0.737993 0.5
v 0.390625 0.125 0.03125
vt 0.737993 0
v 0.296875 0.125 0.25
vt 0.262007 0
v 0.296875 0.375 0.25
vt 0.262007 0.5
vn -0.919145 -0 -0.393919
v 0.329111 0.375 0.254114
vt 0.29153 0.5
v 0.329111 0.15625 0.254114
vt 0.29153 0.0625
v 0.411231 0.15625 0.0625
vt 0.70847 0.0625
v 0.411231 0.375 0.0625
vt 0.70847 0.5
vn 0.919145 0 0.393919
v 0.329111 0.375 0.254114
vt 0.508228 0.841778
v 0.411231 0.375 0.0625
vt 0.125 0.677538
v 0.390625 0.375 0.03125
vt 0.0625 0.71875
v 0.296875 0.375 0.25
vt 0.5 0.90625
vn 0 1 0
v 0.390625 0.125 0.03125
vt 0.28125 0.0625
v 0.609375 0.125 0.03125
vt 0.71875 0.0625
v 0.703125 0.125 0.25
vt 0.90625 0.5
v 0.665082 0.125 0.5
vt 0.830163 1
vn 0 -1 0
v 0.390625 0.125 0.03125
vt 0.28125 0.0625
v 0.665082 0.125 0.5
vt 0.830163 1
v 0.334918 0.125 0.5
vt 0.169837 1
v 0.296875 0.125 0.25
vt 0.09375 0.5
vn 0 -1 0
v 0.633472 0.15625 0.5
vt 0.766944 0
v 0.670889 0.15625 0.254114
vt 0.841778 0.491772
v 0.588769 0.15625 0.0625
vt 0.677538 0.875
v 0.411231 0.15625 0.0625
vt 0.322462 0.875
vn 0 1 0
v 0.329111 0.15625 0.254114
vt 0.158222 0.491772
v 0.366528 0.15625 0.5
vt 0.233056 0
v 0.633472 0.15625 0.5
vt 0.766944 0
v 0.411231 0.15625 0.0625
vt 0.322462 0.875
vn 0 1 0
v 0.619678 0.421875 0.015625
vt 0.739356 0.59375
v 0.619678 0.375 0.015625
vt 0.739356 0.5
v 0.380322 0.375 0.015625
vt 0.260644 0.5
v 0.380322 0.421875 0.015625
vt 0.260644 0.59375
vn 0 -0 -1
v 0.719243 0.421875 0.247943
vt 0.752754 0.59375
v 0.719243 0.375 0.247943
vt 0.752754 0.5
v 0.619678 0.375 0.015625
vt 0.247246 0.5
v 0.619678 0.421875 0.015625
vt 0.247246 0.59375
vn 0.919145 0 -0.393919
v 0.680886 0.421875 0.5
vt 0.754959 0.59375
v 0.680886 0.375 0.5
vt 0.754959 0.5
v 0.719243 0.375 0.247943
vt 0.245041 0.5
v 0.719243 0.421875 0.247943
vt 0.245041 0.59375
vn 0.988619 0 0.150442
v 0.280757 0.421875 0.247943
vt 0.754959 0.59375
v 0.280757 0.375 0.247943
vt 0.754959 0.5
v 0.319114 0.375 0.5
vt 0.245041 0.5
v 0.319114 0.421875 0.5
vt 0.245041 0.59375
vn -0.988619 0 0.150442
v 0.380322 0.421875 0.015625
vt 0.752754 0.59375
v 0.380322 0.375 0.015625
vt 0.752754 0.5
v 0.280757 0.375 0.247943
vt 0.247246 0.5
v 0.280757 0.421875 0.247943
vt 0.247246 0.59375
vn -0.919145 -0 -0.393919
v 0.680886 0.421875 0.5
vt 1 0.138227
v 0.719243 0.421875 0.247943
vt 0.495886 0.0615142
v 0.619678 0.421875 0.015625
vt 0.03125 0.260644
v 0.380322 0.421875 0.015625
vt 0.03125 0.739356
vn 0 1 0
v 0.280757 0.421875 0.247943
vt 0.495886 0.938486
v 0.319114 0.421875 0.5
vt 1 0.861773
v 0.680886 0.421875 0.5
vt 1 0.138227
v 0.380322 0.421875 0.015625
vt 0.03125 0.739356
vn 0 1 0
v 0.380322 0.375 0.015625
vt 0.260644 0.03125
v 0.619678 0.375 0.015625
vt 0.739356 0.03125
v 0.719243 0.375 0.247943
vt 0.938486 0.495886
v 0.680886 0.375 0.5
vt 0.861773 1
vn 0 -1 0
v 0.380322 0.375 0.015625
vt 0.260644 0.03125
v 0.680886 0.375 0.5
vt 0.861773 1
v 0.319114 0.375 0.5
vt 0.138227 1
v 0.280757 0.375 0.247943
vt 0.0615142 0.495886
vn 0 -1 0
v 0.476562 0.453125 0.09375
vt 0.453125 0.8125
v 0.476562 0.453125 0.171875
vt 0.453125 0.65625
v 0.523438 0.453125 0.171875
vt 0.546875 0.65625
v 0.523438 0.453125 0.09375
vt 0.546875 0.8125
vn 0 1 0
v 0.523438 0.453125 0.09375
vt 0.453125 0.65625
v 0.523438 0.421875 0.09375
vt 0.453125 0.59375
v 0.476562 0.421875 0.09375
vt 0.546875 0.59375
v 0.476562 0.453125 0.09375
vt 0.546875 0.65625
vn 0 -0 -1
v 0.476562 0.453125 0.09375
vt 0.1875 0.65625
v 0.476562 0.421875 0.09375
vt 0.1875 0.59375
v 0.476562 0.421875 0.171875
vt 0.34375 0.59375
v 0.476562 0.453125 0.171875
vt 0.34375 0.65625
vn -1 0 0
v 0.523438 0.453125 0.171875
vt 0.65625 0.65625
v 0.523438 0.421875 0.171875
vt 0.65625 0.59375
v 0.523438 0.421875 0.09375
vt 0.8125 0.59375
v 0.523438 0.453125 0.09375
vt 0.8125 0.65625
vn 1 0 0
v 0.40625 0.453125 0.171875
vt 0.3125 0.65625
v 0.40625 0.453125 0.21875
vt 0.3125 0.5625
v 0.59375 0.453125 0.21875
vt 0.6875 0.5625
v 0.59375 0.453125 0.171875
vt 0.6875 0.65625
vn 0 1 0
v 0.59375 0.453125 0.171875
vt 0.3125 0.65625
v 0.59375 0.421875 0.171875
vt 0.3125 0.59375
v 0.40625 0.421875 0.171875
vt 0.6875 0.59375
v 0.40625 0.453125 0.171875
vt 0.6875 0.65625
vn 0 -0 -1
v 0.40625 0.453125 0.21875
vt 0.3125 0.65625
v 0.40625 0.421875 0.21875
vt 0.3125 0.59375
v 0.59375 0.421875 0.21875
vt 0.6875 0.59375
v 0.59375 0.453125 0.21875
vt 0.6875 0.65625
vn 0 0 1
v 0.40625 0.453125 0.171875
vt 0.34375 0.65625
v 0.40625 0.421875 0.171875
vt 0.34375 0.59375
v 0.40625 0.421875 0.21875
vt 0.4375 0.59375
v 0.40625 0.453125 0.21875
vt 0.4375 0.65625
vn -1 0 0
v 0.59375 0.453125 0.21875
vt 0.5625 0.65625
v 0.59375 0.421875 0.21875
vt 0.5625 0.59375
v 0.59375 0.421875 0.171875
vt 0.65625 0.59375
v 0.59375 0.453125 0.171875
vt 0.65625 0.65625
vn 1 0 0
v 0.476562 0.453125 0.21875
vt 0.453125 0.5625
v 0.476562 0.453125 0.40625
vt 0.453125 0.1875
v 0.523438 0.453125 0.40625
vt 0.546875 0.1875
v 0.523438 0.453125 0.21875
vt 0.546875 0.5625
vn 0 1 0
v 0.476562 0.453125 0.40625
vt 0.453125 0.65625
v 0.476562 0.421875 0.40625
vt 0.453125 0.59375
v 0.523438 0.421875 0.40625
vt 0.546875 0.59375
v 0.523438 0.453125 0.40625
vt 0.546875 0.65625
vn 0 0 1
v 0.476562 0.453125 0.21875
vt 0.4375 0.65625
v 0.476562 0.421875 0.21875
vt 0.4375 0.59375
v 0.476562 0.421875 0.40625
vt 0.8125 0.59375
v 0.476562 0.453125 0.40625
vt 0.8125 0.65625
vn -1 0 0
v 0.523438 0.453125 0.40625
vt 0.1875 0.65625
v 0.523438 0.421875 0.40625
vt 0.1875 0.59375
v 0.523438 0.421875 0.21875
vt 0.5625 0.59375
v 0.523438 0.453125 0.21875
vt 0.5625 0.65625
vn 1 0 0
v 0.59375 0.375 0.96875
vt 0.974146 0.5
v 0.59375 0.125 0.96875
vt 0.974146 0
v 0.665082 0.125 0.5
vt 0.0258537 0
v 0.665082 0.375 0.5
vt 0.0258537 0.5
vn 0.988619 0 0.150442
v 0.633472 0.375 0.5
vt 0.0574634 0.5
v 0.633472 0.15625 0.5
vt 0.0574634 0.0625
v 0.566896 0.15625 0.9375
vt 0.942537 0.0625
v 0.566896 0.375 0.9375
vt 0.942537 0.5
vn -0.988619 -0 -0.150442
v 0.633472 0.375 0.5
vt 0 0.233056
v 0.566896 0.375 0.9375
vt 0.875 0.366209
v 0.59375 0.375 0.96875
vt 0.9375 0.3125
v 0.665082 0.375 0.5
vt 0 0.169837
vn 0 1 0
v 0.40625 0.375 0.96875
vt 0.6875 0.5
v 0.40625 0.125 0.96875
vt 0.6875 0
v 0.59375 0.125 0.96875
vt 0.3125 0
v 0.59375 0.375 0.96875
vt 0.3125 0.5
vn 0 0 1
v 0.566896 0.375 0.9375
vt 0.366209 0.5
v 0.566896 0.15625 0.9375
vt 0.366209 0.0625
v 0.433104 0.15625 0.9375
vt 0.633791 0.0625
v 0.433104 0.375 0.9375
vt 0.633791 0.5
vn 0 -0 -1
v 0.566896 0.375 0.9375
vt 0.875 0.366209
v 0.433104 0.375 0.9375
vt 0.875 0.633791
v 0.40625 0.375 0.96875
vt 0.9375 0.6875
v 0.59375 0.375 0.96875
vt 0.9375 0.3125
vn 0 1 0
v 0.334918 0.375 0.5
vt 0.974146 0.5
v 0.334918 0.125 0.5
vt 0.974146 0
v 0.40625 0.125 0.96875
vt 0.0258537 0
v 0.40625 0.375 0.96875
vt 0.0258537 0.5
vn -0.988619 0 0.150442
v 0.433104 0.375 0.9375
vt 0.0574634 0.5
v 0.433104 0.15625 0.9375
vt 0.0574634 0.0625
v 0.366528 0.15625 0.5
vt 0.942537 0.0625
v 0.366528 0.375 0.5
vt 0.942537 0.5
vn 0.988619 0 -0.150442
v 0.433104 0.375 0.9375
vt 0.875 0.633791
v 0.366528 0.375 0.5
vt 0 0.766944
v 0.334918 0.375 0.5
vt 0 0.830163
v 0.40625 0.375 0.96875
vt 0.9375 0.6875
vn 0 1 0
v 0.665082 0.125 0.5
vt 0.830163 0
v 0.59375 0.125 0.96875
vt 0.6875 0.9375
v 0.40625 0.125 0.96875
vt 0.3125 0.9375
v 0.334918 0.125 0.5
vt 0.169837 0
vn 0 -1 0
v 0.366528 0.15625 0.5
vt 0.233056 1
v 0.433104 0.15625 0.9375
vt 0.366209 0.125
v 0.566896 0.15625 0.9375
vt 0.633791 0.125
v 0.633472 0.15625 0.5
vt 0.766944 1
vn 0 1 0
v 0.607177 0.421875 0.984375
vt 0.989951 0.59375
v 0.607177 0.375 0.984375
vt 0.989951 0.5
v 0.680886 0.375 0.5
vt 0.0100488 0.5
v 0.680886 0.421875 0.5
vt 0.0100488 0.59375
vn 0.988619 0 0.150442
v 0.392823 0.421875 0.984375
vt 0.714354 0.59375
v 0.392823 0.375 0.984375
vt 0.714354 0.5
v 0.607177 0.375 0.984375
vt 0.285646 0.5
v 0.607177 0.421875 0.984375
vt 0.285646 0.59375
vn 0 0 1
v 0.319114 0.421875 0.5
vt 0.989951 0.59375
v 0.319114 0.375 0.5
vt 0.989951 0.5
v 0.392823 0.375 0.984375
vt 0.0100488 0.5
v 0.392823 0.421875 0.984375
vt 0.0100488 0.59375
vn -0.988619 0 0.150442
v 0.319114 0.421875 0.5
vt 0 0.861773
v 0.392823 0.421875 0.984375
vt 0.96875 0.714354
v 0.607177 0.421875 0.984375
vt 0.96875 0.285646
v 0.680886 0.421875 0.5
vt 0 0.138227
vn 0 1 0
v 0.680886 0.375 0.5
vt 0.861773 0
v 0.607177 0.375 0.984375
vt 0.714354 0.96875
v 0.392823 0.375 0.984375
vt 0.285646 0.96875
v 0.319114 0.375 0.5
vt 0.138227 0
vn 0 -1 0
usemtl wood
f 1/1/1 2/2/1 3/3/1 4/4/1
f 9/9/3 10/10/3 11/11/3 12/12/3
f 13/13/4 14/14/4 15/15/4 16/16/4
f 21/21/6 22/22/6 23/23/6 24/24/6
f 25/25/7 26/26/7 27/27/7 28/28/7
f 33/33/9 34/34/9 35/35/9 36/36/9
f 37/37/10 38/38/10 39/39/10 40/40/10
f 45/45/12 46/46/12 47/47/12 48/48/12
f 49/49/13 50/50/13 51/51/13 52/52/13
f 57/57/15 58/58/15 59/59/15 60/60/15
f 61/61/16 62/62/16 63/63/16 64/64/16
f 65/65/17 66/66/17 67/67/17 68/68/17
f 77/77/20 78/78/20 79/79/20 80/80/20
f 81/81/21 82/82/21 83/83/21 84/84/21
f 85/85/22 86/86/22 87/87/22 88/88/22
f 89/89/23 90/90/23 91/91/23 92/92/23
f 93/93/24 94/94/24 95/95/24 96/96/24
f 97/97/25 98/98/25 99/99/25 100/100/25
f 101/101/26 102/102/26 103/103/26 104/104/26
f 165/165/42 166/166/42 167/167/42 168/168/42
f 173/173/44 174/174/44 175/175/44 176/176/44
f 177/177/45 178/178/45 179/179/45 180/180/45
f 185/185/47 186/186/47 187/187/47 188/188/47
f 189/189/48 190/190/48 191/191/48 192/192/48
f 197/197/50 198/198/50 199/199/50 200/200/50
f 201/201/51 202/202/51 203/203/51 204/204/51
f 209/209/53 210/210/53 211/211/53 212/212/53
f 213/213/54 214/214/54 215/215/54 216/216/54
f 217/217/55 218/218/55 219/219/55 220/220/55
f 221/221/56 222/222/56 223/223/56 224/224/56
usemtl lining
f 5/5/2 6/6/2 7/7/2 8/8/2
f 17/17/5 18/18/5 19/19/5 20/20/5
f 29/29/8 30/30/8 31/31/8 32/32/8
f 41/41/11 42/42/11 43/43/11 44/44/11
f 53/53/14 54/54/14 55/55/14 56/56/14
f 69/69/18 70/70/18 71/71/18 72/72/18
f 73/73/19 74/74/19 75/75/19 76/76/19
f 105/105/27 106/106/27 107/107/27 108/108/27
f 109/109/28 110/110/28 111/111/28 112/112/28
f 169/169/43 170/170/43 171/171/43 172/172/43
f 181/181/46 182/182/46 183/183/46 184/184/46
f 193/193/49 194/194/49 195/195/49 196/196/49
f 205/205/52 206/206/52 207/207/52 208/208/52
f 225/225/57 226/226/57 227/227/57 228/228/57
usemtl trim
f 113/113/29 114/114/29 115/115/29 116/116/29
f 117/117/30 118/118/30 119/119/30 120/120/30
f 121/121/31 122/122/31 123/123/31 124/124/31
f 125/125/32 126/126/32 127/127/32 128/128/32
f 129/129/33 130/130/33 131/131/33 132/132/33
f 133/133/34 134/134/34 135/135/34 136/136/34
f 137/137/35 138/138/35 139/139/35 140/140/35
f 141/141/36 142/142/36 143/143/36 144/144/36
f 145/145/37 146/146/37 147/147/37 148/148/37
f 149/149/38 150/150/38 151/151/38 152/152/38
f 153/153/39 154/154/39 155/155/39 156/156/39
f 157/157/40 158/158/40 159/159/40 160/160/40
f 161/161/41 162/162/41 163/163/41 164/164/41
