# Generated by tools/gen_obj_models.py - edit that, not this.
mtllib gargoyle_perched.mtl
o gargoyle_perched
v 0.375 0.825491 0.338516
vt 0.125 1
v 0.625 0.825491 0.338516
vt 0.0625 1
v 0.625 0.814594 0.0887535
vt 0.0625 0.9375
v 0.375 0.814594 0.0887535
vt 0.125 0.9375
vn 0 0.99905 -0.043586
v 0.375 0.627272 0.0969259
vt 0.1875 0.9375
v 0.625 0.627272 0.0969259
vt 0.125 0.9375
v 0.625 0.638169 0.346688
vt 0.125 1
v 0.375 0.638169 0.346688
vt 0.1875 1
vn 0 -0.99905 0.043586
v 0.625 0.814594 0.0887535
vt 0.0625 0.9375
v 0.625 0.825491 0.338516
vt 0 0.9375
v 0.625 0.638169 0.346688
vt 0 0.890625
v 0.625 0.627272 0.0969259
vt 0.0625 0.890625
vn 1 0 -0
v 0.375 0.814594 0.0887535
vt 0.125 0.9375
v 0.625 0.814594 0.0887535
vt 0.0625 0.9375
v 0.625 0.627272 0.0969259
vt 0.0625 0.890625
v 0.375 0.627272 0.0969259
vt 0.125 0.890625
vn 0 -0.043586 -0.99905
v 0.375 0.825491 0.338516
vt 0.1875 0.9375
v 0.375 0.814594 0.0887535
vt 0.125 0.9375
v 0.375 0.627272 0.0969259
vt 0.125 0.890625
v 0.375 0.638169 0.346688
vt 0.1875 0.890625
vn -1 0 0
v 0.625 0.825491 0.338516
vt 0.25 0.9375
v 0.375 0.825491 0.338516
vt 0.1875 0.9375
v 0.375 0.638169 0.346688
vt 0.1875 0.890625
v 0.625 0.638169 0.346688
vt 0.25 0.890625
vn 0 0.043586 0.99905
v 0.48382 0.626231 0.106355
vt 0.265625 0.5
v 0.528014 0.670383 0.104429
vt 0.25 0.5
v 0.572208 0.626231 0.106355
vt 0.25 0.484375
v 0.528014 0.582079 0.108281
vt 0.265625 0.484375
vn 0 -0.043586 -0.99905
v 0.528014 0.670383 0.104429
vt 0.25 0.5
v 0.48382 0.626231 0.106355
vt 0.265625 0.5
v 0.528014 0.582079 0.108281
vt 0.265625 0.484375
v 0.572208 0.626231 0.106355
vt 0.25 0.484375
vn 0 0.043586 0.99905
v 0.436945 0.626231 0.106355
vt 0.265625 0.5
v 0.481139 0.670383 0.104429
vt 0.25 0.5
v 0.525333 0.626231 0.106355
vt 0.25 0.484375
v 0.481139 0.582079 0.108281
vt 0.265625 0.484375
vn 0 -0.043586 -0.99905
v 0.481139 0.670383 0.104429
vt 0.25 0.5
v 0.436945 0.626231 0.106355
vt 0.265625 0.5
v 0.481139 0.582079 0.108281
vt 0.265625 0.484375
v 0.525333 0.626231 0.106355
vt 0.25 0.484375
vn 0 0.043586 0.99905
v 0.621786 0.730497 0.176057
vt 0.28125 0.523438
v 0.591982 0.730907 0.185445
vt 0.273438 0.523438
v 0.61847 0.766605 0.267986
vt 0.273438 0.546875
v 0.648274 0.766196 0.258599
vt 0.28125 0.546875
vn -0.102846 0.924569 -0.366871
v 0.654702 0.70841 0.281528
vt 0.289062 0.546875
v 0.624898 0.70882 0.290915
vt 0.28125 0.546875
v 0.59841 0.673121 0.208374
vt 0.28125 0.523438
v 0.628214 0.672711 0.198987
vt 0.289062 0.523438
vn 0.102846 -0.924569 0.366871
v 0.59841 0.673121 0.208374
vt 0.273438 0.507812
v 0.624898 0.70882 0.290915
vt 0.25 0.507812
v 0.61847 0.766605 0.267986
vt 0.25 0.523438
v 0.591982 0.730907 0.185445
vt 0.273438 0.523438
vn -0.953727 0.013105 0.300389
v 0.628214 0.672711 0.198987
vt 0.28125 0.507812
v 0.59841 0.673121 0.208374
vt 0.273438 0.507812
v 0.591982 0.730907 0.185445
vt 0.273438 0.523438
v 0.621786 0.730497 0.176057
vt 0.28125 0.523438
vn -0.282538 -0.380789 -0.880438
v 0.654702 0.70841 0.281528
vt 0.304688 0.507812
v 0.628214 0.672711 0.198987
vt 0.28125 0.507812
v 0.621786 0.730497 0.176057
vt 0.28125 0.523438
v 0.648274 0.766196 0.258599
vt 0.304688 0.523438
vn 0.953727 -0.013105 -0.300389
v 0.624898 0.70882 0.290915
vt 0.3125 0.507812
v 0.654702 0.70841 0.281528
vt 0.304688 0.507812
v 0.648274 0.766196 0.258599
vt 0.304688 0.523438
v 0.61847 0.766605 0.267986
vt 0.3125 0.523438
vn 0.282538 0.380789 0.880438
v 0.351726 0.766196 0.258599
vt 0.28125 0.546875
v 0.38153 0.766605 0.267986
vt 0.273438 0.546875
v 0.408018 0.730907 0.185445
vt 0.273438 0.523438
v 0.378214 0.730497 0.176057
vt 0.28125 0.523438
vn 0.102846 0.924569 -0.366871
v 0.371786 0.672711 0.198987
vt 0.289062 0.523438
v 0.40159 0.673121 0.208374
vt 0.28125 0.523438
v 0.375102 0.70882 0.290915
vt 0.28125 0.546875
v 0.345298 0.70841 0.281528
vt 0.289062 0.546875
vn -0.102846 -0.924569 0.366871
v 0.408018 0.730907 0.185445
vt 0.273438 0.523438
v 0.38153 0.766605 0.267986
vt 0.25 0.523438
v 0.375102 0.70882 0.290915
vt 0.25 0.507812
v 0.40159 0.673121 0.208374
vt 0.273438 0.507812
vn 0.953727 0.013105 0.300389
v 0.378214 0.730497 0.176057
vt 0.28125 0.523438
v 0.408018 0.730907 0.185445
vt 0.273438 0.523438
v 0.40159 0.673121 0.208374
vt 0.273438 0.507812
v 0.371786 0.672711 0.198987
vt 0.28125 0.507812
vn 0.282538 -0.380789 -0.880438
v 0.351726 0.766196 0.258599
vt 0.304688 0.523438
v 0.378214 0.730497 0.176057
vt 0.28125 0.523438
v 0.371786 0.672711 0.198987
vt 0.28125 0.507812
v 0.345298 0.70841 0.281528
vt 0.304688 0.507812
vn -0.953727 -0.013105 -0.300389
v 0.38153 0.766605 0.267986
vt 0.3125 0.523438
v 0.351726 0.766196 0.258599
vt 0.304688 0.523438
v 0.345298 0.70841 0.281528
vt 0.304688 0.507812
v 0.375102 0.70882 0.290915
vt 0.3125 0.507812
vn -0.282538 0.380789 0.880438
v 0.732804 0.866858 0.200533
vt 0.304688 0.570312
v 0.583784 0.819922 0.202581
vt 0.265625 0.570312
v 0.597072 0.779739 0.24857
vt 0.265625 0.585938
v 0.746092 0.826675 0.246522
vt 0.304688 0.585938
vn -0.212609 0.704565 0.677042
v 0.75938 0.78264 0.204207
vt 0.34375 0.585938
v 0.61036 0.735704 0.206255
vt 0.304688 0.585938
v 0.597072 0.775887 0.160266
vt 0.304688 0.570312
v 0.746092 0.822823 0.158218
vt 0.34375 0.570312
vn 0.212609 -0.704565 -0.677042
v 0.597072 0.775887 0.160266
vt 0.265625 0.554688
v 0.61036 0.735704 0.206255
vt 0.25 0.554688
v 0.597072 0.779739 0.24857
vt 0.25 0.570312
v 0.583784 0.819922 0.202581
vt 0.265625 0.570312
vn -0.953727 -0.300389 0.013105
v 0.746092 0.822823 0.158218
vt 0.304688 0.554688
v 0.597072 0.775887 0.160266
vt 0.265625 0.554688
v 0.583784 0.819922 0.202581
vt 0.265625 0.570312
v 0.732804 0.866858 0.200533
vt 0.304688 0.570312
vn -0.21261 0.642927 -0.735827
v 0.75938 0.78264 0.204207
vt 0.320312 0.554688
v 0.746092 0.822823 0.158218
vt 0.304688 0.554688
v 0.732804 0.866858 0.200533
vt 0.304688 0.570312
v 0.746092 0.826675 0.246522
vt 0.320312 0.570312
vn 0.953727 0.300389 -0.013105
v 0.61036 0.735704 0.206255
vt 0.359375 0.554688
v 0.75938 0.78264 0.204207
vt 0.320312 0.554688
v 0.746092 0.826675 0.246522
vt 0.320312 0.570312
v 0.597072 0.779739 0.24857
vt 0.359375 0.570312
vn 0.21261 -0.642927 0.735827
v 0.253908 0.826675 0.246522
vt 0.304688 0.585938
v 0.402928 0.779739 0.24857
vt 0.265625 0.585938
v 0.416216 0.819922 0.202581
vt 0.265625 0.570312
v 0.267196 0.866858 0.200533
vt 0.304688 0.570312
vn 0.212609 0.704565 0.677042
v 0.253908 0.822823 0.158218
vt 0.34375 0.570312
v 0.402928 0.775887 0.160266
vt 0.304688 0.570312
v 0.38964 0.735704 0.206255
vt 0.304688 0.585938
v 0.24062 0.78264 0.204207
vt 0.34375 0.585938
vn -0.212609 -0.704565 -0.677042
v 0.416216 0.819922 0.202581
vt 0.265625 0.570312
v 0.402928 0.779739 0.24857
vt 0.25 0.570312
v 0.38964 0.735704 0.206255
vt 0.25 0.554688
v 0.402928 0.775887 0.160266
vt 0.265625 0.554688
vn 0.953727 -0.300389 0.013105
v 0.267196 0.866858 0.200533
vt 0.304688 0.570312
v 0.416216 0.819922 0.202581
vt 0.265625 0.570312
v 0.402928 0.775887 0.160266
vt 0.265625 0.554688
v 0.253908 0.822823 0.158218
vt 0.304688 0.554688
vn 0.21261 0.642927 -0.735827
v 0.253908 0.826675 0.246522
vt 0.320312 0.570312
v 0.267196 0.866858 0.200533
vt 0.304688 0.570312
v 0.253908 0.822823 0.158218
vt 0.304688 0.554688
v 0.24062 0.78264 0.204207
vt 0.320312 0.554688
vn -0.953727 0.300389 -0.013105
v 0.402928 0.779739 0.24857
vt 0.359375 0.570312
v 0.253908 0.826675 0.246522
vt 0.320312 0.570312
v 0.24062 0.78264 0.204207
vt 0.320312 0.554688
v 0.38964 0.735704 0.206255
vt 0.359375 0.554688
vn -0.21261 -0.642927 0.735827
v 0.375 0.636508 0.271317
vt 0.304688 0.796875
v 0.625 0.636508 0.271317
vt 0.242188 0.796875
v 0.625 0.572391 0.0951204
vt 0.242188 0.75
v 0.375 0.572391 0.0951204
vt 0.304688 0.75
vn 0 0.939715 -0.341958
v 0.375 0.513659 0.116493
vt 0.367188 0.75
v 0.625 0.513659 0.116493
vt 0.304688 0.75
v 0.625 0.577776 0.292689
vt 0.304688 0.796875
v 0.375 0.577776 0.292689
vt 0.367188 0.796875
vn 0 -0.939715 0.341958
v 0.625 0.572391 0.0951204
vt 0.242188 0.75
v 0.625 0.636508 0.271317
vt 0.195312 0.75
v 0.625 0.577776 0.292689
vt 0.195312 0.734375
v 0.625 0.513659 0.116493
vt 0.242188 0.734375
vn 1 0 0
v 0.375 0.572391 0.0951204
vt 0.304688 0.75
v 0.625 0.572391 0.0951204
vt 0.242188 0.75
v 0.625 0.513659 0.116493
vt 0.242188 0.734375
v 0.375 0.513659 0.116493
vt 0.304688 0.734375
vn 0 -0.341958 -0.939715
v 0.375 0.636508 0.271317
vt 0.351562 0.75
v 0.375 0.572391 0.0951204
vt 0.304688 0.75
v 0.375 0.513659 0.116493
vt 0.304688 0.734375
v 0.375 0.577776 0.292689
vt 0.351562 0.734375
vn -1 0 0
v 0.625 0.636508 0.271317
vt 0.414062 0.75
v 0.375 0.636508 0.271317
vt 0.351562 0.75
v 0.375 0.577776 0.292689
vt 0.351562 0.734375
v 0.625 0.577776 0.292689
vt 0.414062 0.734375
vn 0 0.341958 0.939715
v 0.45257 0.568625 0.0981537
vt 0.164062 0.664062
v 0.496764 0.610155 0.0830411
vt 0.148438 0.664062
v 0.540958 0.568625 0.0981537
vt 0.148438 0.648438
v 0.496764 0.527095 0.113266
vt 0.164062 0.648438
vn 0 -0.341958 -0.939715
v 0.496764 0.610155 0.0830411
vt 0.148438 0.664062
v 0.45257 0.568625 0.0981537
vt 0.164062 0.664062
v 0.496764 0.527095 0.113266
vt 0.164062 0.648438
v 0.540958 0.568625 0.0981537
vt 0.148438 0.648438
vn 0 0.341958 0.939715
v 0.51507 0.568625 0.0981537
vt 0.164062 0.6875
v 0.559264 0.610155 0.0830411
vt 0.148438 0.6875
v 0.603458 0.568625 0.0981537
vt 0.148438 0.671875
v 0.559264 0.527095 0.113266
vt 0.164062 0.671875
vn 0 -0.341958 -0.939715
v 0.559264 0.610155 0.0830411
vt 0.148438 0.6875
v 0.51507 0.568625 0.0981537
vt 0.164062 0.6875
v 0.559264 0.527095 0.113266
vt 0.164062 0.671875
v 0.603458 0.568625 0.0981537
vt 0.148438 0.671875
vn 0 0.341958 0.939715
v 0.39007 0.568625 0.0981537
vt 0.164062 0.6875
v 0.434264 0.610155 0.0830411
vt 0.148438 0.6875
v 0.478458 0.568625 0.0981537
vt 0.148438 0.671875
v 0.434264 0.527095 0.113266
vt 0.164062 0.671875
vn 0 -0.341958 -0.939715
v 0.434264 0.610155 0.0830411
vt 0.148438 0.6875
v 0.39007 0.568625 0.0981537
vt 0.164062 0.6875
v 0.434264 0.527095 0.113266
vt 0.164062 0.671875
v 0.478458 0.568625 0.0981537
vt 0.148438 0.671875
vn 0 0.341958 0.939715
v 0.375 0.596726 0.506979
vt 0.09375 0.796875
v 0.625 0.596726 0.506979
vt 0.03125 0.796875
v 0.625 0.548891 0.391494
vt 0.03125 0.765625
v 0.375 0.548891 0.391494
vt 0.09375 0.765625
vn 0 0.923879 -0.382684
v 0.375 0.28905 0.499124
vt 0.15625 0.765625
v 0.625 0.28905 0.499124
vt 0.09375 0.765625
v 0.625 0.336885 0.614609
vt 0.09375 0.796875
v 0.375 0.336885 0.614609
vt 0.15625 0.796875
vn 0 -0.923879 0.382684
v 0.625 0.548891 0.391494
vt 0.03125 0.765625
v 0.625 0.596726 0.506979
vt 0 0.765625
v 0.625 0.336885 0.614609
vt 0 0.695312
v 0.625 0.28905 0.499124
vt 0.03125 0.695312
vn 1 0 -0
v 0.375 0.548891 0.391494
vt 0.09375 0.765625
v 0.625 0.548891 0.391494
vt 0.03125 0.765625
v 0.625 0.28905 0.499124
vt 0.03125 0.695312
v 0.375 0.28905 0.499124
vt 0.09375 0.695312
vn 0 -0.382684 -0.923879
v 0.375 0.596726 0.506979
vt 0.125 0.765625
v 0.375 0.548891 0.391494
vt 0.09375 0.765625
v 0.375 0.28905 0.499124
vt 0.09375 0.695312
v 0.375 0.336885 0.614609
vt 0.125 0.695312
vn -1 0 0
v 0.625 0.596726 0.506979
vt 0.1875 0.765625
v 0.375 0.596726 0.506979
vt 0.125 0.765625
v 0.375 0.336885 0.614609
vt 0.125 0.695312
v 0.625 0.336885 0.614609
vt 0.1875 0.695312
vn 0 0.382684 0.923879
v 0.371875 0.459443 0.575682
vt 0.101562 0.507812
v 0.628125 0.459443 0.575682
vt 0.0390625 0.507812
v 0.628125 0.397257 0.425552
vt 0.0390625 0.46875
v 0.371875 0.397257 0.425552
vt 0.101562 0.46875
vn 0 0.923879 -0.382684
v 0.371875 0.33374 0.451861
vt 0.164062 0.46875
v 0.628125 0.33374 0.451861
vt 0.101562 0.46875
v 0.628125 0.395926 0.601992
vt 0.101562 0.507812
v 0.371875 0.395926 0.601992
vt 0.164062 0.507812
vn 0 -0.923879 0.382684
v 0.628125 0.397257 0.425552
vt 0.0390625 0.46875
v 0.628125 0.459443 0.575682
vt 0 0.46875
v 0.628125 0.395926 0.601992
vt 0 0.453125
v 0.628125 0.33374 0.451861
vt 0.0390625 0.453125
vn 1 0 -0
v 0.371875 0.397257 0.425552
vt 0.101562 0.46875
v 0.628125 0.397257 0.425552
vt 0.0390625 0.46875
v 0.628125 0.33374 0.451861
vt 0.0390625 0.453125
v 0.371875 0.33374 0.451861
vt 0.101562 0.453125
vn 0 -0.382684 -0.923879
v 0.371875 0.459443 0.575682
vt 0.140625 0.46875
v 0.371875 0.397257 0.425552
vt 0.101562 0.46875
v 0.371875 0.33374 0.451861
vt 0.101562 0.453125
v 0.371875 0.395926 0.601992
vt 0.140625 0.453125
vn -1 0 0
v 0.628125 0.459443 0.575682
vt 0.203125 0.46875
v 0.371875 0.459443 0.575682
vt 0.140625 0.46875
v 0.371875 0.395926 0.601992
vt 0.140625 0.453125
v 0.628125 0.395926 0.601992
vt 0.203125 0.453125
vn 0 0.382684 0.923879
v 0.421875 0.375256 0.460149
vt 0.460938 0.796875
v 0.578125 0.375256 0.460149
vt 0.421875 0.796875
v 0.578125 0.158377 0.488701
vt 0.421875 0.742188
v 0.421875 0.158377 0.488701
vt 0.460938 0.742188
vn 0 -0.130526 -0.991445
v 0.578125 0.375256 0.460149
vt 0.421875 0.796875
v 0.421875 0.375256 0.460149
vt 0.460938 0.796875
v 0.421875 0.158377 0.488701
vt 0.460938 0.742188
v 0.578125 0.158377 0.488701
vt 0.421875 0.742188
vn 0 0.130526 0.991445
v 0.570312 0.503948 0.371282
vt 0.46875 0.554688
v 0.507812 0.503948 0.371282
vt 0.453125 0.554688
v 0.507812 0.537527 0.423995
vt 0.453125 0.570312
v 0.570312 0.537527 0.423995
vt 0.46875 0.570312
vn 0 0.843409 -0.537273
v 0.570312 0.405745 0.507944
vt 0.484375 0.570312
v 0.507812 0.405745 0.507944
vt 0.46875 0.570312
v 0.507812 0.372165 0.455231
vt 0.46875 0.554688
v 0.570312 0.372165 0.455231
vt 0.484375 0.554688
vn 0 -0.843409 0.537273
v 0.507812 0.372165 0.455231
vt 0.453125 0.515625
v 0.507812 0.405745 0.507944
vt 0.4375 0.515625
v 0.507812 0.537527 0.423995
vt 0.4375 0.554688
v 0.507812 0.503948 0.371282
vt 0.453125 0.554688
vn -1 0 0
v 0.570312 0.372165 0.455231
vt 0.46875 0.515625
v 0.507812 0.372165 0.455231
vt 0.453125 0.515625
v 0.507812 0.503948 0.371282
vt 0.453125 0.554688
v 0.570312 0.503948 0.371282
vt 0.46875 0.554688
vn -0 -0.537273 -0.843409
v 0.570312 0.405745 0.507944
vt 0.484375 0.515625
v 0.570312 0.372165 0.455231
vt 0.46875 0.515625
v 0.570312 0.503948 0.371282
vt 0.46875 0.554688
v 0.570312 0.537527 0.423995
vt 0.484375 0.554688
vn 1 0 0
v 0.507812 0.405745 0.507944
vt 0.5 0.515625
v 0.570312 0.405745 0.507944
vt 0.484375 0.515625
v 0.570312 0.537527 0.423995
vt 0.484375 0.554688
v 0.507812 0.537527 0.423995
vt 0.5 0.554688
vn -0 0.537273 0.843409
v 0.429688 0.537527 0.423995
vt 0.46875 0.570312
v 0.492188 0.537527 0.423995
vt 0.453125 0.570312
v 0.492188 0.503948 0.371282
vt 0.453125 0.554688
v 0.429688 0.503948 0.371282
vt 0.46875 0.554688
vn 0 0.843409 -0.537273
v 0.429688 0.372165 0.455231
vt 0.484375 0.554688
v 0.492188 0.372165 0.455231
vt 0.46875 0.554688
v 0.492188 0.405745 0.507944
vt 0.46875 0.570312
v 0.429688 0.405745 0.507944
vt 0.484375 0.570312
vn 0 -0.843409 0.537273
v 0.492188 0.503948 0.371282
vt 0.453125 0.554688
v 0.492188 0.537527 0.423995
vt 0.4375 0.554688
v 0.492188 0.405745 0.507944
vt 0.4375 0.515625
v 0.492188 0.372165 0.455231
vt 0.453125 0.515625
vn 1 0 -0
v 0.429688 0.503948 0.371282
vt 0.46875 0.554688
v 0.492188 0.503948 0.371282
vt 0.453125 0.554688
v 0.492188 0.372165 0.455231
vt 0.453125 0.515625
v 0.429688 0.372165 0.455231
vt 0.46875 0.515625
vn 0 -0.537273 -0.843409
v 0.429688 0.537527 0.423995
vt 0.484375 0.554688
v 0.429688 0.503948 0.371282
vt 0.46875 0.554688
v 0.429688 0.372165 0.455231
vt 0.46875 0.515625
v 0.429688 0.405745 0.507944
vt 0.484375 0.515625
vn -1 -0 0
v 0.492188 0.537527 0.423995
vt 0.5 0.554688
v 0.429688 0.537527 0.423995
vt 0.484375 0.554688
v 0.429688 0.405745 0.507944
vt 0.484375 0.515625
v 0.492188 0.405745 0.507944
vt 0.5 0.515625
vn 0 0.537273 0.843409
v 0.403125 0.785481 0.279464
vt 0.539062 0.890625
v 0.596875 0.785481 0.279464
vt 0.492188 0.890625
v 0.596875 0.694848 0.237206
vt 0.492188 0.867188
v 0.403125 0.694848 0.237206
vt 0.539062 0.867188
vn 0 0.422586 -0.906323
v 0.403125 0.639384 0.35616
vt 0.585938 0.867188
v 0.596875 0.639384 0.35616
vt 0.539062 0.867188
v 0.596875 0.730016 0.398419
vt 0.539062 0.890625
v 0.403125 0.730016 0.398419
vt 0.585938 0.890625
vn 0 -0.422586 0.906323
v 0.596875 0.694848 0.237206
vt 0.492188 0.867188
v 0.596875 0.785481 0.279464
vt 0.46875 0.867188
v 0.596875 0.730016 0.398419
vt 0.46875 0.835938
v 0.596875 0.639384 0.35616
vt 0.492188 0.835938
vn 1 0 0
v 0.403125 0.694848 0.237206
vt 0.539062 0.867188
v 0.596875 0.694848 0.237206
vt 0.492188 0.867188
v 0.596875 0.639384 0.35616
vt 0.492188 0.835938
v 0.403125 0.639384 0.35616
vt 0.539062 0.835938
vn 0 -0.906323 -0.422586
v 0.403125 0.785481 0.279464
vt 0.5625 0.867188
v 0.403125 0.694848 0.237206
vt 0.539062 0.867188
v 0.403125 0.639384 0.35616
vt 0.539062 0.835938
v 0.403125 0.730016 0.398419
vt 0.5625 0.835938
vn -1 -0 0
v 0.596875 0.785481 0.279464
vt 0.609375 0.867188
v 0.403125 0.785481 0.279464
vt 0.5625 0.867188
v 0.403125 0.730016 0.398419
vt 0.5625 0.835938
v 0.596875 0.730016 0.398419
vt 0.609375 0.835938
vn 0 0.906323 0.422586
v 0.290625 0.741664 0.393169
vt 0.140625 0.304688
v 0.709375 0.741664 0.393169
vt 0.0390625 0.304688
v 0.709375 0.633198 0.263895
vt 0.0390625 0.265625
v 0.290625 0.633198 0.263895
vt 0.140625 0.265625
vn 0 0.766065 -0.642763
v 0.290625 0.503924 0.372362
vt 0.242188 0.265625
v 0.709375 0.503924 0.372362
vt 0.140625 0.265625
v 0.709375 0.612391 0.501635
vt 0.140625 0.304688
v 0.290625 0.612391 0.501635
vt 0.242188 0.304688
vn 0 -0.766065 0.642763
v 0.709375 0.633198 0.263895
vt 0.0390625 0.265625
v 0.709375 0.741664 0.393169
vt 0 0.265625
v 0.709375 0.612391 0.501635
vt 0 0.226562
v 0.709375 0.503924 0.372362
vt 0.0390625 0.226562
vn 1 0 -0
v 0.290625 0.633198 0.263895
vt 0.140625 0.265625
v 0.709375 0.633198 0.263895
vt 0.0390625 0.265625
v 0.709375 0.503924 0.372362
vt 0.0390625 0.226562
v 0.290625 0.503924 0.372362
vt 0.140625 0.226562
vn 0 -0.642763 -0.766065
v 0.290625 0.741664 0.393169
vt 0.179688 0.265625
v 0.290625 0.633198 0.263895
vt 0.140625 0.265625
v 0.290625 0.503924 0.372362
vt 0.140625 0.226562
v 0.290625 0.612391 0.501635
vt 0.179688 0.226562
vn -1 0 0
v 0.709375 0.741664 0.393169
vt 0.28125 0.265625
v 0.290625 0.741664 0.393169
vt 0.179688 0.265625
v 0.290625 0.612391 0.501635
vt 0.179688 0.226562
v 0.709375 0.612391 0.501635
vt 0.28125 0.226562
vn 0 0.642763 0.766065
v 0.539674 0.668853 0.454803
vt 0.296875 0.359375
v 0.759375 0.919729 0.629035
vt 0.203125 0.359375
v 0.783716 0.9125 0.608749
vt 0.203125 0.351562
v 0.564015 0.661625 0.434517
vt 0.296875 0.351562
vn -0.313198 0.711296 -0.629258
v 0.574194 0.638508 0.454968
vt 0.390625 0.351562
v 0.793895 0.889383 0.6292
vt 0.296875 0.351562
v 0.769554 0.896611 0.649485
vt 0.296875 0.359375
v 0.549853 0.645736 0.475253
vt 0.390625 0.359375
vn 0.313198 -0.711296 0.629258
v 0.783716 0.9125 0.608749
vt 0.203125 0.351562
v 0.759375 0.919729 0.629035
vt 0.195312 0.351562
v 0.769554 0.896611 0.649485
vt 0.195312 0.34375
v 0.793895 0.889383 0.6292
vt 0.203125 0.34375
vn 0.583923 0.66678 0.463075
v 0.564015 0.661625 0.434517
vt 0.296875 0.351562
v 0.783716 0.9125 0.608749
vt 0.203125 0.351562
v 0.793895 0.889383 0.6292
vt 0.203125 0.34375
v 0.574194 0.638508 0.454968
vt 0.296875 0.34375
vn 0.74896 -0.222404 -0.624176
v 0.539674 0.668853 0.454803
vt 0.304688 0.351562
v 0.564015 0.661625 0.434517
vt 0.296875 0.351562
v 0.574194 0.638508 0.454968
vt 0.296875 0.34375
v 0.549853 0.645736 0.475253
vt 0.304688 0.34375
vn -0.583923 -0.66678 -0.463075
v 0.759375 0.919729 0.629035
vt 0.398438 0.351562
v 0.539674 0.668853 0.454803
vt 0.304688 0.351562
v 0.549853 0.645736 0.475253
vt 0.304688 0.34375
v 0.769554 0.896611 0.649485
vt 0.398438 0.34375
vn -0.74896 0.222404 0.624176
v 0.552405 0.665211 0.445342
vt 0.351562 1
v 0.771376 0.915253 0.618996
vt 0.257812 1
v 0.888826 0.648517 0.854967
vt 0.257812 0.90625
v 0.669854 0.398475 0.681314
vt 0.351562 0.90625
vn 0.74896 -0.222404 -0.624176
v 0.771376 0.915253 0.618996
vt 0.257812 1
v 0.552405 0.665211 0.445342
vt 0.351562 1
v 0.669854 0.398475 0.681314
vt 0.351562 0.90625
v 0.888826 0.648517 0.854967
vt 0.257812 0.90625
vn -0.74896 0.222404 0.624176
v 0.750185 0.87583 0.633649
vt 0.117188 0.617188
v 0.769162 0.897501 0.648699
vt 0.109375 0.617188
v 0.793504 0.890272 0.628413
vt 0.109375 0.609375
v 0.774526 0.868602 0.613363
vt 0.117188 0.609375
vn -0.313198 0.711296 -0.629258
v 0.882579 0.623205 0.830457
vt 0.125 0.609375
v 0.901557 0.644875 0.845507
vt 0.117188 0.609375
v 0.877216 0.652104 0.865793
vt 0.117188 0.617188
v 0.858238 0.630433 0.850743
vt 0.125 0.617188
vn 0.313198 -0.711296 0.629258
v 0.793504 0.890272 0.628413
vt 0.109375 0.609375
v 0.769162 0.897501 0.648699
vt 0.101562 0.609375
v 0.877216 0.652104 0.865793
vt 0.101562 0.523438
v 0.901557 0.644875 0.845507
vt 0.109375 0.523438
vn 0.583923 0.66678 0.463075
v 0.774526 0.868602 0.613363
vt 0.117188 0.609375
v 0.793504 0.890272 0.628413
vt 0.109375 0.609375
v 0.901557 0.644875 0.845507
vt 0.109375 0.523438
v 0.882579 0.623205 0.830457
vt 0.117188 0.523438
vn 0.74896 -0.222404 -0.624176
v 0.750185 0.87583 0.633649
vt 0.125 0.609375
v 0.774526 0.868602 0.613363
vt 0.117188 0.609375
v 0.882579 0.623205 0.830457
vt 0.117188 0.523438
v 0.858238 0.630433 0.850743
vt 0.125 0.523438
vn -0.583923 -0.66678 -0.463075
v 0.769162 0.897501 0.648699
vt 0.132812 0.609375
v 0.750185 0.87583 0.633649
vt 0.125 0.609375
v 0.858238 0.630433 0.850743
vt 0.125 0.523438
v 0.877216 0.652104 0.865793
vt 0.132812 0.523438
vn -0.74896 0.222404 0.624176
v 0.765323 0.903545 0.633605
vt 0.546875 0.773438
v 0.776263 0.8446 0.561529
vt 0.523438 0.773438
v 0.746901 0.911284 0.502536
vt 0.523438 0.796875
v 0.73596 0.970229 0.574612
vt 0.546875 0.796875
vn 0.94249 0.314222 -0.113914
v 0.776263 0.8446 0.561529
vt 0.523438 0.773438
v 0.765323 0.903545 0.633605
vt 0.546875 0.773438
v 0.73596 0.970229 0.574612
vt 0.546875 0.796875
v 0.746901 0.911284 0.502536
vt 0.523438 0.796875
vn -0.94249 -0.314222 0.113914
v 0.664198 0.652534 0.375371
vt 0.367188 0.898438
v 0.766516 0.915804 0.622038
vt 0.273438 0.898438
v 0.883965 0.649069 0.85801
vt 0.273438 0.804688
v 0.781647 0.385798 0.611342
vt 0.367188 0.804688
vn 0.909649 0.034323 -0.413958
v 0.766516 0.915804 0.622038
vt 0.273438 0.898438
v 0.664198 0.652534 0.375371
vt 0.367188 0.898438
v 0.781647 0.385798 0.611342
vt 0.367188 0.804688
v 0.883965 0.649069 0.85801
vt 0.273438 0.804688
vn -0.909649 -0.034323 0.413958
v 0.743182 0.894191 0.608227
vt 0.101562 0.4375
v 0.772746 0.895306 0.594773
vt 0.09375 0.4375
v 0.678613 0.653097 0.367839
vt 0.09375 0.351562
v 0.64905 0.651982 0.381293
vt 0.101562 0.351562
vn -0.313198 0.711296 -0.629258
v 0.659229 0.628865 0.401744
vt 0.109375 0.351562
v 0.688792 0.62998 0.38829
vt 0.101562 0.351562
v 0.782925 0.872189 0.615224
vt 0.101562 0.4375
v 0.753361 0.871074 0.628678
vt 0.109375 0.4375
vn 0.313198 -0.711296 0.629258
v 0.678613 0.653097 0.367839
vt 0.09375 0.351562
v 0.772746 0.895306 0.594773
vt 0.0078125 0.351562
v 0.782925 0.872189 0.615224
vt 0.0078125 0.34375
v 0.688792 0.62998 0.38829
vt 0.09375 0.34375
vn 0.909649 0.034323 -0.413958
v 0.64905 0.651982 0.381293
vt 0.101562 0.351562
v 0.678613 0.653097 0.367839
vt 0.09375 0.351562
v 0.688792 0.62998 0.38829
vt 0.09375 0.34375
v 0.659229 0.628865 0.401744
vt 0.101562 0.34375
vn -0.272848 -0.702055 -0.657779
v 0.743182 0.894191 0.608227
vt 0.1875 0.351562
v 0.64905 0.651982 0.381293
vt 0.101562 0.351562
v 0.659229 0.628865 0.401744
vt 0.101562 0.34375
v 0.753361 0.871074 0.628678
vt 0.1875 0.34375
vn -0.909649 -0.034323 0.413958
v 0.772746 0.895306 0.594773
vt 0.195312 0.351562
v 0.743182 0.894191 0.608227
vt 0.1875 0.351562
v 0.753361 0.871074 0.628678
vt 0.1875 0.34375
v 0.782925 0.872189 0.615224
vt 0.195312 0.34375
vn 0.272848 0.702055 0.657779
v 0.240625 0.919729 0.629035
vt 0.296875 0.359375
v 0.460326 0.668853 0.454803
vt 0.203125 0.359375
v 0.435985 0.661625 0.434517
vt 0.203125 0.351562
v 0.216284 0.9125 0.608749
vt 0.296875 0.351562
vn 0.313198 0.711296 -0.629258
v 0.206105 0.889383 0.6292
vt 0.390625 0.351562
v 0.425806 0.638508 0.454968
vt 0.296875 0.351562
v 0.450147 0.645736 0.475253
vt 0.296875 0.359375
v 0.230446 0.896611 0.649485
vt 0.390625 0.359375
vn -0.313198 -0.711296 0.629258
v 0.435985 0.661625 0.434517
vt 0.203125 0.351562
v 0.460326 0.668853 0.454803
vt 0.195312 0.351562
v 0.450147 0.645736 0.475253
vt 0.195312 0.34375
v 0.425806 0.638508 0.454968
vt 0.203125 0.34375
vn 0.583923 -0.66678 -0.463075
v 0.216284 0.9125 0.608749
vt 0.296875 0.351562
v 0.435985 0.661625 0.434517
vt 0.203125 0.351562
v 0.425806 0.638508 0.454968
vt 0.203125 0.34375
v 0.206105 0.889383 0.6292
vt 0.296875 0.34375
vn -0.74896 -0.222404 -0.624176
v 0.240625 0.919729 0.629035
vt 0.304688 0.351562
v 0.216284 0.9125 0.608749
vt 0.296875 0.351562
v 0.206105 0.889383 0.6292
vt 0.296875 0.34375
v 0.230446 0.896611 0.649485
vt 0.304688 0.34375
vn -0.583923 0.66678 0.463075
v 0.460326 0.668853 0.454803
vt 0.398438 0.351562
v 0.240625 0.919729 0.629035
vt 0.304688 0.351562
v 0.230446 0.896611 0.649485
vt 0.304688 0.34375
v 0.450147 0.645736 0.475253
vt 0.398438 0.34375
vn 0.74896 0.222404 0.624176
v 0.330146 0.398475 0.681314
vt 0.351562 0.90625
v 0.111174 0.648517 0.854967
vt 0.257812 0.90625
v 0.228624 0.915253 0.618996
vt 0.257812 1
v 0.447595 0.665211 0.445342
vt 0.351562 1
vn -0.74896 -0.222404 -0.624176
v 0.111174 0.648517 0.854967
vt 0.257812 0.90625
v 0.330146 0.398475 0.681314
vt 0.351562 0.90625
v 0.447595 0.665211 0.445342
vt 0.351562 1
v 0.228624 0.915253 0.618996
vt 0.257812 1
vn 0.74896 0.222404 0.624176
v 0.230838 0.897501 0.648699
vt 0.117188 0.617188
v 0.249815 0.87583 0.633649
vt 0.109375 0.617188
v 0.225474 0.868602 0.613363
vt 0.109375 0.609375
v 0.206496 0.890272 0.628413
vt 0.117188 0.609375
vn 0.313198 0.711296 -0.629258
v 0.0984432 0.644875 0.845507
vt 0.125 0.609375
v 0.117421 0.623205 0.830457
vt 0.117188 0.609375
v 0.141762 0.630433 0.850743
vt 0.117188 0.617188
v 0.122784 0.652104 0.865793
vt 0.125 0.617188
vn -0.313198 -0.711296 0.629258
v 0.225474 0.868602 0.613363
vt 0.109375 0.609375
v 0.249815 0.87583 0.633649
vt 0.101562 0.609375
v 0.141762 0.630433 0.850743
vt 0.101562 0.523438
v 0.117421 0.623205 0.830457
vt 0.109375 0.523438
vn 0.583923 -0.66678 -0.463075
v 0.206496 0.890272 0.628413
vt 0.117188 0.609375
v 0.225474 0.868602 0.613363
vt 0.109375 0.609375
v 0.117421 0.623205 0.830457
vt 0.109375 0.523438
v 0.0984432 0.644875 0.845507
vt 0.117188 0.523438
vn -0.74896 -0.222404 -0.624176
v 0.230838 0.897501 0.648699
vt 0.125 0.609375
v 0.206496 0.890272 0.628413
vt 0.117188 0.609375
v 0.0984432 0.644875 0.845507
vt 0.117188 0.523438
v 0.122784 0.652104 0.865793
vt 0.125 0.523438
vn -0.583923 0.66678 0.463075
v 0.249815 0.87583 0.633649
vt 0.132812 0.609375
v 0.230838 0.897501 0.648699
vt 0.125 0.609375
v 0.122784 0.652104 0.865793
vt 0.125 0.523438
v 0.141762 0.630433 0.850743
vt 0.132812 0.523438
vn 0.74896 0.222404 0.624176
v 0.26404 0.970229 0.574612
vt 0.546875 0.796875
v 0.253099 0.911284 0.502536
vt 0.523438 0.796875
v 0.223737 0.8446 0.561529
vt 0.523438 0.773438
v 0.234677 0.903545 0.633605
vt 0.546875 0.773438
vn -0.94249 0.314222 -0.113914
v 0.253099 0.911284 0.502536
vt 0.523438 0.796875
v 0.26404 0.970229 0.574612
vt 0.546875 0.796875
v 0.234677 0.903545 0.633605
vt 0.546875 0.773438
v 0.223737 0.8446 0.561529
vt 0.523438 0.773438
vn 0.94249 -0.314222 0.113914
v 0.335802 0.652534 0.375371
vt 0.367188 0.898438
v 0.233484 0.915804 0.622038
vt 0.273438 0.898438
v 0.116035 0.649069 0.85801
vt 0.273438 0.804688
v 0.218353 0.385798 0.611342
vt 0.367188 0.804688
vn 0.909649 -0.034323 0.413958
v 0.233484 0.915804 0.622038
vt 0.273438 0.898438
v 0.335802 0.652534 0.375371
vt 0.367188 0.898438
v 0.218353 0.385798 0.611342
vt 0.367188 0.804688
v 0.116035 0.649069 0.85801
vt 0.273438 0.804688
vn -0.909649 0.034323 -0.413958
v 0.227254 0.895306 0.594773
vt 0.101562 0.4375
v 0.256818 0.894191 0.608227
vt 0.09375 0.4375
v 0.35095 0.651982 0.381293
vt 0.09375 0.351562
v 0.321387 0.653097 0.367839
vt 0.101562 0.351562
vn 0.313198 0.711296 -0.629258
v 0.311208 0.62998 0.38829
vt 0.109375 0.351562
v 0.340771 0.628865 0.401744
vt 0.101562 0.351562
v 0.246639 0.871074 0.628678
vt 0.101562 0.4375
v 0.217075 0.872189 0.615224
vt 0.109375 0.4375
vn -0.313198 -0.711296 0.629258
v 0.35095 0.651982 0.381293
vt 0.09375 0.351562
v 0.256818 0.894191 0.608227
vt 0.0078125 0.351562
v 0.246639 0.871074 0.628678
vt 0.0078125 0.34375
v 0.340771 0.628865 0.401744
vt 0.09375 0.34375
vn 0.909649 -0.034323 0.413958
v 0.321387 0.653097 0.367839
vt 0.101562 0.351562
v 0.35095 0.651982 0.381293
vt 0.09375 0.351562
v 0.340771 0.628865 0.401744
vt 0.09375 0.34375
v 0.311208 0.62998 0.38829
vt 0.101562 0.34375
vn 0.272848 -0.702055 -0.657779
v 0.227254 0.895306 0.594773
vt 0.1875 0.351562
v 0.321387 0.653097 0.367839
vt 0.101562 0.351562
v 0.311208 0.62998 0.38829
vt 0.101562 0.34375
v 0.217075 0.872189 0.615224
vt 0.1875 0.34375
vn -0.909649 0.034323 -0.413958
v 0.256818 0.894191 0.608227
vt 0.195312 0.351562
v 0.227254 0.895306 0.594773
vt 0.1875 0.351562
v 0.217075 0.872189 0.615224
vt 0.1875 0.34375
v 0.246639 0.871074 0.628678
vt 0.195312 0.34375
vn -0.272848 0.702055 0.657779
v 0.228205 0.694917 0.444415
vt 0.421875 0.726562
v 0.321153 0.687052 0.435041
vt 0.398438 0.726562
v 0.3125 0.695591 0.342082
vt 0.398438 0.703125
v 0.219552 0.703456 0.351457
vt 0.421875 0.703125
vn 0.092296 0.992303 0.082555
v 0.199362 0.48639 0.333398
vt 0.445312 0.703125
v 0.29231 0.478524 0.324024
vt 0.421875 0.703125
v 0.300963 0.469986 0.416982
vt 0.421875 0.726562
v 0.208015 0.477851 0.426356
vt 0.445312 0.726562
vn -0.092296 -0.992303 -0.082555
v 0.3125 0.695591 0.342082
vt 0.398438 0.703125
v 0.321153 0.687052 0.435041
vt 0.375 0.703125
v 0.300963 0.469986 0.416982
vt 0.375 0.648438
v 0.29231 0.478524 0.324024
vt 0.398438 0.648438
vn 0.991445 -0.083898 -0.099992
v 0.219552 0.703456 0.351457
vt 0.421875 0.703125
v 0.3125 0.695591 0.342082
vt 0.398438 0.703125
v 0.29231 0.478524 0.324024
vt 0.398438 0.648438
v 0.199362 0.48639 0.333398
vt 0.421875 0.648438
vn -0.092296 0.091077 -0.991558
v 0.228205 0.694917 0.444415
vt 0.445312 0.703125
v 0.219552 0.703456 0.351457
vt 0.421875 0.703125
v 0.199362 0.48639 0.333398
vt 0.421875 0.648438
v 0.208015 0.477851 0.426356
vt 0.445312 0.648438
vn -0.991445 0.083898 0.099992
v 0.321153 0.687052 0.435041
vt 0.46875 0.703125
v 0.228205 0.694917 0.444415
vt 0.445312 0.703125
v 0.208015 0.477851 0.426356
vt 0.445312 0.648438
v 0.300963 0.469986 0.416982
vt 0.46875 0.648438
vn 0.092296 -0.091077 0.991558
v 0.204751 0.451942 0.41573
vt 0.046875 0.617188
v 0.297699 0.444077 0.406356
vt 0.0234375 0.617188
v 0.295574 0.504433 0.33465
vt 0.0234375 0.59375
v 0.202626 0.512298 0.344024
vt 0.046875 0.59375
vn 0.128544 0.760585 0.636386
v 0.174507 0.34592 0.204815
vt 0.0703125 0.59375
v 0.267455 0.338055 0.195441
vt 0.046875 0.59375
v 0.26958 0.277699 0.267146
vt 0.046875 0.617188
v 0.176632 0.285564 0.276521
vt 0.0703125 0.617188
vn -0.128544 -0.760585 -0.636386
v 0.295574 0.504433 0.33465
vt 0.0234375 0.59375
v 0.297699 0.444077 0.406356
vt 0 0.59375
v 0.26958 0.277699 0.267146
vt 0 0.539062
v 0.267455 0.338055 0.195441
vt 0.0234375 0.539062
vn 0.991445 -0.083898 -0.099992
v 0.202626 0.512298 0.344024
vt 0.046875 0.59375
v 0.295574 0.504433 0.33465
vt 0.0234375 0.59375
v 0.267455 0.338055 0.195441
vt 0.0234375 0.539062
v 0.174507 0.34592 0.204815
vt 0.046875 0.539062
vn -0.022661 0.643795 -0.764863
v 0.204751 0.451942 0.41573
vt 0.0703125 0.59375
v 0.202626 0.512298 0.344024
vt 0.046875 0.59375
v 0.174507 0.34592 0.204815
vt 0.046875 0.539062
v 0.176632 0.285564 0.276521
vt 0.0703125 0.539062
vn -0.991445 0.083898 0.099992
v 0.297699 0.444077 0.406356
vt 0.09375 0.59375
v 0.204751 0.451942 0.41573
vt 0.0703125 0.59375
v 0.176632 0.285564 0.276521
vt 0.0703125 0.539062
v 0.26958 0.277699 0.267146
vt 0.09375 0.539062
vn 0.022661 -0.643795 0.764863
v 0.240844 0.354386 0.230403
vt 0.21875 0.539062
v 0.333744 0.365243 0.23679
vt 0.195312 0.539062
v 0.34616 0.294332 0.176735
vt 0.195312 0.515625
v 0.25326 0.283475 0.170349
vt 0.21875 0.515625
vn -0.022661 0.643795 -0.764863
v 0.333744 0.365243 0.23679
vt 0.195312 0.539062
v 0.240844 0.354386 0.230403
vt 0.21875 0.539062
v 0.25326 0.283475 0.170349
vt 0.21875 0.515625
v 0.34616 0.294332 0.176735
vt 0.195312 0.515625
vn 0.022661 -0.643795 0.764863
v 0.130856 0.280475 0.284533
vt 0.164062 0.539062
v 0.210923 0.32683 0.269381
vt 0.140625 0.539062
v 0.23928 0.258881 0.211347
vt 0.140625 0.515625
v 0.159213 0.212526 0.226499
vt 0.164062 0.515625
vn -0.423219 0.479791 -0.768561
v 0.210923 0.32683 0.269381
vt 0.140625 0.539062
v 0.130856 0.280475 0.284533
vt 0.164062 0.539062
v 0.159213 0.212526 0.226499
vt 0.164062 0.515625
v 0.23928 0.258881 0.211347
vt 0.140625 0.515625
vn 0.423219 -0.479791 0.768561
v 0.135836 0.338768 0.189
vt 0.164062 0.539062
v 0.210215 0.346948 0.245479
vt 0.140625 0.539062
v 0.257238 0.28559 0.19244
vt 0.140625 0.515625
v 0.182858 0.27741 0.135961
vt 0.164062 0.515625
vn 0.344924 0.751023 -0.563021
v 0.210215 0.346948 0.245479
vt 0.140625 0.539062
v 0.135836 0.338768 0.189
vt 0.164062 0.539062
v 0.182858 0.27741 0.135961
vt 0.164062 0.515625
v 0.257238 0.28559 0.19244
vt 0.140625 0.515625
vn -0.344924 -0.751023 0.563021
v 0.780448 0.703456 0.351457
vt 0.421875 0.703125
v 0.6875 0.695591 0.342082
vt 0.398438 0.703125
v 0.678847 0.687052 0.435041
vt 0.398438 0.726562
v 0.771795 0.694917 0.444415
vt 0.421875 0.726562
vn -0.092296 0.992303 0.082555
v 0.791985 0.477851 0.426356
vt 0.445312 0.726562
v 0.699037 0.469986 0.416982
vt 0.421875 0.726562
v 0.70769 0.478524 0.324024
vt 0.421875 0.703125
v 0.800638 0.48639 0.333398
vt 0.445312 0.703125
vn 0.092296 -0.992303 -0.082555
v 0.70769 0.478524 0.324024
vt 0.398438 0.648438
v 0.699037 0.469986 0.416982
vt 0.375 0.648438
v 0.678847 0.687052 0.435041
vt 0.375 0.703125
v 0.6875 0.695591 0.342082
vt 0.398438 0.703125
vn -0.991445 -0.083898 -0.099992
v 0.800638 0.48639 0.333398
vt 0.421875 0.648438
v 0.70769 0.478524 0.324024
vt 0.398438 0.648438
v 0.6875 0.695591 0.342082
vt 0.398438 0.703125
v 0.780448 0.703456 0.351457
vt 0.421875 0.703125
vn 0.092296 0.091077 -0.991558
v 0.791985 0.477851 0.426356
vt 0.445312 0.648438
v 0.800638 0.48639 0.333398
vt 0.421875 0.648438
v 0.780448 0.703456 0.351457
vt 0.421875 0.703125
v 0.771795 0.694917 0.444415
vt 0.445312 0.703125
vn 0.991445 0.083898 0.099992
v 0.699037 0.469986 0.416982
vt 0.46875 0.648438
v 0.791985 0.477851 0.426356
vt 0.445312 0.648438
v 0.771795 0.694917 0.444415
vt 0.445312 0.703125
v 0.678847 0.687052 0.435041
vt 0.46875 0.703125
vn -0.092296 -0.091077 0.991558
v 0.797374 0.512298 0.344024
vt 0.046875 0.59375
v 0.704426 0.504433 0.33465
vt 0.0234375 0.59375
v 0.702301 0.444077 0.406356
vt 0.0234375 0.617188
v 0.795249 0.451942 0.41573
vt 0.046875 0.617188
vn -0.128544 0.760585 0.636386
v 0.823368 0.285564 0.276521
vt 0.0703125 0.617188
v 0.73042 0.277699 0.267146
vt 0.046875 0.617188
v 0.732545 0.338055 0.195441
vt 0.046875 0.59375
v 0.825493 0.34592 0.204815
vt 0.0703125 0.59375
vn 0.128544 -0.760585 -0.636386
v 0.732545 0.338055 0.195441
vt 0.0234375 0.539062
v 0.73042 0.277699 0.267146
vt 0 0.539062
v 0.702301 0.444077 0.406356
vt 0 0.59375
v 0.704426 0.504433 0.33465
vt 0.0234375 0.59375
vn -0.991445 -0.083898 -0.099992
v 0.825493 0.34592 0.204815
vt 0.046875 0.539062
v 0.732545 0.338055 0.195441
vt 0.0234375 0.539062
v 0.704426 0.504433 0.33465
vt 0.0234375 0.59375
v 0.797374 0.512298 0.344024
vt 0.046875 0.59375
vn 0.022661 0.643795 -0.764863
v 0.823368 0.285564 0.276521
vt 0.0703125 0.539062
v 0.825493 0.34592 0.204815
vt 0.046875 0.539062
v 0.797374 0.512298 0.344024
vt 0.046875 0.59375
v 0.795249 0.451942 0.41573
vt 0.0703125 0.59375
vn 0.991445 0.083898 0.099992
v 0.73042 0.277699 0.267146
vt 0.09375 0.539062
v 0.823368 0.285564 0.276521
vt 0.0703125 0.539062
v 0.795249 0.451942 0.41573
vt 0.0703125 0.59375
v 0.702301 0.444077 0.406356
vt 0.09375 0.59375
vn -0.022661 -0.643795 0.764863
v 0.794853 0.287546 0.175201
vt 0.21875 0.515625
v 0.708192 0.261494 0.150705
vt 0.195312 0.515625
v 0.672495 0.328333 0.205907
vt 0.195312 0.539062
v 0.759156 0.354386 0.230403
vt 0.21875 0.539062
vn 0.022661 0.643795 -0.764863
v 0.708192 0.261494 0.150705
vt 0.195312 0.515625
v 0.794853 0.287546 0.175201
vt 0.21875 0.515625
v 0.759156 0.354386 0.230403
vt 0.21875 0.539062
v 0.672495 0.328333 0.205907
vt 0.195312 0.539062
vn -0.022661 -0.643795 0.764863
v 0.85996 0.220572 0.23384
vt 0.164062 0.515625
v 0.77666 0.255919 0.209327
vt 0.140625 0.515625
v 0.789077 0.32683 0.269381
vt 0.140625 0.539062
v 0.872376 0.291483 0.293895
vt 0.164062 0.539062
vn 0.439295 0.534543 -0.722
v 0.77666 0.255919 0.209327
vt 0.140625 0.515625
v 0.85996 0.220572 0.23384
vt 0.164062 0.515625
v 0.872376 0.291483 0.293895
vt 0.164062 0.539062
v 0.789077 0.32683 0.269381
vt 0.140625 0.539062
vn -0.439295 -0.534543 0.722
v 0.80077 0.275816 0.134134
vt 0.164062 0.515625
v 0.732582 0.290966 0.196664
vt 0.140625 0.515625
v 0.789785 0.346948 0.245479
vt 0.140625 0.539062
v 0.857973 0.331797 0.18295
vt 0.164062 0.539062
vn -0.314132 0.78569 -0.532928
v 0.732582 0.290966 0.196664
vt 0.140625 0.515625
v 0.80077 0.275816 0.134134
vt 0.164062 0.515625
v 0.857973 0.331797 0.18295
vt 0.164062 0.539062
v 0.789785 0.346948 0.245479
vt 0.140625 0.539062
vn 0.314132 -0.78569 0.532928
v 0.453125 0.403971 0.588213
vt 0.195312 0.632812
v 0.546875 0.403971 0.588213
vt 0.171875 0.632812
v 0.546875 0.33768 0.521922
vt 0.171875 0.609375
v 0.453125 0.33768 0.521922
vt 0.195312 0.609375
vn 0 0.707105 -0.707108
v 0.453125 0.160903 0.698699
vt 0.21875 0.609375
v 0.546875 0.160903 0.698699
vt 0.195312 0.609375
v 0.546875 0.227195 0.76499
vt 0.195312 0.632812
v 0.453125 0.227195 0.76499
vt 0.21875 0.632812
vn 0 -0.707105 0.707108
v 0.546875 0.33768 0.521922
vt 0.171875 0.609375
v 0.546875 0.403971 0.588213
vt 0.148438 0.609375
v 0.546875 0.227195 0.76499
vt 0.148438 0.546875
v 0.546875 0.160903 0.698699
vt 0.171875 0.546875
vn 1 0 -0
v 0.453125 0.33768 0.521922
vt 0.195312 0.609375
v 0.546875 0.33768 0.521922
vt 0.171875 0.609375
v 0.546875 0.160903 0.698699
vt 0.171875 0.546875
v 0.453125 0.160903 0.698699
vt 0.195312 0.546875
vn 0 -0.707108 -0.707105
v 0.453125 0.403971 0.588213
vt 0.21875 0.609375
v 0.453125 0.33768 0.521922
vt 0.195312 0.609375
v 0.453125 0.160903 0.698699
vt 0.195312 0.546875
v 0.453125 0.227195 0.76499
vt 0.21875 0.546875
vn -1 -0 0
v 0.546875 0.403971 0.588213
vt 0.242188 0.609375
v 0.453125 0.403971 0.588213
vt 0.21875 0.609375
v 0.453125 0.227195 0.76499
vt 0.21875 0.546875
v 0.546875 0.227195 0.76499
vt 0.242188 0.546875
vn 0 0.707108 0.707105
v 0.46875 0.231864 0.732463
vt 0.398438 0.570312
v 0.53125 0.231864 0.732463
vt 0.382812 0.570312
v 0.53125 0.179151 0.698883
vt 0.382812 0.554688
v 0.46875 0.179151 0.698883
vt 0.398438 0.554688
vn 0 0.53727 -0.843411
v 0.46875 0.0616234 0.88338
vt 0.414062 0.554688
v 0.53125 0.0616234 0.88338
vt 0.398438 0.554688
v 0.53125 0.114337 0.916959
vt 0.398438 0.570312
v 0.46875 0.114337 0.916959
vt 0.414062 0.570312
vn 0 -0.53727 0.843411
v 0.53125 0.179151 0.698883
vt 0.382812 0.554688
v 0.53125 0.231864 0.732463
vt 0.367188 0.554688
v 0.53125 0.114337 0.916959
vt 0.367188 0.5
v 0.53125 0.0616234 0.88338
vt 0.382812 0.5
vn 1 0 -0
v 0.46875 0.179151 0.698883
vt 0.398438 0.554688
v 0.53125 0.179151 0.698883
vt 0.382812 0.554688
v 0.53125 0.0616234 0.88338
vt 0.382812 0.5
v 0.46875 0.0616234 0.88338
vt 0.398438 0.5
vn 0 -0.843411 -0.53727
v 0.46875 0.231864 0.732463
vt 0.414062 0.554688
v 0.46875 0.179151 0.698883
vt 0.398438 0.554688
v 0.46875 0.0616234 0.88338
vt 0.398438 0.5
v 0.46875 0.114337 0.916959
vt 0.414062 0.5
vn -1 -0 0
v 0.53125 0.231864 0.732463
vt 0.429688 0.554688
v 0.46875 0.231864 0.732463
vt 0.414062 0.554688
v 0.46875 0.114337 0.916959
vt 0.414062 0.5
v 0.53125 0.114337 0.916959
vt 0.429688 0.5
vn 0 0.843411 0.53727
v 0.723928 0.30868 0.311128
vt 0.28125 0.664062
v 0.632401 0.303427 0.291525
vt 0.257812 0.664062
v 0.578489 0.387412 0.520741
vt 0.257812 0.726562
v 0.670016 0.392664 0.540344
vt 0.28125 0.726562
vn 0.018874 0.940216 -0.340055
v 0.668247 0.304519 0.572224
vt 0.304688 0.726562
v 0.57672 0.299266 0.552622
vt 0.28125 0.726562
v 0.630632 0.215282 0.323405
vt 0.28125 0.664062
v 0.722159 0.220534 0.343008
vt 0.304688 0.664062
vn -0.018874 -0.940216 0.340055
v 0.630632 0.215282 0.323405
vt 0.257812 0.640625
v 0.57672 0.299266 0.552622
vt 0.195312 0.640625
v 0.578489 0.387412 0.520741
vt 0.195312 0.664062
v 0.632401 0.303427 0.291525
vt 0.257812 0.664062
vn -0.976289 -0.056027 -0.209096
v 0.722159 0.220534 0.343008
vt 0.28125 0.640625
v 0.630632 0.215282 0.323405
vt 0.257812 0.640625
v 0.632401 0.303427 0.291525
vt 0.257812 0.664062
v 0.723928 0.30868 0.311128
vt 0.28125 0.664062
vn 0.215648 -0.335939 -0.916865
v 0.668247 0.304519 0.572224
vt 0.34375 0.640625
v 0.722159 0.220534 0.343008
vt 0.28125 0.640625
v 0.723928 0.30868 0.311128
vt 0.28125 0.664062
v 0.670016 0.392664 0.540344
vt 0.34375 0.664062
vn 0.976289 0.056027 0.209096
v 0.57672 0.299266 0.552622
vt 0.367188 0.640625
v 0.668247 0.304519 0.572224
vt 0.34375 0.640625
v 0.670016 0.392664 0.540344
vt 0.34375 0.664062
v 0.578489 0.387412 0.520741
vt 0.367188 0.664062
vn -0.215648 0.335939 0.916865
v 0.717587 0.226911 0.347702
vt 0.445312 0.617188
v 0.632162 0.222009 0.329406
vt 0.421875 0.617188
v 0.613669 0.26189 0.405062
vt 0.421875 0.640625
v 0.699095 0.266792 0.423358
vt 0.445312 0.640625
vn 0.04686 0.888323 -0.456821
v 0.692066 0.133544 0.491881
vt 0.46875 0.640625
v 0.60664 0.128642 0.473585
vt 0.445312 0.640625
v 0.625133 0.0887602 0.397929
vt 0.445312 0.617188
v 0.710558 0.0936625 0.416225
vt 0.46875 0.617188
vn -0.04686 -0.888323 0.456821
v 0.625133 0.0887602 0.397929
vt 0.421875 0.578125
v 0.60664 0.128642 0.473585
vt 0.398438 0.578125
v 0.613669 0.26189 0.405062
vt 0.398438 0.617188
v 0.632162 0.222009 0.329406
vt 0.421875 0.617188
vn -0.976289 -0.056027 -0.209096
v 0.710558 0.0936625 0.416225
vt 0.445312 0.578125
v 0.625133 0.0887602 0.397929
vt 0.421875 0.578125
v 0.632162 0.222009 0.329406
vt 0.421875 0.617188
v 0.717587 0.226911 0.347702
vt 0.445312 0.617188
vn 0.21134 -0.455788 -0.864635
v 0.692066 0.133544 0.491881
vt 0.46875 0.578125
v 0.710558 0.0936625 0.416225
vt 0.445312 0.578125
v 0.717587 0.226911 0.347702
vt 0.445312 0.617188
v 0.699095 0.266792 0.423358
vt 0.46875 0.617188
vn 0.976289 0.056027 0.209096
v 0.60664 0.128642 0.473585
vt 0.492188 0.578125
v 0.692066 0.133544 0.491881
vt 0.46875 0.578125
v 0.699095 0.266792 0.423358
vt 0.46875 0.617188
v 0.613669 0.26189 0.405062
vt 0.492188 0.617188
vn -0.21134 0.455788 0.864635
v 0.666696 0.03306 0.353299
vt 0.484375 0.9375
v 0.697205 0.0348108 0.359833
vt 0.476562 0.9375
v 0.71656 0.0394457 0.26822
vt 0.476562 0.914062
v 0.686051 0.0376949 0.261686
vt 0.484375 0.914062
vn -0.065088 0.997204 0.0367
v 0.688085 0.00653224 0.260539
vt 0.492188 0.914062
v 0.718594 0.0082831 0.267073
vt 0.484375 0.914062
v 0.699239 0.00364818 0.358686
vt 0.484375 0.9375
v 0.66873 0.00189732 0.352152
vt 0.492188 0.9375
vn 0.065088 -0.997204 -0.0367
v 0.71656 0.0394457 0.26822
vt 0.476562 0.914062
v 0.697205 0.0348108 0.359833
vt 0.453125 0.914062
v 0.699239 0.00364818 0.358686
vt 0.453125 0.90625
v 0.718594 0.0082831 0.267073
vt 0.476562 0.90625
vn 0.976289 0.056027 0.209096
v 0.686051 0.0376949 0.261686
vt 0.484375 0.914062
v 0.71656 0.0394457 0.26822
vt 0.476562 0.914062
v 0.718594 0.0082831 0.267073
vt 0.476562 0.90625
v 0.688085 0.00653224 0.260539
vt 0.484375 0.90625
vn 0.206456 0.049439 -0.977206
v 0.666696 0.03306 0.353299
vt 0.507812 0.914062
v 0.686051 0.0376949 0.261686
vt 0.484375 0.914062
v 0.688085 0.00653224 0.260539
vt 0.484375 0.90625
v 0.66873 0.00189732 0.352152
vt 0.507812 0.90625
vn -0.976289 -0.056027 -0.209096
v 0.697205 0.0348108 0.359833
vt 0.515625 0.914062
v 0.666696 0.03306 0.353299
vt 0.507812 0.914062
v 0.66873 0.00189732 0.352152
vt 0.507812 0.90625
v 0.699239 0.00364818 0.358686
vt 0.515625 0.90625
vn -0.206456 -0.049439 0.977206
v 0.63585 0.0311626 0.350147
vt 0.484375 0.9375
v 0.667032 0.0332064 0.349916
vt 0.476562 0.9375
v 0.666116 0.0365944 0.256232
vt 0.476562 0.914062
v 0.634933 0.0345506 0.256463
vt 0.484375 0.914062
vn -0.065088 0.997204 0.0367
v 0.636967 0.00338798 0.255316
vt 0.492188 0.914062
v 0.66815 0.00543177 0.255085
vt 0.484375 0.914062
v 0.669066 0.00204378 0.348769
vt 0.484375 0.9375
v 0.637884 0 0.349001
vt 0.492188 0.9375
vn 0.065088 -0.997204 -0.0367
v 0.666116 0.0365944 0.256232
vt 0.476562 0.914062
v 0.667032 0.0332064 0.349916
vt 0.453125 0.914062
v 0.669066 0.00204378 0.348769
vt 0.453125 0.90625
v 0.66815 0.00543177 0.255085
vt 0.476562 0.90625
vn 0.997832 0.065401 -0.0074
v 0.634933 0.0345506 0.256463
vt 0.484375 0.914062
v 0.666116 0.0365944 0.256232
vt 0.476562 0.914062
v 0.66815 0.00543177 0.255085
vt 0.476562 0.90625
v 0.636967 0.00338798 0.255316
vt 0.484375 0.90625
vn -0.009779 0.036139 -0.999299
v 0.63585 0.0311626 0.350147
vt 0.507812 0.914062
v 0.634933 0.0345506 0.256463
vt 0.484375 0.914062
v 0.636967 0.00338798 0.255316
vt 0.484375 0.90625
v 0.637884 0 0.349001
vt 0.507812 0.90625
vn -0.997832 -0.065401 0.0074
v 0.667032 0.0332064 0.349916
vt 0.515625 0.914062
v 0.63585 0.0311626 0.350147
vt 0.507812 0.914062
v 0.637884 0 0.349001
vt 0.507812 0.90625
v 0.669066 0.00204378 0.348769
vt 0.515625 0.90625
vn 0.009779 -0.036139 0.999299
v 0.698265 0.0349988 0.356605
vt 0.484375 0.9375
v 0.726654 0.0363737 0.369595
vt 0.476562 0.9375
v 0.765363 0.0420357 0.284398
vt 0.476562 0.914062
v 0.736974 0.0406609 0.271408
vt 0.484375 0.914062
vn -0.065088 0.997204 0.0367
v 0.739008 0.00949821 0.270261
vt 0.492188 0.914062
v 0.767397 0.0108731 0.283251
vt 0.484375 0.914062
v 0.728688 0.00521105 0.368448
vt 0.484375 0.9375
v 0.700299 0.00383616 0.355459
vt 0.492188 0.9375
vn 0.065088 -0.997204 -0.0367
v 0.765363 0.0420357 0.284398
vt 0.476562 0.914062
v 0.726654 0.0363737 0.369595
vt 0.453125 0.914062
v 0.728688 0.00521105 0.368448
vt 0.453125 0.90625
v 0.767397 0.0108731 0.283251
vt 0.476562 0.90625
vn 0.908448 0.043997 0.415677
v 0.736974 0.0406609 0.271408
vt 0.484375 0.914062
v 0.765363 0.0420357 0.284398
vt 0.476562 0.914062
v 0.767397 0.0108731 0.283251
vt 0.476562 0.90625
v 0.739008 0.00949821 0.270261
vt 0.484375 0.90625
vn 0.4129 0.060395 -0.908772
v 0.698265 0.0349988 0.356605
vt 0.507812 0.914062
v 0.736974 0.0406609 0.271408
vt 0.484375 0.914062
v 0.739008 0.00949821 0.270261
vt 0.484375 0.90625
v 0.700299 0.00383616 0.355459
vt 0.507812 0.90625
vn -0.908448 -0.043997 -0.415677
v 0.726654 0.0363737 0.369595
vt 0.515625 0.914062
v 0.698265 0.0349988 0.356605
vt 0.507812 0.914062
v 0.700299 0.00383616 0.355459
vt 0.507812 0.90625
v 0.728688 0.00521105 0.368448
vt 0.515625 0.90625
vn -0.4129 -0.060395 0.908772
v 0.726018 0.0559133 0.339209
vt 0.0703125 0.640625
v 0.646695 0.0513611 0.32222
vt 0.046875 0.640625
v 0.610566 0.144374 0.465985
vt 0.046875 0.6875
v 0.689889 0.148927 0.482974
vt 0.0703125 0.6875
vn 0.065108 0.845201 -0.530468
v 0.686634 0.106666 0.509497
vt 0.09375 0.6875
v 0.607311 0.102114 0.492508
vt 0.0703125 0.6875
v 0.643439 0.00910104 0.348744
vt 0.0703125 0.640625
v 0.722763 0.0136533 0.365733
vt 0.09375 0.640625
vn -0.065108 -0.845201 0.530468
v 0.643439 0.00910104 0.348744
vt 0.046875 0.625
v 0.607311 0.102114 0.492508
vt 0 0.625
v 0.610566 0.144374 0.465985
vt 0 0.640625
v 0.646695 0.0513611 0.32222
vt 0.046875 0.640625
vn -0.976289 -0.056027 -0.209096
v 0.722763 0.0136533 0.365733
vt 0.0703125 0.625
v 0.643439 0.00910104 0.348744
vt 0.046875 0.625
v 0.646695 0.0513611 0.32222
vt 0.046875 0.640625
v 0.726018 0.0559133 0.339209
vt 0.0703125 0.640625
vn 0.206449 -0.531504 -0.821512
v 0.686634 0.106666 0.509497
vt 0.117188 0.625
v 0.722763 0.0136533 0.365733
vt 0.0703125 0.625
v 0.726018 0.0559133 0.339209
vt 0.0703125 0.640625
v 0.689889 0.148927 0.482974
vt 0.117188 0.640625
vn 0.976289 0.056027 0.209096
v 0.607311 0.102114 0.492508
vt 0.140625 0.625
v 0.686634 0.106666 0.509497
vt 0.117188 0.625
v 0.689889 0.148927 0.482974
vt 0.117188 0.640625
v 0.610566 0.144374 0.465985
vt 0.140625 0.640625
vn -0.206449 0.531504 0.821512
v 0.329984 0.392664 0.540344
vt 0.28125 0.726562
v 0.421511 0.387412 0.520741
vt 0.257812 0.726562
v 0.367599 0.303427 0.291525
vt 0.257812 0.664062
v 0.276072 0.30868 0.311128
vt 0.28125 0.664062
vn -0.018874 0.940216 -0.340055
v 0.277841 0.220534 0.343008
vt 0.304688 0.664062
v 0.369368 0.215282 0.323405
vt 0.28125 0.664062
v 0.42328 0.299266 0.552622
vt 0.28125 0.726562
v 0.331753 0.304519 0.572224
vt 0.304688 0.726562
vn 0.018874 -0.940216 0.340055
v 0.367599 0.303427 0.291525
vt 0.257812 0.664062
v 0.421511 0.387412 0.520741
vt 0.195312 0.664062
v 0.42328 0.299266 0.552622
vt 0.195312 0.640625
v 0.369368 0.215282 0.323405
vt 0.257812 0.640625
vn 0.976289 -0.056027 -0.209096
v 0.276072 0.30868 0.311128
vt 0.28125 0.664062
v 0.367599 0.303427 0.291525
vt 0.257812 0.664062
v 0.369368 0.215282 0.323405
vt 0.257812 0.640625
v 0.277841 0.220534 0.343008
vt 0.28125 0.640625
vn -0.215648 -0.335939 -0.916865
v 0.329984 0.392664 0.540344
vt 0.34375 0.664062
v 0.276072 0.30868 0.311128
vt 0.28125 0.664062
v 0.277841 0.220534 0.343008
vt 0.28125 0.640625
v 0.331753 0.304519 0.572224
vt 0.34375 0.640625
vn -0.976289 0.056027 0.209096
v 0.421511 0.387412 0.520741
vt 0.367188 0.664062
v 0.329984 0.392664 0.540344
vt 0.34375 0.664062
v 0.331753 0.304519 0.572224
vt 0.34375 0.640625
v 0.42328 0.299266 0.552622
vt 0.367188 0.640625
vn 0.215648 0.335939 0.916865
v 0.300905 0.266792 0.423358
vt 0.445312 0.640625
v 0.386331 0.26189 0.405062
vt 0.421875 0.640625
v 0.367838 0.222009 0.329406
vt 0.421875 0.617188
v 0.282413 0.226911 0.347702
vt 0.445312 0.617188
vn -0.04686 0.888323 -0.456821
v 0.289442 0.0936625 0.416225
vt 0.46875 0.617188
v 0.374867 0.0887602 0.397929
vt 0.445312 0.617188
v 0.39336 0.128642 0.473585
vt 0.445312 0.640625
v 0.307934 0.133544 0.491881
vt 0.46875 0.640625
vn 0.04686 -0.888323 0.456821
v 0.367838 0.222009 0.329406
vt 0.421875 0.617188
v 0.386331 0.26189 0.405062
vt 0.398438 0.617188
v 0.39336 0.128642 0.473585
vt 0.398438 0.578125
v 0.374867 0.0887602 0.397929
vt 0.421875 0.578125
vn 0.976289 -0.056027 -0.209096
v 0.282413 0.226911 0.347702
vt 0.445312 0.617188
v 0.367838 0.222009 0.329406
vt 0.421875 0.617188
v 0.374867 0.0887602 0.397929
vt 0.421875 0.578125
v 0.289442 0.0936625 0.416225
vt 0.445312 0.578125
vn -0.21134 -0.455788 -0.864635
v 0.300905 0.266792 0.423358
vt 0.46875 0.617188
v 0.282413 0.226911 0.347702
vt 0.445312 0.617188
v 0.289442 0.0936625 0.416225
vt 0.445312 0.578125
v 0.307934 0.133544 0.491881
vt 0.46875 0.578125
vn -0.976289 0.056027 0.209096
v 0.386331 0.26189 0.405062
vt 0.492188 0.617188
v 0.300905 0.266792 0.423358
vt 0.46875 0.617188
v 0.307934 0.133544 0.491881
vt 0.46875 0.578125
v 0.39336 0.128642 0.473585
vt 0.492188 0.578125
vn 0.21134 0.455788 0.864635
v 0.302795 0.0348108 0.359833
vt 0.484375 0.9375
v 0.333304 0.03306 0.353299
vt 0.476562 0.9375
v 0.313949 0.0376949 0.261686
vt 0.476562 0.914062
v 0.28344 0.0394457 0.26822
vt 0.484375 0.914062
vn 0.065088 0.997204 0.0367
v 0.281406 0.0082831 0.267073
vt 0.492188 0.914062
v 0.311915 0.00653224 0.260539
vt 0.484375 0.914062
v 0.33127 0.00189732 0.352152
vt 0.484375 0.9375
v 0.300761 0.00364818 0.358686
vt 0.492188 0.9375
vn -0.065088 -0.997204 -0.0367
v 0.313949 0.0376949 0.261686
vt 0.476562 0.914062
v 0.333304 0.03306 0.353299
vt 0.453125 0.914062
v 0.33127 0.00189732 0.352152
vt 0.453125 0.90625
v 0.311915 0.00653224 0.260539
vt 0.476562 0.90625
vn 0.976289 -0.056027 -0.209096
v 0.28344 0.0394457 0.26822
vt 0.484375 0.914062
v 0.313949 0.0376949 0.261686
vt 0.476562 0.914062
v 0.311915 0.00653224 0.260539
vt 0.476562 0.90625
v 0.281406 0.0082831 0.267073
vt 0.484375 0.90625
vn -0.206456 0.049439 -0.977206
v 0.302795 0.0348108 0.359833
vt 0.507812 0.914062
v 0.28344 0.0394457 0.26822
vt 0.484375 0.914062
v 0.281406 0.0082831 0.267073
vt 0.484375 0.90625
v 0.300761 0.00364818 0.358686
vt 0.507812 0.90625
vn -0.976289 0.056027 0.209096
v 0.333304 0.03306 0.353299
vt 0.515625 0.914062
v 0.302795 0.0348108 0.359833
vt 0.507812 0.914062
v 0.300761 0.00364818 0.358686
vt 0.507812 0.90625
v 0.33127 0.00189732 0.352152
vt 0.515625 0.90625
vn 0.206456 -0.049439 0.977206
v 0.273346 0.0363737 0.369595
vt 0.484375 0.9375
v 0.301735 0.0349988 0.356605
vt 0.476562 0.9375
v 0.263026 0.0406609 0.271408
vt 0.476562 0.914062
v 0.234637 0.0420357 0.284398
vt 0.484375 0.914062
vn 0.065088 0.997204 0.0367
v 0.232603 0.0108731 0.283251
vt 0.492188 0.914062
v 0.260992 0.00949821 0.270261
vt 0.484375 0.914062
v 0.299701 0.00383616 0.355459
vt 0.484375 0.9375
v 0.271312 0.00521105 0.368448
vt 0.492188 0.9375
vn -0.065088 -0.997204 -0.0367
v 0.263026 0.0406609 0.271408
vt 0.476562 0.914062
v 0.301735 0.0349988 0.356605
vt 0.453125 0.914062
v 0.299701 0.00383616 0.355459
vt 0.453125 0.90625
v 0.260992 0.00949821 0.270261
vt 0.476562 0.90625
vn 0.908448 -0.043997 -0.415677
v 0.234637 0.0420357 0.284398
vt 0.484375 0.914062
v 0.263026 0.0406609 0.271408
vt 0.476562 0.914062
v 0.260992 0.00949821 0.270261
vt 0.476562 0.90625
v 0.232603 0.0108731 0.283251
vt 0.484375 0.90625
vn -0.4129 0.060395 -0.908772
v 0.273346 0.0363737 0.369595
vt 0.507812 0.914062
v 0.234637 0.0420357 0.284398
vt 0.484375 0.914062
v 0.232603 0.0108731 0.283251
vt 0.484375 0.90625
v 0.271312 0.00521105 0.368448
vt 0.507812 0.90625
vn -0.908448 0.043997 0.415677
v 0.301735 0.0349988 0.356605
vt 0.515625 0.914062
v 0.273346 0.0363737 0.369595
vt 0.507812 0.914062
v 0.271312 0.00521105 0.368448
vt 0.507812 0.90625
v 0.299701 0.00383616 0.355459
vt 0.515625 0.90625
vn 0.4129 -0.060395 0.908772
v 0.332968 0.0332064 0.349916
vt 0.484375 0.9375
v 0.36415 0.0311626 0.350147
vt 0.476562 0.9375
v 0.365067 0.0345506 0.256463
vt 0.476562 0.914062
v 0.333884 0.0365944 0.256232
vt 0.484375 0.914062
vn 0.065088 0.997204 0.0367
v 0.33185 0.00543177 0.255085
vt 0.492188 0.914062
v 0.363033 0.00338798 0.255316
vt 0.484375 0.914062
v 0.362116 0 0.349001
vt 0.484375 0.9375
v 0.330934 0.00204378 0.348769
vt 0.492188 0.9375
vn -0.065088 -0.997204 -0.0367
v 0.365067 0.0345506 0.256463
vt 0.476562 0.914062
v 0.36415 0.0311626 0.350147
vt 0.453125 0.914062
v 0.362116 0 0.349001
vt 0.453125 0.90625
v 0.363033 0.00338798 0.255316
vt 0.476562 0.90625
vn 0.997832 -0.065401 0.0074
v 0.333884 0.0365944 0.256232
vt 0.484375 0.914062
v 0.365067 0.0345506 0.256463
vt 0.476562 0.914062
v 0.363033 0.00338798 0.255316
vt 0.476562 0.90625
v 0.33185 0.00543177 0.255085
vt 0.484375 0.90625
vn 0.009779 0.036139 -0.999299
v 0.332968 0.0332064 0.349916
vt 0.507812 0.914062
v 0.333884 0.0365944 0.256232
vt 0.484375 0.914062
v 0.33185 0.00543177 0.255085
vt 0.484375 0.90625
v 0.330934 0.00204378 0.348769
vt 0.507812 0.90625
vn -0.997832 0.065401 -0.0074
v 0.36415 0.0311626 0.350147
vt 0.515625 0.914062
v 0.332968 0.0332064 0.349916
vt 0.507812 0.914062
v 0.330934 0.00204378 0.348769
vt 0.507812 0.90625
v 0.362116 0 0.349001
vt 0.515625 0.90625
vn -0.009779 -0.036139 0.999299
v 0.310111 0.148927 0.482974
vt 0.0703125 0.6875
v 0.389434 0.144374 0.465985
vt 0.046875 0.6875
v 0.353305 0.0513611 0.32222
vt 0.046875 0.640625
v 0.273982 0.0559133 0.339209
vt 0.0703125 0.640625
vn -0.065108 0.845201 -0.530468
v 0.277237 0.0136533 0.365733
vt 0.09375 0.640625
v 0.356561 0.00910104 0.348744
vt 0.0703125 0.640625
v 0.392689 0.102114 0.492508
vt 0.0703125 0.6875
v 0.313366 0.106666 0.509497
vt 0.09375 0.6875
vn 0.065108 -0.845201 0.530468
v 0.353305 0.0513611 0.32222
vt 0.046875 0.640625
v 0.389434 0.144374 0.465985
vt 0 0.640625
v 0.392689 0.102114 0.492508
vt 0 0.625
v 0.356561 0.00910104 0.348744
vt 0.046875 0.625
vn 0.976289 -0.056027 -0.209096
v 0.273982 0.0559133 0.339209
vt 0.0703125 0.640625
v 0.353305 0.0513611 0.32222
vt 0.046875 0.640625
v 0.356561 0.00910104 0.348744
vt 0.046875 0.625
v 0.277237 0.0136533 0.365733
vt 0.0703125 0.625
vn -0.206449 -0.531504 -0.821512
v 0.310111 0.148927 0.482974
vt 0.117188 0.640625
v 0.273982 0.0559133 0.339209
vt 0.0703125 0.640625
v 0.277237 0.0136533 0.365733
vt 0.0703125 0.625
v 0.313366 0.106666 0.509497
vt 0.117188 0.625
vn -0.976289 0.056027 0.209096
v 0.389434 0.144374 0.465985
vt 0.140625 0.640625
v 0.310111 0.148927 0.482974
vt 0.117188 0.640625
v 0.313366 0.106666 0.509497
vt 0.117188 0.625
v 0.392689 0.102114 0.492508
vt 0.140625 0.625
vn 0.206449 0.531504 0.821512
usemtl stone
f 1/1/1 2/2/1 3/3/1 4/4/1
f 5/5/2 6/6/2 7/7/2 8/8/2
f 9/9/3 10/10/3 11/11/3 12/12/3
f 13/13/4 14/14/4 15/15/4 16/16/4
f 17/17/5 18/18/5 19/19/5 20/20/5
f 21/21/6 22/22/6 23/23/6 24/24/6
f 25/25/7 26/26/7 27/27/7 28/28/7
f 29/29/8 30/30/8 31/31/8 32/32/8
f 33/33/9 34/34/9 35/35/9 36/36/9
f 37/37/10 38/38/10 39/39/10 40/40/10
f 41/41/11 42/42/11 43/43/11 44/44/11
f 45/45/12 46/46/12 47/47/12 48/48/12
f 49/49/13 50/50/13 51/51/13 52/52/13
f 53/53/14 54/54/14 55/55/14 56/56/14
f 57/57/15 58/58/15 59/59/15 60/60/15
f 61/61/16 62/62/16 63/63/16 64/64/16
f 65/65/17 66/66/17 67/67/17 68/68/17
f 69/69/18 70/70/18 71/71/18 72/72/18
f 73/73/19 74/74/19 75/75/19 76/76/19
f 77/77/20 78/78/20 79/79/20 80/80/20
f 81/81/21 82/82/21 83/83/21 84/84/21
f 85/85/22 86/86/22 87/87/22 88/88/22
f 89/89/23 90/90/23 91/91/23 92/92/23
f 93/93/24 94/94/24 95/95/24 96/96/24
f 97/97/25 98/98/25 99/99/25 100/100/25
f 101/101/26 102/102/26 103/103/26 104/104/26
f 105/105/27 106/106/27 107/107/27 108/108/27
f 109/109/28 110/110/28 111/111/28 112/112/28
f 113/113/29 114/114/29 115/115/29 116/116/29
f 117/117/30 118/118/30 119/119/30 120/120/30
f 121/121/31 122/122/31 123/123/31 124/124/31
f 125/125/32 126/126/32 127/127/32 128/128/32
f 129/129/33 130/130/33 131/131/33 132/132/33
f 133/133/34 134/134/34 135/135/34 136/136/34
f 137/137/35 138/138/35 139/139/35 140/140/35
f 141/141/36 142/142/36 143/143/36 144/144/36
f 145/145/37 146/146/37 147/147/37 148/148/37
f 149/149/38 150/150/38 151/151/38 152/152/38
f 153/153/39 154/154/39 155/155/39 156/156/39
f 157/157/40 158/158/40 159/159/40 160/160/40
f 161/161/41 162/162/41 163/163/41 164/164/41
f 165/165/42 166/166/42 167/167/42 168/168/42
f 169/169/43 170/170/43 171/171/43 172/172/43
f 173/173/44 174/174/44 175/175/44 176/176/44
f 177/177/45 178/178/45 179/179/45 180/180/45
f 181/181/46 182/182/46 183/183/46 184/184/46
f 185/185/47 186/186/47 187/187/47 188/188/47
f 189/189/48 190/190/48 191/191/48 192/192/48
f 193/193/49 194/194/49 195/195/49 196/196/49
f 197/197/50 198/198/50 199/199/50 200/200/50
f 201/201/51 202/202/51 203/203/51 204/204/51
f 205/205/52 206/206/52 207/207/52 208/208/52
f 209/209/53 210/210/53 211/211/53 212/212/53
f 213/213/54 214/214/54 215/215/54 216/216/54
f 217/217/55 218/218/55 219/219/55 220/220/55
f 221/221/56 222/222/56 223/223/56 224/224/56
f 225/225/57 226/226/57 227/227/57 228/228/57
f 229/229/58 230/230/58 231/231/58 232/232/58
f 233/233/59 234/234/59 235/235/59 236/236/59
f 237/237/60 238/238/60 239/239/60 240/240/60
f 241/241/61 242/242/61 243/243/61 244/244/61
f 245/245/62 246/246/62 247/247/62 248/248/62
f 249/249/63 250/250/63 251/251/63 252/252/63
f 253/253/64 254/254/64 255/255/64 256/256/64
f 257/257/65 258/258/65 259/259/65 260/260/65
f 261/261/66 262/262/66 263/263/66 264/264/66
f 265/265/67 266/266/67 267/267/67 268/268/67
f 269/269/68 270/270/68 271/271/68 272/272/68
f 273/273/69 274/274/69 275/275/69 276/276/69
f 277/277/70 278/278/70 279/279/70 280/280/70
f 281/281/71 282/282/71 283/283/71 284/284/71
f 285/285/72 286/286/72 287/287/72 288/288/72
f 289/289/73 290/290/73 291/291/73 292/292/73
f 293/293/74 294/294/74 295/295/74 296/296/74
f 297/297/75 298/298/75 299/299/75 300/300/75
f 301/301/76 302/302/76 303/303/76 304/304/76
f 305/305/77 306/306/77 307/307/77 308/308/77
f 309/309/78 310/310/78 311/311/78 312/312/78
f 313/313/79 314/314/79 315/315/79 316/316/79
f 317/317/80 318/318/80 319/319/80 320/320/80
f 321/321/81 322/322/81 323/323/81 324/324/81
f 325/325/82 326/326/82 327/327/82 328/328/82
f 329/329/83 330/330/83 331/331/83 332/332/83
f 333/333/84 334/334/84 335/335/84 336/336/84
f 337/337/85 338/338/85 339/339/85 340/340/85
f 341/341/86 342/342/86 343/343/86 344/344/86
f 345/345/87 346/346/87 347/347/87 348/348/87
f 349/349/88 350/350/88 351/351/88 352/352/88
f 353/353/89 354/354/89 355/355/89 356/356/89
f 357/357/90 358/358/90 359/359/90 360/360/90
f 361/361/91 362/362/91 363/363/91 364/364/91
f 365/365/92 366/366/92 367/367/92 368/368/92
f 369/369/93 370/370/93 371/371/93 372/372/93
f 373/373/94 374/374/94 375/375/94 376/376/94
f 377/377/95 378/378/95 379/379/95 380/380/95
f 381/381/96 382/382/96 383/383/96 384/384/96
f 385/385/97 386/386/97 387/387/97 388/388/97
f 389/389/98 390/390/98 391/391/98 392/392/98
f 393/393/99 394/394/99 395/395/99 396/396/99
f 397/397/100 398/398/100 399/399/100 400/400/100
f 401/401/101 402/402/101 403/403/101 404/404/101
f 405/405/102 406/406/102 407/407/102 408/408/102
f 409/409/103 410/410/103 411/411/103 412/412/103
f 413/413/104 414/414/104 415/415/104 416/416/104
f 417/417/105 418/418/105 419/419/105 420/420/105
f 421/421/106 422/422/106 423/423/106 424/424/106
f 425/425/107 426/426/107 427/427/107 428/428/107
f 429/429/108 430/430/108 431/431/108 432/432/108
f 433/433/109 434/434/109 435/435/109 436/436/109
f 437/437/110 438/438/110 439/439/110 440/440/110
f 441/441/111 442/442/111 443/443/111 444/444/111
f 445/445/112 446/446/112 447/447/112 448/448/112
f 449/449/113 450/450/113 451/451/113 452/452/113
f 453/453/114 454/454/114 455/455/114 456/456/114
f 457/457/115 458/458/115 459/459/115 460/460/115
f 461/461/116 462/462/116 463/463/116 464/464/116
f 465/465/117 466/466/117 467/467/117 468/468/117
f 469/469/118 470/470/118 471/471/118 472/472/118
f 473/473/119 474/474/119 475/475/119 476/476/119
f 477/477/120 478/478/120 479/479/120 480/480/120
f 481/481/121 482/482/121 483/483/121 484/484/121
f 485/485/122 486/486/122 487/487/122 488/488/122
f 489/489/123 490/490/123 491/491/123 492/492/123
f 493/493/124 494/494/124 495/495/124 496/496/124
f 497/497/125 498/498/125 499/499/125 500/500/125
f 501/501/126 502/502/126 503/503/126 504/504/126
f 505/505/127 506/506/127 507/507/127 508/508/127
f 509/509/128 510/510/128 511/511/128 512/512/128
f 513/513/129 514/514/129 515/515/129 516/516/129
f 517/517/130 518/518/130 519/519/130 520/520/130
f 521/521/131 522/522/131 523/523/131 524/524/131
f 525/525/132 526/526/132 527/527/132 528/528/132
f 529/529/133 530/530/133 531/531/133 532/532/133
f 533/533/134 534/534/134 535/535/134 536/536/134
f 537/537/135 538/538/135 539/539/135 540/540/135
f 541/541/136 542/542/136 543/543/136 544/544/136
f 545/545/137 546/546/137 547/547/137 548/548/137
f 549/549/138 550/550/138 551/551/138 552/552/138
f 553/553/139 554/554/139 555/555/139 556/556/139
f 557/557/140 558/558/140 559/559/140 560/560/140
f 561/561/141 562/562/141 563/563/141 564/564/141
f 565/565/142 566/566/142 567/567/142 568/568/142
f 569/569/143 570/570/143 571/571/143 572/572/143
f 573/573/144 574/574/144 575/575/144 576/576/144
f 577/577/145 578/578/145 579/579/145 580/580/145
f 581/581/146 582/582/146 583/583/146 584/584/146
f 585/585/147 586/586/147 587/587/147 588/588/147
f 589/589/148 590/590/148 591/591/148 592/592/148
f 593/593/149 594/594/149 595/595/149 596/596/149
f 597/597/150 598/598/150 599/599/150 600/600/150
f 601/601/151 602/602/151 603/603/151 604/604/151
f 605/605/152 606/606/152 607/607/152 608/608/152
f 609/609/153 610/610/153 611/611/153 612/612/153
f 613/613/154 614/614/154 615/615/154 616/616/154
f 617/617/155 618/618/155 619/619/155 620/620/155
f 621/621/156 622/622/156 623/623/156 624/624/156
f 625/625/157 626/626/157 627/627/157 628/628/157
f 629/629/158 630/630/158 631/631/158 632/632/158
f 633/633/159 634/634/159 635/635/159 636/636/159
f 637/637/160 638/638/160 639/639/160 640/640/160
f 641/641/161 642/642/161 643/643/161 644/644/161
f 645/645/162 646/646/162 647/647/162 648/648/162
f 649/649/163 650/650/163 651/651/163 652/652/163
f 653/653/164 654/654/164 655/655/164 656/656/164
f 657/657/165 658/658/165 659/659/165 660/660/165
f 661/661/166 662/662/166 663/663/166 664/664/166
f 665/665/167 666/666/167 667/667/167 668/668/167
f 669/669/168 670/670/168 671/671/168 672/672/168
f 673/673/169 674/674/169 675/675/169 676/676/169
f 677/677/170 678/678/170 679/679/170 680/680/170
f 681/681/171 682/682/171 683/683/171 684/684/171
f 685/685/172 686/686/172 687/687/172 688/688/172
f 689/689/173 690/690/173 691/691/173 692/692/173
f 693/693/174 694/694/174 695/695/174 696/696/174
f 697/697/175 698/698/175 699/699/175 700/700/175
f 701/701/176 702/702/176 703/703/176 704/704/176
f 705/705/177 706/706/177 707/707/177 708/708/177
f 709/709/178 710/710/178 711/711/178 712/712/178
f 713/713/179 714/714/179 715/715/179 716/716/179
f 717/717/180 718/718/180 719/719/180 720/720/180
f 721/721/181 722/722/181 723/723/181 724/724/181
f 725/725/182 726/726/182 727/727/182 728/728/182
f 729/729/183 730/730/183 731/731/183 732/732/183
f 733/733/184 734/734/184 735/735/184 736/736/184
f 737/737/185 738/738/185 739/739/185 740/740/185
f 741/741/186 742/742/186 743/743/186 744/744/186
f 745/745/187 746/746/187 747/747/187 748/748/187
f 749/749/188 750/750/188 751/751/188 752/752/188
f 753/753/189 754/754/189 755/755/189 756/756/189
f 757/757/190 758/758/190 759/759/190 760/760/190
f 761/761/191 762/762/191 763/763/191 764/764/191
f 765/765/192 766/766/192 767/767/192 768/768/192
f 769/769/193 770/770/193 771/771/193 772/772/193
f 773/773/194 774/774/194 775/775/194 776/776/194
f 777/777/195 778/778/195 779/779/195 780/780/195
f 781/781/196 782/782/196 783/783/196 784/784/196
f 785/785/197 786/786/197 787/787/197 788/788/197
f 789/789/198 790/790/198 791/791/198 792/792/198
f 793/793/199 794/794/199 795/795/199 796/796/199
f 797/797/200 798/798/200 799/799/200 800/800/200
f 801/801/201 802/802/201 803/803/201 804/804/201
f 805/805/202 806/806/202 807/807/202 808/808/202
f 809/809/203 810/810/203 811/811/203 812/812/203
f 813/813/204 814/814/204 815/815/204 816/816/204
f 817/817/205 818/818/205 819/819/205 820/820/205
f 821/821/206 822/822/206 823/823/206 824/824/206
f 825/825/207 826/826/207 827/827/207 828/828/207
f 829/829/208 830/830/208 831/831/208 832/832/208
f 833/833/209 834/834/209 835/835/209 836/836/209
f 837/837/210 838/838/210 839/839/210 840/840/210
f 841/841/211 842/842/211 843/843/211 844/844/211
f 845/845/212 846/846/212 847/847/212 848/848/212
f 849/849/213 850/850/213 851/851/213 852/852/213
f 853/853/214 854/854/214 855/855/214 856/856/214
f 857/857/215 858/858/215 859/859/215 860/860/215
f 861/861/216 862/862/216 863/863/216 864/864/216
f 865/865/217 866/866/217 867/867/217 868/868/217
f 869/869/218 870/870/218 871/871/218 872/872/218
f 873/873/219 874/874/219 875/875/219 876/876/219
f 877/877/220 878/878/220 879/879/220 880/880/220
f 881/881/221 882/882/221 883/883/221 884/884/221
f 885/885/222 886/886/222 887/887/222 888/888/222
f 889/889/223 890/890/223 891/891/223 892/892/223
f 893/893/224 894/894/224 895/895/224 896/896/224
f 897/897/225 898/898/225 899/899/225 900/900/225
f 901/901/226 902/902/226 903/903/226 904/904/226
f 905/905/227 906/906/227 907/907/227 908/908/227
f 909/909/228 910/910/228 911/911/228 912/912/228
f 913/913/229 914/914/229 915/915/229 916/916/229
f 917/917/230 918/918/230 919/919/230 920/920/230
f 921/921/231 922/922/231 923/923/231 924/924/231
f 925/925/232 926/926/232 927/927/232 928/928/232
f 929/929/233 930/930/233 931/931/233 932/932/233
f 933/933/234 934/934/234 935/935/234 936/936/234
f 937/937/235 938/938/235 939/939/235 940/940/235
f 941/941/236 942/942/236 943/943/236 944/944/236
f 945/945/237 946/946/237 947/947/237 948/948/237
f 949/949/238 950/950/238 951/951/238 952/952/238
f 953/953/239 954/954/239 955/955/239 956/956/239
f 957/957/240 958/958/240 959/959/240 960/960/240
f 961/961/241 962/962/241 963/963/241 964/964/241
f 965/965/242 966/966/242 967/967/242 968/968/242
f 969/969/243 970/970/243 971/971/243 972/972/243
f 973/973/244 974/974/244 975/975/244 976/976/244
f 977/977/245 978/978/245 979/979/245 980/980/245
f 981/981/246 982/982/246 983/983/246 984/984/246
f 985/985/247 986/986/247 987/987/247 988/988/247
f 989/989/248 990/990/248 991/991/248 992/992/248
f 993/993/249 994/994/249 995/995/249 996/996/249
f 997/997/250 998/998/250 999/999/250 1000/1000/250
f 1001/1001/251 1002/1002/251 1003/1003/251 1004/1004/251
f 1005/1005/252 1006/1006/252 1007/1007/252 1008/1008/252
