# Generated by tools/gen_obj_models.py - edit that, not this.
mtllib gargoyle_statue_upper.mtl
o gargoyle_statue_upper
v 0.262001 0.689034 0.206267
vt 0.125 1
v 0.716741 0.689034 0.206267
vt 0.0625 1
v 0.716741 0.669214 -0.248041
vt 0.0625 0.9375
v 0.262001 0.669214 -0.248041
vt 0.125 0.9375
vn 0 0.99905 -0.043586
v 0.262001 0.328483 -0.233176
vt 0.1875 0.9375
v 0.716741 0.328483 -0.233176
vt 0.125 0.9375
v 0.716741 0.348303 0.221132
vt 0.125 1
v 0.262001 0.348303 0.221132
vt 0.1875 1
vn 0 -0.99905 0.043586
v 0.716741 0.669214 -0.248041
vt 0.0625 0.9375
v 0.716741 0.689034 0.206267
vt 0 0.9375
v 0.716741 0.348303 0.221132
vt 0 0.890625
v 0.716741 0.328483 -0.233176
vt 0.0625 0.890625
vn 1 0 -0
v 0.262001 0.669214 -0.248041
vt 0.125 0.9375
v 0.716741 0.669214 -0.248041
vt 0.0625 0.9375
v 0.716741 0.328483 -0.233176
vt 0.0625 0.890625
v 0.262001 0.328483 -0.233176
vt 0.125 0.890625
vn 0 -0.043586 -0.99905
v 0.262001 0.689034 0.206267
vt 0.1875 0.9375
v 0.262001 0.669214 -0.248041
vt 0.125 0.9375
v 0.262001 0.328483 -0.233176
vt 0.125 0.890625
v 0.262001 0.348303 0.221132
vt 0.1875 0.890625
vn -1 0 0
v 0.716741 0.689034 0.206267
vt 0.25 0.9375
v 0.262001 0.689034 0.206267
vt 0.1875 0.9375
v 0.262001 0.348303 0.221132
vt 0.1875 0.890625
v 0.716741 0.348303 0.221132
vt 0.25 0.890625
vn 0 0.043586 0.99905
v 0.45994 0.326589 -0.216024
vt 0.265625 0.5
v 0.540327 0.4069 -0.219528
vt 0.25 0.5
v 0.620715 0.326589 -0.216024
vt 0.25 0.484375
v 0.540328 0.246278 -0.21252
vt 0.265625 0.484375
vn -0 -0.043586 -0.99905
v 0.540327 0.4069 -0.219528
vt 0.25 0.5
v 0.45994 0.326589 -0.216024
vt 0.265625 0.5
v 0.540328 0.246278 -0.21252
vt 0.265625 0.484375
v 0.620715 0.326589 -0.216024
vt 0.25 0.484375
vn 0 0.043586 0.99905
v 0.374676 0.326589 -0.216024
vt 0.265625 0.5
v 0.455064 0.4069 -0.219528
vt 0.25 0.5
v 0.535451 0.326589 -0.216024
vt 0.25 0.484375
v 0.455064 0.246278 -0.21252
vt 0.265625 0.484375
vn -0 -0.043586 -0.99905
v 0.455064 0.4069 -0.219528
vt 0.25 0.5
v 0.374676 0.326589 -0.216024
vt 0.265625 0.5
v 0.455064 0.246278 -0.21252
vt 0.265625 0.484375
v 0.535451 0.326589 -0.216024
vt 0.25 0.484375
vn 0 0.043586 0.99905
v 0.710895 0.516245 -0.0892385
vt 0.28125 0.523438
v 0.656683 0.51699 -0.0721637
vt 0.273438 0.523438
v 0.704864 0.581925 0.0779753
vt 0.273438 0.546875
v 0.759076 0.58118 0.0609004
vt 0.28125 0.546875
vn -0.102846 0.924569 -0.366871
v 0.770768 0.47607 0.102608
vt 0.289062 0.546875
v 0.716556 0.476815 0.119683
vt 0.28125 0.546875
v 0.668375 0.41188 -0.0304559
vt 0.28125 0.523438
v 0.722587 0.411135 -0.0475308
vt 0.289062 0.523438
vn 0.102846 -0.924569 0.366871
v 0.668375 0.41188 -0.0304559
vt 0.273438 0.507812
v 0.716556 0.476815 0.119683
vt 0.25 0.507812
v 0.704864 0.581925 0.0779753
vt 0.25 0.523438
v 0.656683 0.51699 -0.0721637
vt 0.273438 0.523438
vn -0.953727 0.013105 0.300389
v 0.722587 0.411135 -0.0475308
vt 0.28125 0.507812
v 0.668375 0.41188 -0.0304559
vt 0.273438 0.507812
v 0.656683 0.51699 -0.0721637
vt 0.273438 0.523438
v 0.710895 0.516245 -0.0892385
vt 0.28125 0.523438
vn -0.282538 -0.380789 -0.880438
v 0.770768 0.47607 0.102608
vt 0.304688 0.507812
v 0.722587 0.411135 -0.0475308
vt 0.28125 0.507812
v 0.710895 0.516245 -0.0892385
vt 0.28125 0.523438
v 0.759076 0.58118 0.0609004
vt 0.304688 0.523438
vn 0.953727 -0.013105 -0.300389
v 0.716556 0.476815 0.119683
vt 0.3125 0.507812
v 0.770768 0.47607 0.102608
vt 0.304688 0.507812
v 0.759076 0.58118 0.0609004
vt 0.304688 0.523438
v 0.704864 0.581925 0.0779753
vt 0.3125 0.523438
vn 0.282538 0.380789 0.880438
v 0.219667 0.58118 0.0609004
vt 0.28125 0.546875
v 0.273879 0.581925 0.0779753
vt 0.273438 0.546875
v 0.32206 0.51699 -0.0721637
vt 0.273438 0.523438
v 0.267847 0.516245 -0.0892385
vt 0.28125 0.523438
vn 0.102846 0.924569 -0.366871
v 0.256155 0.411135 -0.0475308
vt 0.289062 0.523438
v 0.310367 0.41188 -0.0304559
vt 0.28125 0.523438
v 0.262187 0.476815 0.119683
vt 0.28125 0.546875
v 0.207975 0.47607 0.102608
vt 0.289062 0.546875
vn -0.102846 -0.924569 0.366871
v 0.32206 0.51699 -0.0721637
vt 0.273438 0.523438
v 0.273879 0.581925 0.0779753
vt 0.25 0.523438
v 0.262187 0.476815 0.119683
vt 0.25 0.507812
v 0.310367 0.41188 -0.0304559
vt 0.273438 0.507812
vn 0.953727 0.013105 0.300389
v 0.267847 0.516245 -0.0892385
vt 0.28125 0.523438
v 0.32206 0.51699 -0.0721637
vt 0.273438 0.523438
v 0.310367 0.41188 -0.0304559
vt 0.273438 0.507812
v 0.256155 0.411135 -0.0475308
vt 0.28125 0.507812
vn 0.282538 -0.380789 -0.880438
v 0.219667 0.58118 0.0609004
vt 0.304688 0.523438
v 0.267847 0.516245 -0.0892385
vt 0.28125 0.523438
v 0.256155 0.411135 -0.0475308
vt 0.28125 0.507812
v 0.207975 0.47607 0.102608
vt 0.304688 0.507812
vn -0.953727 -0.013105 -0.300389
v 0.273879 0.581925 0.0779753
vt 0.3125 0.523438
v 0.219667 0.58118 0.0609004
vt 0.304688 0.523438
v 0.207975 0.47607 0.102608
vt 0.304688 0.507812
v 0.262187 0.476815 0.119683
vt 0.3125 0.507812
vn -0.282538 0.380789 0.880438
v 0.912832 0.76428 -0.044718
vt 0.304688 0.570312
v 0.641771 0.678906 -0.0409933
vt 0.265625 0.570312
v 0.665941 0.605815 0.0426592
vt 0.265625 0.585938
v 0.937002 0.691189 0.0389345
vt 0.304688 0.585938
vn -0.212609 0.704565 0.677042
v 0.961173 0.611091 -0.038035
vt 0.34375 0.585938
v 0.690112 0.525716 -0.0343103
vt 0.304688 0.585938
v 0.665941 0.598807 -0.117963
vt 0.304688 0.570312
v 0.937002 0.684182 -0.121688
vt 0.34375 0.570312
vn 0.212609 -0.704565 -0.677042
v 0.665941 0.598807 -0.117963
vt 0.265625 0.554688
v 0.690112 0.525716 -0.0343103
vt 0.25 0.554688
v 0.665941 0.605815 0.0426592
vt 0.25 0.570312
v 0.641771 0.678906 -0.0409933
vt 0.265625 0.570312
vn -0.953727 -0.300389 0.013105
v 0.937002 0.684182 -0.121688
vt 0.304688 0.554688
v 0.665941 0.598807 -0.117963
vt 0.265625 0.554688
v 0.641771 0.678906 -0.0409933
vt 0.265625 0.570312
v 0.912832 0.76428 -0.044718
vt 0.304688 0.570312
vn -0.21261 0.642927 -0.735827
v 0.961173 0.611091 -0.038035
vt 0.320312 0.554688
v 0.937002 0.684182 -0.121688
vt 0.304688 0.554688
v 0.912832 0.76428 -0.044718
vt 0.304688 0.570312
v 0.937002 0.691189 0.0389345
vt 0.320312 0.570312
vn 0.953727 0.300389 -0.013105
v 0.690112 0.525716 -0.0343103
vt 0.359375 0.554688
v 0.961173 0.611091 -0.038035
vt 0.320312 0.554688
v 0.937002 0.691189 0.0389345
vt 0.320312 0.570312
v 0.665941 0.605815 0.0426592
vt 0.359375 0.570312
vn 0.21261 -0.642927 0.735827
v 0.0417401 0.691189 0.0389345
vt 0.304688 0.585938
v 0.312801 0.605815 0.0426592
vt 0.265625 0.585938
v 0.336972 0.678906 -0.0409933
vt 0.265625 0.570312
v 0.0659106 0.76428 -0.044718
vt 0.304688 0.570312
vn 0.212609 0.704565 0.677042
v 0.0417402 0.684182 -0.121688
vt 0.34375 0.570312
v 0.312801 0.598807 -0.117963
vt 0.304688 0.570312
v 0.288631 0.525716 -0.0343103
vt 0.304688 0.585938
v 0.0175697 0.611091 -0.038035
vt 0.34375 0.585938
vn -0.212609 -0.704565 -0.677042
v 0.336972 0.678906 -0.0409933
vt 0.265625 0.570312
v 0.312801 0.605815 0.0426592
vt 0.25 0.570312
v 0.288631 0.525716 -0.0343103
vt 0.25 0.554688
v 0.312801 0.598807 -0.117963
vt 0.265625 0.554688
vn 0.953727 -0.300389 0.013105
v 0.0659106 0.76428 -0.044718
vt 0.304688 0.570312
v 0.336972 0.678906 -0.0409933
vt 0.265625 0.570312
v 0.312801 0.598807 -0.117963
vt 0.265625 0.554688
v 0.0417402 0.684182 -0.121688
vt 0.304688 0.554688
vn 0.21261 0.642927 -0.735827
v 0.0417401 0.691189 0.0389345
vt 0.320312 0.570312
v 0.0659106 0.76428 -0.044718
vt 0.304688 0.570312
v 0.0417402 0.684182 -0.121688
vt 0.304688 0.554688
v 0.0175697 0.611091 -0.038035
vt 0.320312 0.554688
vn -0.953727 0.300389 -0.013105
v 0.312801 0.605815 0.0426592
vt 0.359375 0.570312
v 0.0417401 0.691189 0.0389345
vt 0.320312 0.570312
v 0.0175697 0.611091 -0.038035
vt 0.320312 0.554688
v 0.288631 0.525716 -0.0343103
vt 0.359375 0.554688
vn -0.21261 -0.642927 0.735827
v 0.262001 0.345283 0.0840348
vt 0.304688 0.796875
v 0.716741 0.345283 0.0840348
vt 0.242188 0.796875
v 0.716741 0.228656 -0.23646
vt 0.242188 0.75
v 0.262001 0.228656 -0.23646
vt 0.304688 0.75
vn 0 0.939715 -0.341958
v 0.262001 0.121825 -0.197584
vt 0.367188 0.75
v 0.716741 0.121825 -0.197584
vt 0.304688 0.75
v 0.716741 0.238451 0.12291
vt 0.304688 0.796875
v 0.262001 0.238451 0.12291
vt 0.367188 0.796875
vn 0 -0.939715 0.341958
v 0.716741 0.228656 -0.23646
vt 0.242188 0.75
v 0.716741 0.345283 0.0840348
vt 0.195312 0.75
v 0.716741 0.238451 0.12291
vt 0.195312 0.734375
v 0.716741 0.121825 -0.197584
vt 0.242188 0.734375
vn 1 0 0
v 0.262001 0.228656 -0.23646
vt 0.304688 0.75
v 0.716741 0.228656 -0.23646
vt 0.242188 0.75
v 0.716741 0.121825 -0.197584
vt 0.242188 0.734375
v 0.262001 0.121825 -0.197584
vt 0.304688 0.734375
vn 0 -0.341958 -0.939715
v 0.262001 0.345283 0.0840348
vt 0.351562 0.75
v 0.262001 0.228656 -0.23646
vt 0.304688 0.75
v 0.262001 0.121825 -0.197584
vt 0.304688 0.734375
v 0.262001 0.238451 0.12291
vt 0.351562 0.734375
vn -1 0 0
v 0.716741 0.345283 0.0840348
vt 0.414062 0.75
v 0.262001 0.345283 0.0840348
vt 0.351562 0.75
v 0.262001 0.238451 0.12291
vt 0.351562 0.734375
v 0.716741 0.238451 0.12291
vt 0.414062 0.734375
vn 0 0.341958 0.939715
v 0.403098 0.221805 -0.230942
vt 0.164062 0.664062
v 0.483485 0.297347 -0.258431
vt 0.148438 0.664062
v 0.563872 0.221806 -0.230942
vt 0.148438 0.648438
v 0.483485 0.146264 -0.203453
vt 0.164062 0.648438
vn 0 -0.341958 -0.939715
v 0.483485 0.297347 -0.258431
vt 0.148438 0.664062
v 0.403098 0.221805 -0.230942
vt 0.164062 0.664062
v 0.483485 0.146264 -0.203453
vt 0.164062 0.648438
v 0.563872 0.221806 -0.230942
vt 0.148438 0.648438
vn 0 0.341958 0.939715
v 0.516783 0.221805 -0.230942
vt 0.164062 0.6875
v 0.59717 0.297347 -0.258431
vt 0.148438 0.6875
v 0.677557 0.221806 -0.230942
vt 0.148438 0.671875
v 0.59717 0.146264 -0.203453
vt 0.164062 0.671875
vn 0 -0.341958 -0.939715
v 0.59717 0.297347 -0.258431
vt 0.148438 0.6875
v 0.516783 0.221805 -0.230942
vt 0.164062 0.6875
v 0.59717 0.146264 -0.203453
vt 0.164062 0.671875
v 0.677557 0.221806 -0.230942
vt 0.148438 0.671875
vn 0 0.341958 0.939715
v 0.289413 0.221805 -0.230942
vt 0.164062 0.6875
v 0.3698 0.297347 -0.258431
vt 0.148438 0.6875
v 0.450187 0.221806 -0.230942
vt 0.148438 0.671875
v 0.3698 0.146264 -0.203453
vt 0.164062 0.671875
vn 0 -0.341958 -0.939715
v 0.3698 0.297347 -0.258431
vt 0.148438 0.6875
v 0.289413 0.221805 -0.230942
vt 0.164062 0.6875
v 0.3698 0.146264 -0.203453
vt 0.164062 0.671875
v 0.450187 0.221806 -0.230942
vt 0.148438 0.671875
vn 0 0.341958 0.939715
v 0.262001 0.272921 0.512694
vt 0.09375 0.796875
v 0.716741 0.272921 0.512694
vt 0.03125 0.796875
v 0.716741 0.18591 0.302631
vt 0.03125 0.765625
v 0.262001 0.18591 0.302631
vt 0.09375 0.765625
vn 0 0.923879 -0.382684
v 0.716741 0.18591 0.302631
vt 0.03125 0.765625
v 0.716741 0.272921 0.512694
vt 0 0.765625
v 0.716741 0 0.625742
vt 0 0.725024
v 0.716741 0 0.379638
vt 0.03125 0.737968
vn 1 0 -0
v 0.262001 0.18591 0.302631
vt 0.09375 0.765625
v 0.716741 0.18591 0.302631
vt 0.03125 0.765625
v 0.716741 0 0.379638
vt 0.03125 0.737968
v 0.262001 0 0.379638
vt 0.09375 0.737968
vn 0 -0.382684 -0.923879
v 0.262001 0.272921 0.512694
vt 0.125 0.765625
v 0.262001 0.18591 0.302631
vt 0.09375 0.765625
v 0.262001 0 0.379638
vt 0.09375 0.737968
v 0.262001 0 0.625742
vt 0.125 0.725024
vn -1 0 0
v 0.716741 0.272921 0.512694
vt 0.1875 0.765625
v 0.262001 0.272921 0.512694
vt 0.125 0.765625
v 0.262001 0 0.625742
vt 0.125 0.725024
v 0.716741 0 0.625742
vt 0.1875 0.725024
vn 0 0.382684 0.923879
v 0.256317 0.0232085 0.637663
vt 0.101562 0.507812
v 0.722425 0.0232085 0.637663
vt 0.0390625 0.507812
v 0.722425 0 0.581633
vt 0.0390625 0.499798
v 0.256317 0 0.581633
vt 0.101562 0.499798
vn 0 0.923879 -0.382684
v 0.722425 0 0.581633
vt 0.00801473 0.46875
v 0.722425 0.0232085 0.637663
vt 0 0.46875
v 0.722425 0 0.647276
vt 0 0.465611
vn 1 0 0
v 0.256317 0.0232085 0.637663
vt 0.140625 0.46875
v 0.256317 0 0.581633
vt 0.13261 0.46875
v 0.256317 0 0.647276
vt 0.140625 0.465611
vn -1 -0 0
v 0.722425 0.0232085 0.637663
vt 0.203125 0.46875
v 0.256317 0.0232085 0.637663
vt 0.140625 0.46875
v 0.256317 0 0.647276
vt 0.140625 0.465611
v 0.722425 0 0.647276
vt 0.203125 0.465611
vn 0 0.382684 0.923879
v 0.617267 0.104161 0.265867
vt 0.46875 0.554688
v 0.503582 0.104161 0.265867
vt 0.453125 0.554688
v 0.503582 0.16524 0.36175
vt 0.453125 0.570312
v 0.617267 0.16524 0.36175
vt 0.46875 0.570312
vn 0 0.843409 -0.537273
v 0.503582 0 0.467012
vt 0.4375 0.52776
v 0.503582 0.16524 0.36175
vt 0.4375 0.554688
v 0.503582 0.104161 0.265867
vt 0.453125 0.554688
v 0.503582 0 0.33222
vt 0.453125 0.537714
vn -1 0 0
v 0.503582 0 0.33222
vt 0.453125 0.537714
v 0.503582 0.104161 0.265867
vt 0.453125 0.554688
v 0.617267 0.104161 0.265867
vt 0.46875 0.554688
v 0.617267 0 0.33222
vt 0.46875 0.537714
vn 0 -0.537273 -0.843409
v 0.617267 0 0.33222
vt 0.46875 0.537714
v 0.617267 0.104161 0.265867
vt 0.46875 0.554688
v 0.617267 0.16524 0.36175
vt 0.484375 0.554688
v 0.617267 0 0.467012
vt 0.484375 0.52776
vn 1 -0 0
v 0.617267 0 0.467012
vt 0.484375 0.52776
v 0.617267 0.16524 0.36175
vt 0.484375 0.554688
v 0.503582 0.16524 0.36175
vt 0.5 0.554688
v 0.503582 0 0.467012
vt 0.5 0.52776
vn 0 0.537273 0.843409
v 0.361476 0.16524 0.36175
vt 0.46875 0.570312
v 0.475161 0.16524 0.36175
vt 0.453125 0.570312
v 0.475161 0.104161 0.265867
vt 0.453125 0.554688
v 0.361476 0.104161 0.265867
vt 0.46875 0.554688
vn 0 0.843409 -0.537273
v 0.475161 0.104161 0.265867
vt 0.453125 0.554688
v 0.475161 0.16524 0.36175
vt 0.4375 0.554688
v 0.475161 0 0.467012
vt 0.4375 0.52776
v 0.475161 0 0.33222
vt 0.453125 0.537714
vn 1 0 -0
v 0.361476 0.104161 0.265867
vt 0.46875 0.554688
v 0.475161 0.104161 0.265867
vt 0.453125 0.554688
v 0.475161 0 0.33222
vt 0.453125 0.537714
v 0.361476 0 0.33222
vt 0.46875 0.537714
vn 0 -0.537273 -0.843409
v 0.361476 0.16524 0.36175
vt 0.484375 0.554688
v 0.361476 0.104161 0.265867
vt 0.46875 0.554688
v 0.361476 0 0.33222
vt 0.46875 0.537714
v 0.361476 0 0.467012
vt 0.484375 0.52776
vn -1 0 0
v 0.475161 0.16524 0.36175
vt 0.5 0.554688
v 0.361476 0.16524 0.36175
vt 0.484375 0.554688
v 0.361476 0 0.467012
vt 0.484375 0.52776
v 0.475161 0 0.467012
vt 0.5 0.52776
vn 0 0.537273 0.843409
v 0.31316 0.616258 0.0988542
vt 0.539062 0.890625
v 0.665583 0.616258 0.0988542
vt 0.492188 0.890625
v 0.665583 0.451401 0.0219876
vt 0.492188 0.867188
v 0.31316 0.451401 0.0219876
vt 0.539062 0.867188
vn 0 0.422586 -0.906323
v 0.31316 0.350514 0.238362
vt 0.585938 0.867188
v 0.665583 0.350514 0.238362
vt 0.539062 0.867188
v 0.665583 0.51537 0.315228
vt 0.539062 0.890625
v 0.31316 0.51537 0.315228
vt 0.585938 0.890625
vn 0 -0.422586 0.906323
v 0.665583 0.451401 0.0219876
vt 0.492188 0.867188
v 0.665583 0.616258 0.0988542
vt 0.46875 0.867188
v 0.665583 0.51537 0.315228
vt 0.46875 0.835938
v 0.665583 0.350514 0.238362
vt 0.492188 0.835938
vn 1 0 0
v 0.31316 0.451401 0.0219876
vt 0.539062 0.867188
v 0.665583 0.451401 0.0219876
vt 0.492188 0.867188
v 0.665583 0.350514 0.238362
vt 0.492188 0.835938
v 0.31316 0.350514 0.238362
vt 0.539062 0.835938
vn 0 -0.906323 -0.422586
v 0.31316 0.616258 0.0988542
vt 0.5625 0.867188
v 0.31316 0.451401 0.0219876
vt 0.539062 0.867188
v 0.31316 0.350514 0.238362
vt 0.539062 0.835938
v 0.31316 0.51537 0.315228
vt 0.5625 0.835938
vn -1 -0 0
v 0.665583 0.616258 0.0988542
vt 0.609375 0.867188
v 0.31316 0.616258 0.0988542
vt 0.5625 0.867188
v 0.31316 0.51537 0.315228
vt 0.5625 0.835938
v 0.665583 0.51537 0.315228
vt 0.609375 0.835938
vn 0 0.906323 0.422586
v 0.108527 0.536557 0.305679
vt 0.140625 0.304688
v 0.870216 0.536557 0.305679
vt 0.0390625 0.304688
v 0.870216 0.339261 0.0705354
vt 0.0390625 0.265625
v 0.108527 0.339261 0.0705354
vt 0.140625 0.265625
vn 0 0.766065 -0.642763
v 0.108527 0.104118 0.267831
vt 0.242188 0.265625
v 0.870216 0.104118 0.267831
vt 0.140625 0.265625
v 0.870216 0.301414 0.502974
vt 0.140625 0.304688
v 0.108527 0.301414 0.502974
vt 0.242188 0.304688
vn 0 -0.766065 0.642763
v 0.870216 0.339261 0.0705354
vt 0.0390625 0.265625
v 0.870216 0.536557 0.305679
vt 0 0.265625
v 0.870216 0.301414 0.502974
vt 0 0.226562
v 0.870216 0.104118 0.267831
vt 0.0390625 0.226562
vn 1 0 -0
v 0.108527 0.339261 0.0705354
vt 0.140625 0.265625
v 0.870216 0.339261 0.0705354
vt 0.0390625 0.265625
v 0.870216 0.104118 0.267831
vt 0.0390625 0.226562
v 0.108527 0.104118 0.267831
vt 0.140625 0.226562
vn 0 -0.642763 -0.766065
v 0.108527 0.536557 0.305679
vt 0.179688 0.265625
v 0.108527 0.339261 0.0705354
vt 0.140625 0.265625
v 0.108527 0.104118 0.267831
vt 0.140625 0.226562
v 0.108527 0.301414 0.502974
vt 0.179688 0.226562
vn -1 0 0
v 0.870216 0.536557 0.305679
vt 0.28125 0.265625
v 0.108527 0.536557 0.305679
vt 0.179688 0.265625
v 0.108527 0.301414 0.502974
vt 0.179688 0.226562
v 0.870216 0.301414 0.502974
vt 0.28125 0.226562
vn 0 0.642763 0.766065
v 0.574174 0.407099 0.452997
vt 0.296875 0.359375
v 1.02127 0.917945 0.366255
vt 0.203125 0.359375
v 1.03907 0.893721 0.315354
vt 0.203125 0.351562
v 0.591978 0.382875 0.402096
vt 0.296875 0.351562
vn -0.694642 0.524326 -0.492499
v 0.633042 0.351879 0.43121
vt 0.390625 0.351562
v 1.08014 0.862724 0.344468
vt 0.296875 0.351562
v 1.06233 0.886949 0.395369
vt 0.296875 0.359375
v 0.615239 0.376103 0.482112
vt 0.390625 0.359375
vn 0.694642 -0.524326 0.492499
v 1.03907 0.893721 0.315354
vt 0.203125 0.351562
v 1.02127 0.917945 0.366255
vt 0.195312 0.351562
v 1.06233 0.886949 0.395369
vt 0.195312 0.34375
v 1.08014 0.862724 0.344468
vt 0.203125 0.34375
vn 0.65328 0.746432 -0.126745
v 0.591978 0.382875 0.402096
vt 0.296875 0.351562
v 1.03907 0.893721 0.315354
vt 0.203125 0.351562
v 1.08014 0.862724 0.344468
vt 0.203125 0.34375
v 0.633042 0.351879 0.43121
vt 0.296875 0.34375
vn 0.301161 -0.409782 -0.861035
v 0.574174 0.407099 0.452997
vt 0.304688 0.351562
v 0.591978 0.382875 0.402096
vt 0.296875 0.351562
v 0.633042 0.351879 0.43121
vt 0.296875 0.34375
v 0.615239 0.376103 0.482112
vt 0.304688 0.34375
vn -0.65328 -0.746432 0.126745
v 1.02127 0.917945 0.366255
vt 0.398438 0.351562
v 0.574174 0.407099 0.452997
vt 0.304688 0.351562
v 0.615239 0.376103 0.482112
vt 0.304688 0.34375
v 1.06233 0.886949 0.395369
vt 0.398438 0.34375
vn -0.301161 0.409782 0.861035
v 0.584608 0.39524 0.427962
vt 0.351562 1
v 1.03022 0.904388 0.341508
vt 0.257812 1
v 1.50404 0.54674 0.677446
vt 0.257812 0.90625
v 1.05843 0.0375915 0.7639
vt 0.351562 0.90625
vn 0.301161 -0.409782 -0.861035
v 1.03022 0.904388 0.341508
vt 0.257812 1
v 0.584608 0.39524 0.427962
vt 0.351562 1
v 1.05843 0.0375915 0.7639
vt 0.351562 0.90625
v 1.50404 0.54674 0.677446
vt 0.257812 0.90625
vn -0.301161 0.409782 0.861035
v 1.02213 0.844015 0.401742
vt 0.117188 0.617188
v 1.06075 0.888141 0.394249
vt 0.109375 0.617188
v 1.07856 0.863917 0.343348
vt 0.109375 0.609375
v 1.03994 0.81979 0.350841
vt 0.117188 0.609375
vn -0.694642 0.524326 -0.492499
v 1.47585 0.490754 0.659904
vt 0.125 0.609375
v 1.51447 0.53488 0.652412
vt 0.117188 0.609375
v 1.49667 0.559105 0.703313
vt 0.117188 0.617188
v 1.45805 0.514979 0.710805
vt 0.125 0.617188
vn 0.694642 -0.524326 0.492499
v 1.07856 0.863917 0.343348
vt 0.109375 0.609375
v 1.06075 0.888141 0.394249
vt 0.101562 0.609375
v 1.49667 0.559105 0.703313
vt 0.101562 0.523438
v 1.51447 0.53488 0.652412
vt 0.109375 0.523438
vn 0.65328 0.746432 -0.126745
v 1.03994 0.81979 0.350841
vt 0.117188 0.609375
v 1.07856 0.863917 0.343348
vt 0.109375 0.609375
v 1.51447 0.53488 0.652412
vt 0.109375 0.523438
v 1.47585 0.490754 0.659904
vt 0.117188 0.523438
vn 0.301161 -0.409782 -0.861035
v 1.02213 0.844015 0.401742
vt 0.125 0.609375
v 1.03994 0.81979 0.350841
vt 0.117188 0.609375
v 1.47585 0.490754 0.659904
vt 0.117188 0.523438
v 1.45805 0.514979 0.710805
vt 0.125 0.523438
vn -0.65328 -0.746432 0.126745
v 1.06075 0.888141 0.394249
vt 0.132812 0.609375
v 1.02213 0.844015 0.401742
vt 0.125 0.609375
v 1.45805 0.514979 0.710805
vt 0.125 0.523438
v 1.49667 0.559105 0.703313
vt 0.132812 0.523438
vn -0.301161 0.409782 0.861035
v 1.03847 0.891508 0.373865
vt 0.546875 0.773438
v 0.996011 0.75209 0.285323
vt 0.523438 0.773438
v 0.877555 0.841502 0.201338
vt 0.523438 0.796875
v 0.920014 0.98092 0.28988
vt 0.546875 0.796875
vn 0.674892 0.238049 -0.698465
v 0.996011 0.75209 0.285323
vt 0.523438 0.773438
v 1.03847 0.891508 0.373865
vt 0.546875 0.773438
v 0.920014 0.98092 0.28988
vt 0.546875 0.796875
v 0.877555 0.841502 0.201338
vt 0.523438 0.796875
vn -0.674892 -0.238049 0.698465
v 1.32781 0.774409 -0.216605
vt 0.367188 0.898438
v 0.997904 0.887903 0.369533
vt 0.273438 0.898438
v 1.47173 0.530255 0.705471
vt 0.273438 0.804688
v 1.80163 0.416761 0.119333
vt 0.367188 0.804688
vn 0.532499 0.835103 0.138011
v 0.997904 0.887903 0.369533
vt 0.273438 0.898438
v 1.32781 0.774409 -0.216605
vt 0.367188 0.898438
v 1.80163 0.416761 0.119333
vt 0.367188 0.804688
v 1.47173 0.530255 0.705471
vt 0.273438 0.804688
vn -0.532499 -0.835103 -0.138011
v 1.00832 0.854546 0.317026
vt 0.101562 0.4375
v 1.0398 0.903914 0.325184
vt 0.09375 0.4375
v 1.34331 0.7995 -0.214062
vt 0.09375 0.351562
v 1.31183 0.750131 -0.222221
vt 0.101562 0.351562
vn -0.694642 0.524326 -0.492499
v 1.35289 0.719135 -0.193106
vt 0.109375 0.351562
v 1.38437 0.768503 -0.184948
vt 0.101562 0.351562
v 1.08086 0.872918 0.354299
vt 0.101562 0.4375
v 1.04938 0.82355 0.34614
vt 0.109375 0.4375
vn 0.694642 -0.524326 0.492499
v 1.34331 0.7995 -0.214062
vt 0.09375 0.351562
v 1.0398 0.903914 0.325184
vt 0.0078125 0.351562
v 1.08086 0.872918 0.354299
vt 0.0078125 0.34375
v 1.38437 0.768503 -0.184948
vt 0.09375 0.34375
vn 0.532499 0.835103 0.138011
v 1.31183 0.750131 -0.222221
vt 0.101562 0.351562
v 1.34331 0.7995 -0.214062
vt 0.09375 0.351562
v 1.38437 0.768503 -0.184948
vt 0.09375 0.34375
v 1.35289 0.719135 -0.193106
vt 0.101562 0.34375
vn 0.48365 -0.166387 -0.859301
v 1.00832 0.854546 0.317026
vt 0.1875 0.351562
v 1.31183 0.750131 -0.222221
vt 0.101562 0.351562
v 1.35289 0.719135 -0.193106
vt 0.101562 0.34375
v 1.04938 0.82355 0.34614
vt 0.1875 0.34375
vn -0.532499 -0.835103 -0.138011
v 1.0398 0.903914 0.325184
vt 0.195312 0.351562
v 1.00832 0.854546 0.317026
vt 0.1875 0.351562
v 1.04938 0.82355 0.34614
vt 0.1875 0.34375
v 1.08086 0.872918 0.354299
vt 0.195312 0.34375
vn -0.48365 0.166387 0.859301
v -0.0454026 0.916204 0.370824
vt 0.296875 0.359375
v 0.401692 0.405358 0.457566
vt 0.203125 0.359375
v 0.387532 0.383924 0.404323
vt 0.203125 0.351562
v -0.0595622 0.89477 0.31758
vt 0.296875 0.351562
vn 0.71823 0.558022 -0.41564
v -0.102021 0.861782 0.342151
vt 0.390625 0.351562
v 0.345073 0.350936 0.428894
vt 0.296875 0.351562
v 0.359232 0.372369 0.482137
vt 0.296875 0.359375
v -0.0878617 0.883215 0.395395
vt 0.390625 0.359375
vn -0.71823 -0.558022 0.41564
v 0.387532 0.383924 0.404323
vt 0.203125 0.351562
v 0.401692 0.405358 0.457566
vt 0.195312 0.351562
v 0.359232 0.372369 0.482137
vt 0.195312 0.34375
v 0.345073 0.350936 0.428894
vt 0.203125 0.34375
vn 0.65328 -0.746432 0.126745
v -0.0595622 0.89477 0.31758
vt 0.296875 0.351562
v 0.387532 0.383924 0.404323
vt 0.203125 0.351562
v 0.345073 0.350936 0.428894
vt 0.203125 0.34375
v -0.102021 0.861782 0.342151
vt 0.296875 0.34375
vn -0.239521 -0.362562 -0.900655
v -0.0454026 0.916204 0.370824
vt 0.304688 0.351562
v -0.0595622 0.89477 0.31758
vt 0.296875 0.351562
v -0.102021 0.861782 0.342151
vt 0.296875 0.34375
v -0.0878617 0.883215 0.395395
vt 0.304688 0.34375
vn -0.65328 0.746432 -0.126745
v 0.401692 0.405358 0.457566
vt 0.398438 0.351562
v -0.0454026 0.916204 0.370824
vt 0.304688 0.351562
v -0.0878617 0.883215 0.395395
vt 0.304688 0.34375
v 0.359232 0.372369 0.482137
vt 0.398438 0.34375
vn 0.239521 0.362562 0.900655
v -0.0968596 0.0142231 0.714785
vt 0.351562 0.90625
v -0.542468 0.523372 0.628331
vt 0.257812 0.90625
v -0.0525562 0.904004 0.344819
vt 0.257812 1
v 0.393053 0.394855 0.431273
vt 0.351562 1
vn -0.239521 -0.362562 -0.900655
v -0.542468 0.523372 0.628331
vt 0.257812 0.90625
v -0.0968596 0.0142231 0.714785
vt 0.351562 0.90625
v 0.393053 0.394855 0.431273
vt 0.351562 1
v -0.0525562 0.904004 0.344819
vt 0.257812 1
vn 0.239521 0.362562 0.900655
v -0.0862286 0.884484 0.39445
vt 0.117188 0.617188
v -0.0476092 0.840358 0.401942
vt 0.109375 0.617188
v -0.0617688 0.818925 0.348699
vt 0.109375 0.609375
v -0.100388 0.863051 0.341206
vt 0.117188 0.609375
vn 0.71823 0.558022 -0.41564
v -0.551107 0.512869 0.602038
vt 0.125 0.609375
v -0.512488 0.468743 0.60953
vt 0.117188 0.609375
v -0.498328 0.490176 0.662774
vt 0.117188 0.617188
v -0.536948 0.534303 0.655281
vt 0.125 0.617188
vn -0.71823 -0.558022 0.41564
v -0.0617688 0.818925 0.348699
vt 0.109375 0.609375
v -0.0476092 0.840358 0.401942
vt 0.101562 0.609375
v -0.498328 0.490176 0.662774
vt 0.101562 0.523438
v -0.512488 0.468743 0.60953
vt 0.109375 0.523438
vn 0.65328 -0.746432 0.126745
v -0.100388 0.863051 0.341206
vt 0.117188 0.609375
v -0.0617688 0.818925 0.348699
vt 0.109375 0.609375
v -0.512488 0.468743 0.60953
vt 0.109375 0.523438
v -0.551107 0.512869 0.602038
vt 0.117188 0.523438
vn -0.239521 -0.362562 -0.900655
v -0.0862286 0.884484 0.39445
vt 0.125 0.609375
v -0.100388 0.863051 0.341206
vt 0.117188 0.609375
v -0.551107 0.512869 0.602038
vt 0.117188 0.523438
v -0.536948 0.534303 0.655281
vt 0.125 0.523438
vn -0.65328 0.746432 -0.126745
v -0.0476092 0.840358 0.401942
vt 0.132812 0.609375
v -0.0862286 0.884484 0.39445
vt 0.125 0.609375
v -0.536948 0.534303 0.655281
vt 0.125 0.523438
v -0.498328 0.490176 0.662774
vt 0.132812 0.523438
vn 0.239521 0.362562 0.900655
v 0.0597606 0.984375 0.304909
vt 0.546875 0.796875
v 0.109652 0.850651 0.21159
vt 0.523438 0.796875
v -0.0128261 0.755493 0.282468
vt 0.523438 0.773438
v -0.0627174 0.889217 0.375787
vt 0.546875 0.773438
vn -0.631306 0.271439 -0.72648
v 0.109652 0.850651 0.21159
vt 0.523438 0.796875
v 0.0597606 0.984375 0.304909
vt 0.546875 0.796875
v -0.0627174 0.889217 0.375787
vt 0.546875 0.773438
v -0.0128261 0.755493 0.282468
vt 0.523438 0.773438
vn 0.631306 -0.271439 0.72648
v -0.311717 0.803463 -0.237995
vt 0.367188 0.898438
v -0.0219141 0.886238 0.373917
vt 0.273438 0.898438
v -0.511826 0.505606 0.65743
vt 0.273438 0.804688
v -0.801629 0.422831 0.0455173
vt 0.367188 0.804688
vn 0.551033 -0.820905 -0.149924
v -0.0219141 0.886238 0.373917
vt 0.273438 0.898438
v -0.311717 0.803463 -0.237995
vt 0.367188 0.898438
v -0.801629 0.422831 0.0455173
vt 0.367188 0.804688
v -0.511826 0.505606 0.65743
vt 0.273438 0.804688
vn -0.551033 0.820905 0.149924
v -0.0610523 0.904377 0.327903
vt 0.101562 0.4375
v -0.0284773 0.855848 0.31904
vt 0.09375 0.4375
v -0.295096 0.779695 -0.243919
vt 0.09375 0.351562
v -0.327671 0.828224 -0.235056
vt 0.101562 0.351562
vn 0.71823 0.558022 -0.41564
v -0.37013 0.795236 -0.210485
vt 0.109375 0.351562
v -0.337555 0.746707 -0.219348
vt 0.101562 0.351562
v -0.0709364 0.82286 0.343611
vt 0.101562 0.4375
v -0.103511 0.871389 0.352474
vt 0.109375 0.4375
vn -0.71823 -0.558022 0.41564
v -0.295096 0.779695 -0.243919
vt 0.09375 0.351562
v -0.0284773 0.855848 0.31904
vt 0.0078125 0.351562
v -0.0709364 0.82286 0.343611
vt 0.0078125 0.34375
v -0.337555 0.746707 -0.219348
vt 0.09375 0.34375
vn 0.551033 -0.820905 -0.149924
v -0.327671 0.828224 -0.235056
vt 0.101562 0.351562
v -0.295096 0.779695 -0.243919
vt 0.09375 0.351562
v -0.337555 0.746707 -0.219348
vt 0.09375 0.34375
v -0.37013 0.795236 -0.210485
vt 0.101562 0.34375
vn -0.424862 -0.121352 -0.897087
v -0.0610523 0.904377 0.327903
vt 0.1875 0.351562
v -0.327671 0.828224 -0.235056
vt 0.101562 0.351562
v -0.37013 0.795236 -0.210485
vt 0.101562 0.34375
v -0.103511 0.871389 0.352474
vt 0.1875 0.34375
vn -0.551033 0.820905 0.149924
v -0.0284773 0.855848 0.31904
vt 0.195312 0.351562
v -0.0610523 0.904377 0.327903
vt 0.1875 0.351562
v -0.103511 0.871389 0.352474
vt 0.1875 0.34375
v -0.0709364 0.82286 0.343611
vt 0.195312 0.34375
vn 0.424862 0.121352 0.897087
v -0.00501325 0.451527 0.398893
vt 0.421875 0.726562
v 0.164055 0.43722 0.381842
vt 0.398438 0.726562
v 0.148316 0.452751 0.212754
vt 0.398438 0.703125
v -0.0207523 0.467058 0.229806
vt 0.421875 0.703125
vn 0.092296 0.992303 0.082555
v -0.0574767 0.072223 0.196957
vt 0.445312 0.703125
v 0.111592 0.0579162 0.179906
vt 0.421875 0.703125
v 0.127331 0.042385 0.348994
vt 0.421875 0.726562
v -0.0417377 0.0566918 0.366045
vt 0.445312 0.726562
vn -0.092296 -0.992303 -0.082555
v 0.148316 0.452751 0.212754
vt 0.398438 0.703125
v 0.164055 0.43722 0.381842
vt 0.375 0.703125
v 0.127331 0.042385 0.348994
vt 0.375 0.648438
v 0.111592 0.0579162 0.179906
vt 0.398438 0.648438
vn 0.991445 -0.083898 -0.099992
v -0.0207523 0.467058 0.229806
vt 0.421875 0.703125
v 0.148316 0.452751 0.212754
vt 0.398438 0.703125
v 0.111592 0.0579162 0.179906
vt 0.398438 0.648438
v -0.0574767 0.072223 0.196957
vt 0.421875 0.648438
vn -0.092296 0.091077 -0.991558
v -0.00501325 0.451527 0.398893
vt 0.445312 0.703125
v -0.0207523 0.467058 0.229806
vt 0.421875 0.703125
v -0.0574767 0.072223 0.196957
vt 0.421875 0.648438
v -0.0417377 0.0566918 0.366045
vt 0.445312 0.648438
vn -0.991445 0.083898 0.099992
v 0.164055 0.43722 0.381842
vt 0.46875 0.703125
v -0.00501325 0.451527 0.398893
vt 0.445312 0.703125
v -0.0417377 0.0566918 0.366045
vt 0.445312 0.648438
v 0.127331 0.042385 0.348994
vt 0.46875 0.648438
vn 0.092296 -0.091077 0.991558
v -0.0476751 0.00956509 0.346716
vt 0.046875 0.617188
v 0.0653586 0 0.335316
vt 0.0312055 0.617188
v 0.121227 0 0.324031
vt 0.0234375 0.616175
v 0.117529 0.105043 0.199235
vt 0.0234375 0.59375
vn 0.128544 0.760585 0.636386
v -0.0476751 0.00956509 0.346716
vt 0.046875 0.617188
v 0.117529 0.105043 0.199235
vt 0.0234375 0.59375
v -0.0515394 0.11935 0.216286
vt 0.046875 0.59375
vn 0.128544 0.760585 0.636386
v 0.117529 0.105043 0.199235
vt 0.0234375 0.59375
v 0.121227 0 0.324031
vt 0.0010123 0.59375
v 0.0997762 0 0.111345
vt 0.0234375 0.574768
vn 0.991445 -0.083898 -0.099992
v -0.0515394 0.11935 0.216286
vt 0.046875 0.59375
v 0.117529 0.105043 0.199235
vt 0.0234375 0.59375
v 0.0997762 0 0.111345
vt 0.0234375 0.574768
v -0.0717104 0 0.116426
vt 0.046875 0.572183
vn -0.022661 0.643795 -0.764863
v -0.0476751 0.00956509 0.346716
vt 0.0703125 0.59375
v -0.0515394 0.11935 0.216286
vt 0.046875 0.59375
v -0.0717104 0 0.116426
vt 0.046875 0.572183
v -0.0492916 0 0.338713
vt 0.0703125 0.592022
vn -0.991445 0.083898 0.099992
v 0.0653586 0 0.335316
vt 0.085982 0.59375
v -0.0476751 0.00956509 0.346716
vt 0.0703125 0.59375
v -0.0492916 0 0.338713
vt 0.0703125 0.592022
vn 0.022661 -0.643795 0.764863
v 0.999495 0.467058 0.229806
vt 0.421875 0.703125
v 0.830426 0.452751 0.212754
vt 0.398438 0.703125
v 0.814687 0.43722 0.381842
vt 0.398438 0.726562
v 0.983756 0.451527 0.398893
vt 0.421875 0.726562
vn -0.092296 0.992303 0.082555
v 1.02048 0.0566918 0.366045
vt 0.445312 0.726562
v 0.851412 0.042385 0.348994
vt 0.421875 0.726562
v 0.867151 0.0579162 0.179906
vt 0.421875 0.703125
v 1.03622 0.072223 0.196957
vt 0.445312 0.703125
vn 0.092296 -0.992303 -0.082555
v 0.867151 0.0579162 0.179906
vt 0.398438 0.648438
v 0.851412 0.042385 0.348994
vt 0.375 0.648438
v 0.814687 0.43722 0.381842
vt 0.375 0.703125
v 0.830426 0.452751 0.212754
vt 0.398438 0.703125
vn -0.991445 -0.083898 -0.099992
v 1.03622 0.072223 0.196957
vt 0.421875 0.648438
v 0.867151 0.0579162 0.179906
vt 0.398438 0.648438
v 0.830426 0.452751 0.212754
vt 0.398438 0.703125
v 0.999495 0.467058 0.229806
vt 0.421875 0.703125
vn 0.092296 0.091077 -0.991558
v 1.02048 0.0566918 0.366045
vt 0.445312 0.648438
v 1.03622 0.072223 0.196957
vt 0.421875 0.648438
v 0.999495 0.467058 0.229806
vt 0.421875 0.703125
v 0.983756 0.451527 0.398893
vt 0.445312 0.703125
vn 0.991445 0.083898 0.099992
v 0.851412 0.042385 0.348994
vt 0.46875 0.648438
v 1.02048 0.0566918 0.366045
vt 0.445312 0.648438
v 0.983756 0.451527 0.398893
vt 0.445312 0.703125
v 0.814687 0.43722 0.381842
vt 0.46875 0.703125
vn -0.092296 -0.091077 0.991558
v 1.03028 0.11935 0.216286
vt 0.046875 0.59375
v 0.861213 0.105043 0.199235
vt 0.0234375 0.59375
v 0.857516 0 0.324031
vt 0.0234375 0.616175
v 0.913384 0 0.335316
vt 0.0312055 0.617188
vn -0.128544 0.760585 0.636386
v 1.03028 0.11935 0.216286
vt 0.046875 0.59375
v 0.913384 0 0.335316
vt 0.0312055 0.617188
v 1.02642 0.00956509 0.346716
vt 0.046875 0.617188
vn -0.128544 0.760585 0.636386
v 0.857516 0 0.324031
vt 0.0010123 0.59375
v 0.861213 0.105043 0.199235
vt 0.0234375 0.59375
v 0.878966 0 0.111345
vt 0.0234375 0.574768
vn -0.991445 -0.083898 -0.099992
v 0.878966 0 0.111345
vt 0.0234375 0.574768
v 0.861213 0.105043 0.199235
vt 0.0234375 0.59375
v 1.03028 0.11935 0.216286
vt 0.046875 0.59375
v 1.05045 0 0.116426
vt 0.046875 0.572183
vn 0.022661 0.643795 -0.764863
v 1.05045 0 0.116426
vt 0.046875 0.572183
v 1.03028 0.11935 0.216286
vt 0.046875 0.59375
v 1.02642 0.00956509 0.346716
vt 0.0703125 0.59375
v 1.02803 0 0.338713
vt 0.0703125 0.592022
vn 0.991445 0.083898 0.099992
v 1.02803 0 0.338713
vt 0.0703125 0.592022
v 1.02642 0.00956509 0.346716
vt 0.0703125 0.59375
v 0.913384 0 0.335316
vt 0.085982 0.59375
vn -0.022661 -0.643795 0.764863
usemtl stone
f 1/1/1 2/2/1 3/3/1 4/4/1
f 5/5/2 6/6/2 7/7/2 8/8/2
f 9/9/3 10/10/3 11/11/3 12/12/3
f 13/13/4 14/14/4 15/15/4 16/16/4
f 17/17/5 18/18/5 19/19/5 20/20/5
f 21/21/6 22/22/6 23/23/6 24/24/6
f 25/25/7 26/26/7 27/27/7 28/28/7
f 29/29/8 30/30/8 31/31/8 32/32/8
f 33/33/9 34/34/9 35/35/9 36/36/9
f 37/37/10 38/38/10 39/39/10 40/40/10
f 41/41/11 42/42/11 43/43/11 44/44/11
f 45/45/12 46/46/12 47/47/12 48/48/12
f 49/49/13 50/50/13 51/51/13 52/52/13
f 53/53/14 54/54/14 55/55/14 56/56/14
f 57/57/15 58/58/15 59/59/15 60/60/15
f 61/61/16 62/62/16 63/63/16 64/64/16
f 65/65/17 66/66/17 67/67/17 68/68/17
f 69/69/18 70/70/18 71/71/18 72/72/18
f 73/73/19 74/74/19 75/75/19 76/76/19
f 77/77/20 78/78/20 79/79/20 80/80/20
f 81/81/21 82/82/21 83/83/21 84/84/21
f 85/85/22 86/86/22 87/87/22 88/88/22
f 89/89/23 90/90/23 91/91/23 92/92/23
f 93/93/24 94/94/24 95/95/24 96/96/24
f 97/97/25 98/98/25 99/99/25 100/100/25
f 101/101/26 102/102/26 103/103/26 104/104/26
f 105/105/27 106/106/27 107/107/27 108/108/27
f 109/109/28 110/110/28 111/111/28 112/112/28
f 113/113/29 114/114/29 115/115/29 116/116/29
f 117/117/30 118/118/30 119/119/30 120/120/30
f 121/121/31 122/122/31 123/123/31 124/124/31
f 125/125/32 126/126/32 127/127/32 128/128/32
f 129/129/33 130/130/33 131/131/33 132/132/33
f 133/133/34 134/134/34 135/135/34 136/136/34
f 137/137/35 138/138/35 139/139/35 140/140/35
f 141/141/36 142/142/36 143/143/36 144/144/36
f 145/145/37 146/146/37 147/147/37 148/148/37
f 149/149/38 150/150/38 151/151/38 152/152/38
f 153/153/39 154/154/39 155/155/39 156/156/39
f 157/157/40 158/158/40 159/159/40 160/160/40
f 161/161/41 162/162/41 163/163/41 164/164/41
f 165/165/42 166/166/42 167/167/42 168/168/42
f 169/169/43 170/170/43 171/171/43 172/172/43
f 173/173/44 174/174/44 175/175/44 176/176/44
f 177/177/45 178/178/45 179/179/45 180/180/45
f 181/181/46 182/182/46 183/183/46 184/184/46
f 185/185/47 186/186/47 187/187/47 188/188/47
f 189/189/48 190/190/48 191/191/48 192/192/48
f 193/193/49 194/194/49 195/195/49 196/196/49
f 197/197/50 198/198/50 199/199/50 200/200/50
f 201/201/51 202/202/51 203/203/51 204/204/51
f 205/205/52 206/206/52 207/207/52 208/208/52
f 209/209/53 210/210/53 211/211/53
f 212/212/54 213/213/54 214/214/54
f 215/215/55 216/216/55 217/217/55 218/218/55
f 219/219/56 220/220/56 221/221/56 222/222/56
f 223/223/57 224/224/57 225/225/57 226/226/57
f 227/227/58 228/228/58 229/229/58 230/230/58
f 231/231/59 232/232/59 233/233/59 234/234/59
f 235/235/60 236/236/60 237/237/60 238/238/60
f 239/239/61 240/240/61 241/241/61 242/242/61
f 243/243/62 244/244/62 245/245/62 246/246/62
f 247/247/63 248/248/63 249/249/63 250/250/63
f 251/251/64 252/252/64 253/253/64 254/254/64
f 255/255/65 256/256/65 257/257/65 258/258/65
f 259/259/66 260/260/66 261/261/66 262/262/66
f 263/263/67 264/264/67 265/265/67 266/266/67
f 267/267/68 268/268/68 269/269/68 270/270/68
f 271/271/69 272/272/69 273/273/69 274/274/69
f 275/275/70 276/276/70 277/277/70 278/278/70
f 279/279/71 280/280/71 281/281/71 282/282/71
f 283/283/72 284/284/72 285/285/72 286/286/72
f 287/287/73 288/288/73 289/289/73 290/290/73
f 291/291/74 292/292/74 293/293/74 294/294/74
f 295/295/75 296/296/75 297/297/75 298/298/75
f 299/299/76 300/300/76 301/301/76 302/302/76
f 303/303/77 304/304/77 305/305/77 306/306/77
f 307/307/78 308/308/78 309/309/78 310/310/78
f 311/311/79 312/312/79 313/313/79 314/314/79
f 315/315/80 316/316/80 317/317/80 318/318/80
f 319/319/81 320/320/81 321/321/81 322/322/81
f 323/323/82 324/324/82 325/325/82 326/326/82
f 327/327/83 328/328/83 329/329/83 330/330/83
f 331/331/84 332/332/84 333/333/84 334/334/84
f 335/335/85 336/336/85 337/337/85 338/338/85
f 339/339/86 340/340/86 341/341/86 342/342/86
f 343/343/87 344/344/87 345/345/87 346/346/87
f 347/347/88 348/348/88 349/349/88 350/350/88
f 351/351/89 352/352/89 353/353/89 354/354/89
f 355/355/90 356/356/90 357/357/90 358/358/90
f 359/359/91 360/360/91 361/361/91 362/362/91
f 363/363/92 364/364/92 365/365/92 366/366/92
f 367/367/93 368/368/93 369/369/93 370/370/93
f 371/371/94 372/372/94 373/373/94 374/374/94
f 375/375/95 376/376/95 377/377/95 378/378/95
f 379/379/96 380/380/96 381/381/96 382/382/96
f 383/383/97 384/384/97 385/385/97 386/386/97
f 387/387/98 388/388/98 389/389/98 390/390/98
f 391/391/99 392/392/99 393/393/99 394/394/99
f 395/395/100 396/396/100 397/397/100 398/398/100
f 399/399/101 400/400/101 401/401/101 402/402/101
f 403/403/102 404/404/102 405/405/102 406/406/102
f 407/407/103 408/408/103 409/409/103 410/410/103
f 411/411/104 412/412/104 413/413/104 414/414/104
f 415/415/105 416/416/105 417/417/105 418/418/105
f 419/419/106 420/420/106 421/421/106 422/422/106
f 423/423/107 424/424/107 425/425/107 426/426/107
f 427/427/108 428/428/108 429/429/108 430/430/108
f 431/431/109 432/432/109 433/433/109 434/434/109
f 435/435/110 436/436/110 437/437/110 438/438/110
f 439/439/111 440/440/111 441/441/111 442/442/111
f 443/443/112 444/444/112 445/445/112 446/446/112
f 447/447/113 448/448/113 449/449/113 450/450/113
f 451/451/114 452/452/114 453/453/114 454/454/114
f 455/455/115 456/456/115 457/457/115 458/458/115
f 459/459/116 460/460/116 461/461/116 462/462/116
f 463/463/117 464/464/117 465/465/117 466/466/117
f 467/467/118 468/468/118 469/469/118 470/470/118
f 471/471/119 472/472/119 473/473/119 474/474/119
f 475/475/120 476/476/120 477/477/120 478/478/120
f 479/479/121 480/480/121 481/481/121 482/482/121
f 483/483/122 484/484/122 485/485/122 486/486/122
f 487/487/123 488/488/123 489/489/123 490/490/123
f 491/491/124 492/492/124 493/493/124 494/494/124
f 495/495/125 496/496/125 497/497/125 498/498/125
f 499/499/126 500/500/126 501/501/126 502/502/126
f 503/503/127 504/504/127 505/505/127 506/506/127
f 507/507/128 508/508/128 509/509/128 510/510/128
f 511/511/129 512/512/129 513/513/129 514/514/129
f 515/515/130 516/516/130 517/517/130 518/518/130
f 519/519/131 520/520/131 521/521/131 522/522/131
f 523/523/132 524/524/132 525/525/132 526/526/132
f 527/527/133 528/528/133 529/529/133
f 530/530/134 531/531/134 532/532/134
f 533/533/135 534/534/135 535/535/135 536/536/135
f 537/537/136 538/538/136 539/539/136 540/540/136
f 541/541/137 542/542/137 543/543/137
f 544/544/138 545/545/138 546/546/138 547/547/138
f 548/548/139 549/549/139 550/550/139 551/551/139
f 552/552/140 553/553/140 554/554/140 555/555/140
f 556/556/141 557/557/141 558/558/141 559/559/141
f 560/560/142 561/561/142 562/562/142 563/563/142
f 564/564/143 565/565/143 566/566/143 567/567/143
f 568/568/144 569/569/144 570/570/144 571/571/144
f 572/572/145 573/573/145 574/574/145
f 575/575/146 576/576/146 577/577/146
f 578/578/147 579/579/147 580/580/147 581/581/147
f 582/582/148 583/583/148 584/584/148 585/585/148
f 586/586/149 587/587/149 588/588/149
