# Generated by tools/gen_obj_models.py - edit that, not this.
mtllib gargoyle_statue_lower.mtl
o gargoyle_statue_lower
v 0.262001 0.71327 0.498406
vt 0.15625 0.765625
v 0.716741 0.71327 0.498406
vt 0.09375 0.765625
v 0.716741 0.800281 0.708468
vt 0.09375 0.796875
v 0.262001 0.800281 0.708468
vt 0.15625 0.796875
vn 0 -0.923879 0.382684
v 0.716741 1 0.625742
vt 0 0.725024
v 0.716741 0.800281 0.708468
vt 0 0.695312
v 0.716741 0.71327 0.498406
vt 0.03125 0.695312
v 0.716741 1 0.379638
vt 0.03125 0.737968
vn 1 0 0
v 0.716741 1 0.379638
vt 0.03125 0.737968
v 0.716741 0.71327 0.498406
vt 0.03125 0.695312
v 0.262001 0.71327 0.498406
vt 0.09375 0.695312
v 0.262001 1 0.379638
vt 0.09375 0.737968
vn 0 -0.382684 -0.923879
v 0.262001 1 0.379638
vt 0.09375 0.737968
v 0.262001 0.71327 0.498406
vt 0.09375 0.695312
v 0.262001 0.800281 0.708468
vt 0.125 0.695312
v 0.262001 1 0.625742
vt 0.125 0.725024
vn -1 0 0
v 0.262001 1 0.625742
vt 0.125 0.725024
v 0.262001 0.800281 0.708468
vt 0.125 0.695312
v 0.716741 0.800281 0.708468
vt 0.1875 0.695312
v 0.716741 1 0.625742
vt 0.1875 0.725024
vn 0 0.382684 0.923879
v 0.722425 1 0.581633
vt 0.0390625 0.499798
v 0.722425 0.910094 0.364582
vt 0.0390625 0.46875
v 0.256317 0.910094 0.364582
vt 0.101562 0.46875
v 0.256317 1 0.581633
vt 0.101562 0.499798
vn 0 0.923879 -0.382684
v 0.256317 0.79456 0.412438
vt 0.164062 0.46875
v 0.722425 0.79456 0.412438
vt 0.101562 0.46875
v 0.722425 0.907674 0.685519
vt 0.101562 0.507812
v 0.256317 0.907674 0.685519
vt 0.164062 0.507812
vn 0 -0.923879 0.382684
v 0.722425 0.910094 0.364582
vt 0.0390625 0.46875
v 0.722425 1 0.581633
vt 0.00801473 0.46875
v 0.722425 1 0.647276
vt 0 0.465611
v 0.722425 0.907674 0.685519
vt 0 0.453125
vn 1 0 0
v 0.722425 0.910094 0.364582
vt 0.0390625 0.46875
v 0.722425 0.907674 0.685519
vt 0 0.453125
v 0.722425 0.79456 0.412438
vt 0.0390625 0.453125
vn 1 0 0
v 0.256317 0.910094 0.364582
vt 0.101562 0.46875
v 0.722425 0.910094 0.364582
vt 0.0390625 0.46875
v 0.722425 0.79456 0.412438
vt 0.0390625 0.453125
v 0.256317 0.79456 0.412438
vt 0.101562 0.453125
vn 0 -0.382684 -0.923879
v 0.256317 1 0.581633
vt 0.13261 0.46875
v 0.256317 0.910094 0.364582
vt 0.101562 0.46875
v 0.256317 0.79456 0.412438
vt 0.101562 0.453125
v 0.256317 0.907674 0.685519
vt 0.140625 0.453125
vn -1 0 0
v 0.256317 1 0.581633
vt 0.13261 0.46875
v 0.256317 0.907674 0.685519
vt 0.140625 0.453125
v 0.256317 1 0.647276
vt 0.140625 0.465611
vn -1 0 0
v 0.256317 1 0.647276
vt 0.140625 0.465611
v 0.256317 0.907674 0.685519
vt 0.140625 0.453125
v 0.722425 0.907674 0.685519
vt 0.203125 0.453125
v 0.722425 1 0.647276
vt 0.203125 0.465611
vn 0 0.382684 0.923879
v 0.347265 0.870075 0.427512
vt 0.460938 0.796875
v 0.631477 0.870075 0.427512
vt 0.421875 0.796875
v 0.631477 0.475582 0.479448
vt 0.421875 0.742188
v 0.347265 0.475582 0.479448
vt 0.460938 0.742188
vn 0 -0.130526 -0.991445
v 0.631477 0.870075 0.427512
vt 0.421875 0.796875
v 0.347265 0.870075 0.427512
vt 0.460938 0.796875
v 0.347265 0.475582 0.479448
vt 0.460938 0.742188
v 0.631477 0.475582 0.479448
vt 0.421875 0.742188
vn 0 0.130526 0.991445
v 0.617267 0.925533 0.514449
vt 0.484375 0.570312
v 0.503582 0.925533 0.514449
vt 0.46875 0.570312
v 0.503582 0.864453 0.418566
vt 0.46875 0.554688
v 0.617267 0.864453 0.418566
vt 0.484375 0.554688
vn 0 -0.843409 0.537273
v 0.503582 0.864453 0.418566
vt 0.453125 0.515625
v 0.503582 0.925533 0.514449
vt 0.4375 0.515625
v 0.503582 1 0.467012
vt 0.4375 0.52776
v 0.503582 1 0.33222
vt 0.453125 0.537714
vn -1 0 0
v 0.617267 0.864453 0.418566
vt 0.46875 0.515625
v 0.503582 0.864453 0.418566
vt 0.453125 0.515625
v 0.503582 1 0.33222
vt 0.453125 0.537714
v 0.617267 1 0.33222
vt 0.46875 0.537714
vn -0 -0.537273 -0.843409
v 0.617267 0.925533 0.514449
vt 0.484375 0.515625
v 0.617267 0.864453 0.418566
vt 0.46875 0.515625
v 0.617267 1 0.33222
vt 0.46875 0.537714
v 0.617267 1 0.467012
vt 0.484375 0.52776
vn 1 0 0
v 0.503582 0.925533 0.514449
vt 0.5 0.515625
v 0.617267 0.925533 0.514449
vt 0.484375 0.515625
v 0.617267 1 0.467012
vt 0.484375 0.52776
v 0.503582 1 0.467012
vt 0.5 0.52776
vn -0 0.537273 0.843409
v 0.361476 0.864453 0.418566
vt 0.484375 0.554688
v 0.475161 0.864453 0.418566
vt 0.46875 0.554688
v 0.475161 0.925533 0.514449
vt 0.46875 0.570312
v 0.361476 0.925533 0.514449
vt 0.484375 0.570312
vn 0 -0.843409 0.537273
v 0.475161 1 0.467012
vt 0.4375 0.52776
v 0.475161 0.925533 0.514449
vt 0.4375 0.515625
v 0.475161 0.864453 0.418566
vt 0.453125 0.515625
v 0.475161 1 0.33222
vt 0.453125 0.537714
vn 1 0 0
v 0.475161 1 0.33222
vt 0.453125 0.537714
v 0.475161 0.864453 0.418566
vt 0.453125 0.515625
v 0.361476 0.864453 0.418566
vt 0.46875 0.515625
v 0.361476 1 0.33222
vt 0.46875 0.537714
vn 0 -0.537273 -0.843409
v 0.361476 1 0.33222
vt 0.46875 0.537714
v 0.361476 0.864453 0.418566
vt 0.46875 0.515625
v 0.361476 0.925533 0.514449
vt 0.484375 0.515625
v 0.361476 1 0.467012
vt 0.484375 0.52776
vn -1 0 0
v 0.361476 1 0.467012
vt 0.484375 0.52776
v 0.361476 0.925533 0.514449
vt 0.484375 0.515625
v 0.475161 0.925533 0.514449
vt 0.5 0.515625
v 0.475161 1 0.467012
vt 0.5 0.52776
vn 0 0.537273 0.843409
v 0.0653586 1 0.335316
vt 0.0312055 0.617188
v 0.121394 0.995258 0.329665
vt 0.0234375 0.617188
v 0.121227 1 0.324031
vt 0.0234375 0.616175
vn 0.128544 0.760585 0.636386
v -0.102687 0.816715 -0.0369301
vt 0.0703125 0.59375
v 0.0663817 0.802408 -0.0539814
vt 0.046875 0.59375
v 0.070246 0.692623 0.0764487
vt 0.046875 0.617188
v -0.0988225 0.70693 0.0935
vt 0.0703125 0.617188
vn -0.128544 -0.760585 -0.636386
v 0.121227 1 0.324031
vt 0.0010123 0.59375
v 0.121394 0.995258 0.329665
vt 0 0.59375
v 0.070246 0.692623 0.0764487
vt 0 0.539062
v 0.0663817 0.802408 -0.0539814
vt 0.0234375 0.539062
vn 0.991445 -0.083898 -0.099992
v 0.121227 1 0.324031
vt 0.0010123 0.59375
v 0.0663817 0.802408 -0.0539814
vt 0.0234375 0.539062
v 0.0997762 1 0.111345
vt 0.0234375 0.574768
vn 0.991445 -0.083898 -0.099992
v 0.0997762 1 0.111345
vt 0.0234375 0.574768
v 0.0663817 0.802408 -0.0539814
vt 0.0234375 0.539062
v -0.102687 0.816715 -0.0369301
vt 0.046875 0.539062
v -0.0717104 1 0.116426
vt 0.046875 0.572183
vn -0.022661 0.643795 -0.764863
v -0.0717104 1 0.116426
vt 0.046875 0.572183
v -0.102687 0.816715 -0.0369301
vt 0.046875 0.539062
v -0.0988225 0.70693 0.0935
vt 0.0703125 0.539062
v -0.0492916 1 0.338713
vt 0.0703125 0.592022
vn -0.991445 0.083898 0.099992
v 0.121394 0.995258 0.329665
vt 0.09375 0.59375
v 0.0653586 1 0.335316
vt 0.085982 0.59375
v -0.0492916 1 0.338713
vt 0.0703125 0.592022
v -0.0988225 0.70693 0.0935
vt 0.0703125 0.539062
vn 0.022661 -0.643795 0.764863
v 0.121394 0.995258 0.329665
vt 0.09375 0.59375
v -0.0988225 0.70693 0.0935
vt 0.0703125 0.539062
v 0.070246 0.692623 0.0764487
vt 0.09375 0.539062
vn 0.022661 -0.643795 0.764863
v 0.0179764 0.832113 0.00961444
vt 0.21875 0.539062
v 0.186957 0.851863 0.0212315
vt 0.195312 0.539062
v 0.209542 0.722879 -0.0880051
vt 0.195312 0.515625
v 0.0405612 0.703129 -0.0996222
vt 0.21875 0.515625
vn -0.022661 0.643795 -0.764863
v 0.186957 0.851863 0.0212315
vt 0.195312 0.539062
v 0.0179764 0.832113 0.00961444
vt 0.21875 0.539062
v 0.0405612 0.703129 -0.0996222
vt 0.21875 0.515625
v 0.209542 0.722879 -0.0880051
vt 0.195312 0.515625
vn 0.022661 -0.643795 0.764863
v -0.182086 0.697672 0.108074
vt 0.164062 0.539062
v -0.0364477 0.78199 0.0805133
vt 0.140625 0.539062
v 0.015132 0.658393 -0.0250476
vt 0.140625 0.515625
v -0.130507 0.574076 0.00251326
vt 0.164062 0.515625
vn -0.423219 0.479791 -0.768561
v -0.0364477 0.78199 0.0805133
vt 0.140625 0.539062
v -0.182086 0.697672 0.108074
vt 0.164062 0.539062
v -0.130507 0.574076 0.00251326
vt 0.164062 0.515625
v 0.015132 0.658393 -0.0250476
vt 0.140625 0.515625
vn 0.423219 -0.479791 0.768561
v -0.173029 0.803705 -0.0656962
vt 0.164062 0.539062
v -0.0377358 0.818585 0.0370366
vt 0.140625 0.539062
v 0.0477963 0.706977 -0.0594392
vt 0.140625 0.515625
v -0.0874967 0.692097 -0.162172
vt 0.164062 0.515625
vn 0.344924 0.751023 -0.563021
v -0.0377358 0.818585 0.0370366
vt 0.140625 0.539062
v -0.173029 0.803705 -0.0656962
vt 0.164062 0.539062
v -0.0874967 0.692097 -0.162172
vt 0.164062 0.515625
v 0.0477963 0.706977 -0.0594392
vt 0.140625 0.515625
vn -0.344924 -0.751023 0.563021
v 0.857516 1 0.324031
vt 0.0234375 0.616175
v 0.857349 0.995258 0.329665
vt 0.0234375 0.617188
v 0.913384 1 0.335316
vt 0.0312055 0.617188
vn -0.128544 0.760585 0.636386
v 1.07757 0.70693 0.0935
vt 0.0703125 0.617188
v 0.908496 0.692623 0.0764487
vt 0.046875 0.617188
v 0.912361 0.802408 -0.0539814
vt 0.046875 0.59375
v 1.08143 0.816715 -0.0369301
vt 0.0703125 0.59375
vn 0.128544 -0.760585 -0.636386
v 0.912361 0.802408 -0.0539814
vt 0.0234375 0.539062
v 0.908496 0.692623 0.0764487
vt 0 0.539062
v 0.857349 0.995258 0.329665
vt 0 0.59375
v 0.857516 1 0.324031
vt 0.0010123 0.59375
vn -0.991445 -0.083898 -0.099992
v 0.912361 0.802408 -0.0539814
vt 0.0234375 0.539062
v 0.857516 1 0.324031
vt 0.0010123 0.59375
v 0.878966 1 0.111345
vt 0.0234375 0.574768
vn -0.991445 -0.083898 -0.099992
v 1.08143 0.816715 -0.0369301
vt 0.046875 0.539062
v 0.912361 0.802408 -0.0539814
vt 0.0234375 0.539062
v 0.878966 1 0.111345
vt 0.0234375 0.574768
v 1.05045 1 0.116426
vt 0.046875 0.572183
vn 0.022661 0.643795 -0.764863
v 1.07757 0.70693 0.0935
vt 0.0703125 0.539062
v 1.08143 0.816715 -0.0369301
vt 0.046875 0.539062
v 1.05045 1 0.116426
vt 0.046875 0.572183
v 1.02803 1 0.338713
vt 0.0703125 0.592022
vn 0.991445 0.083898 0.099992
v 0.908496 0.692623 0.0764487
vt 0.09375 0.539062
v 1.07757 0.70693 0.0935
vt 0.0703125 0.539062
v 1.02803 1 0.338713
vt 0.0703125 0.592022
v 0.913384 1 0.335316
vt 0.085982 0.59375
vn -0.022661 -0.643795 0.764863
v 0.908496 0.692623 0.0764487
vt 0.09375 0.539062
v 0.913384 1 0.335316
vt 0.085982 0.59375
v 0.857349 0.995258 0.329665
vt 0.09375 0.59375
vn -0.022661 -0.643795 0.764863
v 1.0257 0.710535 -0.0907958
vt 0.21875 0.515625
v 0.868064 0.663146 -0.135354
vt 0.195312 0.515625
v 0.803132 0.784725 -0.0349433
vt 0.195312 0.539062
v 0.960766 0.832113 0.00961444
vt 0.21875 0.539062
vn 0.022661 0.643795 -0.764863
v 0.868064 0.663146 -0.135354
vt 0.195312 0.515625
v 1.0257 0.710535 -0.0907958
vt 0.21875 0.515625
v 0.960766 0.832113 0.00961444
vt 0.21875 0.539062
v 0.803132 0.784725 -0.0349433
vt 0.195312 0.539062
vn -0.022661 -0.643795 0.764863
v 1.14412 0.588712 0.0158661
vt 0.164062 0.515625
v 0.992605 0.653006 -0.0287234
vt 0.140625 0.515625
v 1.01519 0.78199 0.0805133
vt 0.140625 0.539062
v 1.16671 0.717696 0.125103
vt 0.164062 0.539062
vn 0.439295 0.534543 -0.722
v 0.992605 0.653006 -0.0287234
vt 0.140625 0.515625
v 1.14412 0.588712 0.0158661
vt 0.164062 0.515625
v 1.16671 0.717696 0.125103
vt 0.164062 0.539062
v 1.01519 0.78199 0.0805133
vt 0.140625 0.539062
vn -0.439295 -0.534543 0.722
v 1.03646 0.689198 -0.165495
vt 0.164062 0.515625
v 0.912429 0.716756 -0.0517565
vt 0.140625 0.515625
v 1.01648 0.818585 0.0370366
vt 0.140625 0.539062
v 1.14051 0.791026 -0.0767019
vt 0.164062 0.539062
vn -0.314132 0.78569 -0.532928
v 0.912429 0.716756 -0.0517565
vt 0.140625 0.515625
v 1.03646 0.689198 -0.165495
vt 0.164062 0.515625
v 1.14051 0.791026 -0.0767019
vt 0.164062 0.539062
v 1.01648 0.818585 0.0370366
vt 0.140625 0.539062
vn 0.314132 -0.78569 0.532928
v 0.404108 0.922307 0.660455
vt 0.195312 0.632812
v 0.574635 0.922307 0.660455
vt 0.171875 0.632812
v 0.574635 0.801726 0.539874
vt 0.171875 0.609375
v 0.404108 0.801726 0.539874
vt 0.195312 0.609375
vn 0 0.707105 -0.707108
v 0.404108 0.480177 0.861425
vt 0.21875 0.609375
v 0.574635 0.480177 0.861425
vt 0.195312 0.609375
v 0.574635 0.600758 0.982006
vt 0.195312 0.632812
v 0.404108 0.600758 0.982006
vt 0.21875 0.632812
vn 0 -0.707105 0.707108
v 0.574635 0.801726 0.539874
vt 0.171875 0.609375
v 0.574635 0.922307 0.660455
vt 0.148438 0.609375
v 0.574635 0.600758 0.982006
vt 0.148438 0.546875
v 0.574635 0.480177 0.861425
vt 0.171875 0.546875
vn 1 0 -0
v 0.404108 0.801726 0.539874
vt 0.195312 0.609375
v 0.574635 0.801726 0.539874
vt 0.171875 0.609375
v 0.574635 0.480177 0.861425
vt 0.171875 0.546875
v 0.404108 0.480177 0.861425
vt 0.195312 0.546875
vn 0 -0.707108 -0.707105
v 0.404108 0.922307 0.660455
vt 0.21875 0.609375
v 0.404108 0.801726 0.539874
vt 0.195312 0.609375
v 0.404108 0.480177 0.861425
vt 0.195312 0.546875
v 0.404108 0.600758 0.982006
vt 0.21875 0.546875
vn -1 -0 0
v 0.574635 0.922307 0.660455
vt 0.242188 0.609375
v 0.404108 0.922307 0.660455
vt 0.21875 0.609375
v 0.404108 0.600758 0.982006
vt 0.21875 0.546875
v 0.574635 0.600758 0.982006
vt 0.242188 0.546875
vn 0 0.707108 0.707105
v 0.432529 0.609252 0.92284
vt 0.398438 0.570312
v 0.546214 0.609252 0.92284
vt 0.382812 0.570312
v 0.546214 0.513369 0.861761
vt 0.382812 0.554688
v 0.432529 0.513369 0.861761
vt 0.398438 0.554688
vn 0 0.53727 -0.843411
v 0.432529 0.29959 1.19735
vt 0.414062 0.554688
v 0.546214 0.29959 1.19735
vt 0.398438 0.554688
v 0.546214 0.395474 1.25843
vt 0.398438 0.570312
v 0.432529 0.395474 1.25843
vt 0.414062 0.570312
vn 0 -0.53727 0.843411
v 0.546214 0.513369 0.861761
vt 0.382812 0.554688
v 0.546214 0.609252 0.92284
vt 0.367188 0.554688
v 0.546214 0.395474 1.25843
vt 0.367188 0.5
v 0.546214 0.29959 1.19735
vt 0.382812 0.5
vn 1 0 -0
v 0.432529 0.513369 0.861761
vt 0.398438 0.554688
v 0.546214 0.513369 0.861761
vt 0.382812 0.554688
v 0.546214 0.29959 1.19735
vt 0.382812 0.5
v 0.432529 0.29959 1.19735
vt 0.398438 0.5
vn 0 -0.843411 -0.53727
v 0.432529 0.609252 0.92284
vt 0.414062 0.554688
v 0.432529 0.513369 0.861761
vt 0.398438 0.554688
v 0.432529 0.29959 1.19735
vt 0.398438 0.5
v 0.432529 0.395474 1.25843
vt 0.414062 0.5
vn -1 -0 0
v 0.546214 0.609252 0.92284
vt 0.429688 0.554688
v 0.432529 0.609252 0.92284
vt 0.414062 0.554688
v 0.432529 0.395474 1.25843
vt 0.414062 0.5
v 0.546214 0.395474 1.25843
vt 0.429688 0.5
vn 0 0.843411 0.53727
v 0.896688 0.748976 0.156449
vt 0.28125 0.664062
v 0.730204 0.739422 0.120793
vt 0.257812 0.664062
v 0.63214 0.892186 0.537728
vt 0.257812 0.726562
v 0.798624 0.90174 0.573384
vt 0.28125 0.726562
vn 0.018874 0.940216 -0.340055
v 0.795406 0.741408 0.631373
vt 0.304688 0.726562
v 0.628922 0.731854 0.595717
vt 0.28125 0.726562
v 0.726986 0.579089 0.178781
vt 0.28125 0.664062
v 0.89347 0.588643 0.214438
vt 0.304688 0.664062
vn -0.018874 -0.940216 0.340055
v 0.726986 0.579089 0.178781
vt 0.257812 0.640625
v 0.628922 0.731854 0.595717
vt 0.195312 0.640625
v 0.63214 0.892186 0.537728
vt 0.195312 0.664062
v 0.730204 0.739422 0.120793
vt 0.257812 0.664062
vn -0.976289 -0.056027 -0.209096
v 0.89347 0.588643 0.214438
vt 0.28125 0.640625
v 0.726986 0.579089 0.178781
vt 0.257812 0.640625
v 0.730204 0.739422 0.120793
vt 0.257812 0.664062
v 0.896688 0.748976 0.156449
vt 0.28125 0.664062
vn 0.215648 -0.335939 -0.916865
v 0.795406 0.741408 0.631373
vt 0.34375 0.640625
v 0.89347 0.588643 0.214438
vt 0.28125 0.640625
v 0.896688 0.748976 0.156449
vt 0.28125 0.664062
v 0.798624 0.90174 0.573384
vt 0.34375 0.664062
vn 0.976289 0.056027 0.209096
v 0.628922 0.731854 0.595717
vt 0.367188 0.640625
v 0.795406 0.741408 0.631373
vt 0.34375 0.640625
v 0.798624 0.90174 0.573384
vt 0.34375 0.664062
v 0.63214 0.892186 0.537728
vt 0.367188 0.664062
vn -0.215648 0.335939 0.916865
v 0.885153 0.600242 0.222976
vt 0.445312 0.617188
v 0.729768 0.591325 0.189697
vt 0.421875 0.617188
v 0.696131 0.663868 0.327311
vt 0.421875 0.640625
v 0.851516 0.672785 0.360591
vt 0.445312 0.640625
vn 0.04686 0.888323 -0.456821
v 0.838731 0.430411 0.485232
vt 0.46875 0.640625
v 0.683346 0.421494 0.451952
vt 0.445312 0.640625
v 0.716982 0.348951 0.314338
vt 0.445312 0.617188
v 0.872367 0.357868 0.347617
vt 0.46875 0.617188
vn -0.04686 -0.888323 0.456821
v 0.716982 0.348951 0.314338
vt 0.421875 0.578125
v 0.683346 0.421494 0.451952
vt 0.398438 0.578125
v 0.696131 0.663868 0.327311
vt 0.398438 0.617188
v 0.729768 0.591325 0.189697
vt 0.421875 0.617188
vn -0.976289 -0.056027 -0.209096
v 0.872367 0.357868 0.347617
vt 0.445312 0.578125
v 0.716982 0.348951 0.314338
vt 0.421875 0.578125
v 0.729768 0.591325 0.189697
vt 0.421875 0.617188
v 0.885153 0.600242 0.222976
vt 0.445312 0.617188
vn 0.21134 -0.455788 -0.864635
v 0.838731 0.430411 0.485232
vt 0.46875 0.578125
v 0.872367 0.357868 0.347617
vt 0.445312 0.578125
v 0.885153 0.600242 0.222976
vt 0.445312 0.617188
v 0.851516 0.672785 0.360591
vt 0.46875 0.617188
vn 0.976289 0.056027 0.209096
v 0.683346 0.421494 0.451952
vt 0.492188 0.578125
v 0.838731 0.430411 0.485232
vt 0.46875 0.578125
v 0.851516 0.672785 0.360591
vt 0.46875 0.617188
v 0.696131 0.663868 0.327311
vt 0.492188 0.617188
vn -0.21134 0.455788 0.864635
v 0.792584 0.247635 0.233157
vt 0.484375 0.9375
v 0.848079 0.250819 0.245042
vt 0.476562 0.9375
v 0.883285 0.25925 0.0784019
vt 0.476562 0.914062
v 0.827791 0.256065 0.0665163
vt 0.484375 0.914062
vn -0.065088 0.997204 0.0367
v 0.83149 0.199382 0.0644302
vt 0.492188 0.914062
v 0.886985 0.202567 0.0763158
vt 0.484375 0.914062
v 0.851779 0.194136 0.242956
vt 0.484375 0.9375
v 0.796284 0.190951 0.231071
vt 0.492188 0.9375
vn 0.065088 -0.997204 -0.0367
v 0.883285 0.25925 0.0784019
vt 0.476562 0.914062
v 0.848079 0.250819 0.245042
vt 0.453125 0.914062
v 0.851779 0.194136 0.242956
vt 0.453125 0.90625
v 0.886985 0.202567 0.0763158
vt 0.476562 0.90625
vn 0.976289 0.056027 0.209096
v 0.827791 0.256065 0.0665163
vt 0.484375 0.914062
v 0.883285 0.25925 0.0784019
vt 0.476562 0.914062
v 0.886985 0.202567 0.0763158
vt 0.476562 0.90625
v 0.83149 0.199382 0.0644302
vt 0.484375 0.90625
vn 0.206456 0.049439 -0.977206
v 0.792584 0.247635 0.233157
vt 0.507812 0.914062
v 0.827791 0.256065 0.0665163
vt 0.484375 0.914062
v 0.83149 0.199382 0.0644302
vt 0.484375 0.90625
v 0.796284 0.190951 0.231071
vt 0.507812 0.90625
vn -0.976289 -0.056027 -0.209096
v 0.848079 0.250819 0.245042
vt 0.515625 0.914062
v 0.792584 0.247635 0.233157
vt 0.507812 0.914062
v 0.796284 0.190951 0.231071
vt 0.507812 0.90625
v 0.851779 0.194136 0.242956
vt 0.515625 0.90625
vn -0.206456 -0.049439 0.977206
v 0.736477 0.244184 0.227424
vt 0.484375 0.9375
v 0.793197 0.247901 0.227004
vt 0.476562 0.9375
v 0.791529 0.254064 0.0565958
vt 0.476562 0.914062
v 0.73481 0.250346 0.0570164
vt 0.484375 0.914062
vn -0.065088 0.997204 0.0367
v 0.738509 0.193663 0.0549303
vt 0.492188 0.914062
v 0.795229 0.19738 0.0545097
vt 0.484375 0.914062
v 0.796896 0.191218 0.224918
vt 0.484375 0.9375
v 0.740177 0.1875 0.225338
vt 0.492188 0.9375
vn 0.065088 -0.997204 -0.0367
v 0.791529 0.254064 0.0565958
vt 0.476562 0.914062
v 0.793197 0.247901 0.227004
vt 0.453125 0.914062
v 0.796896 0.191218 0.224918
vt 0.453125 0.90625
v 0.795229 0.19738 0.0545097
vt 0.476562 0.90625
vn 0.997832 0.065401 -0.0074
v 0.73481 0.250346 0.0570164
vt 0.484375 0.914062
v 0.791529 0.254064 0.0565958
vt 0.476562 0.914062
v 0.795229 0.19738 0.0545097
vt 0.476562 0.90625
v 0.738509 0.193663 0.0549303
vt 0.484375 0.90625
vn -0.009779 0.036139 -0.999299
v 0.736477 0.244184 0.227424
vt 0.507812 0.914062
v 0.73481 0.250346 0.0570164
vt 0.484375 0.914062
v 0.738509 0.193663 0.0549303
vt 0.484375 0.90625
v 0.740177 0.1875 0.225338
vt 0.507812 0.90625
vn -0.997832 -0.065401 0.0074
v 0.793197 0.247901 0.227004
vt 0.515625 0.914062
v 0.736477 0.244184 0.227424
vt 0.507812 0.914062
v 0.740177 0.1875 0.225338
vt 0.507812 0.90625
v 0.796896 0.191218 0.224918
vt 0.515625 0.90625
vn 0.009779 -0.036139 0.999299
v 0.850007 0.251161 0.239171
vt 0.484375 0.9375
v 0.901645 0.253662 0.262799
vt 0.476562 0.9375
v 0.972056 0.263961 0.107829
vt 0.476562 0.914062
v 0.920418 0.26146 0.0842006
vt 0.484375 0.914062
vn -0.065088 0.997204 0.0367
v 0.924118 0.204777 0.0821144
vt 0.492188 0.914062
v 0.975756 0.207278 0.105743
vt 0.484375 0.914062
v 0.905345 0.196979 0.260713
vt 0.484375 0.9375
v 0.853707 0.194478 0.237085
vt 0.492188 0.9375
vn 0.065088 -0.997204 -0.0367
v 0.972056 0.263961 0.107829
vt 0.476562 0.914062
v 0.901645 0.253662 0.262799
vt 0.453125 0.914062
v 0.905345 0.196979 0.260713
vt 0.453125 0.90625
v 0.975756 0.207278 0.105743
vt 0.476562 0.90625
vn 0.908448 0.043997 0.415677
v 0.920418 0.26146 0.0842006
vt 0.484375 0.914062
v 0.972056 0.263961 0.107829
vt 0.476562 0.914062
v 0.975756 0.207278 0.105743
vt 0.476562 0.90625
v 0.924118 0.204777 0.0821144
vt 0.484375 0.90625
vn 0.4129 0.060395 -0.908772
v 0.850007 0.251161 0.239171
vt 0.507812 0.914062
v 0.920418 0.26146 0.0842006
vt 0.484375 0.914062
v 0.924118 0.204777 0.0821144
vt 0.484375 0.90625
v 0.853707 0.194478 0.237085
vt 0.507812 0.90625
vn -0.908448 -0.043997 -0.415677
v 0.901645 0.253662 0.262799
vt 0.515625 0.914062
v 0.850007 0.251161 0.239171
vt 0.507812 0.914062
v 0.853707 0.194478 0.237085
vt 0.507812 0.90625
v 0.905345 0.196979 0.260713
vt 0.515625 0.90625
vn -0.4129 -0.060395 0.908772
v 0.900489 0.289204 0.207528
vt 0.0703125 0.640625
v 0.756203 0.280924 0.176626
vt 0.046875 0.640625
v 0.690486 0.450111 0.438128
vt 0.046875 0.6875
v 0.834773 0.458391 0.46903
vt 0.0703125 0.6875
vn 0.065108 0.845201 -0.530468
v 0.828851 0.381522 0.517275
vt 0.09375 0.6875
v 0.684565 0.373242 0.486373
vt 0.0703125 0.6875
v 0.750281 0.204054 0.224871
vt 0.0703125 0.640625
v 0.894568 0.212335 0.255773
vt 0.09375 0.640625
vn -0.065108 -0.845201 0.530468
v 0.750281 0.204054 0.224871
vt 0.046875 0.625
v 0.684565 0.373242 0.486373
vt 0 0.625
v 0.690486 0.450111 0.438128
vt 0 0.640625
v 0.756203 0.280924 0.176626
vt 0.046875 0.640625
vn -0.976289 -0.056027 -0.209096
v 0.894568 0.212335 0.255773
vt 0.0703125 0.625
v 0.750281 0.204054 0.224871
vt 0.046875 0.625
v 0.756203 0.280924 0.176626
vt 0.046875 0.640625
v 0.900489 0.289204 0.207528
vt 0.0703125 0.640625
vn 0.206449 -0.531504 -0.821512
v 0.828851 0.381522 0.517275
vt 0.117188 0.625
v 0.894568 0.212335 0.255773
vt 0.0703125 0.625
v 0.900489 0.289204 0.207528
vt 0.0703125 0.640625
v 0.834773 0.458391 0.46903
vt 0.117188 0.640625
vn 0.976289 0.056027 0.209096
v 0.684565 0.373242 0.486373
vt 0.140625 0.625
v 0.828851 0.381522 0.517275
vt 0.117188 0.625
v 0.834773 0.458391 0.46903
vt 0.117188 0.640625
v 0.690486 0.450111 0.438128
vt 0.140625 0.640625
vn -0.206449 0.531504 0.821512
v 0.180118 0.90174 0.573384
vt 0.28125 0.726562
v 0.346602 0.892186 0.537728
vt 0.257812 0.726562
v 0.248538 0.739422 0.120793
vt 0.257812 0.664062
v 0.0820544 0.748976 0.156449
vt 0.28125 0.664062
vn -0.018874 0.940216 -0.340055
v 0.085273 0.588643 0.214438
vt 0.304688 0.664062
v 0.251757 0.579089 0.178781
vt 0.28125 0.664062
v 0.349821 0.731854 0.595717
vt 0.28125 0.726562
v 0.183337 0.741408 0.631373
vt 0.304688 0.726562
vn 0.018874 -0.940216 0.340055
v 0.248538 0.739422 0.120793
vt 0.257812 0.664062
v 0.346602 0.892186 0.537728
vt 0.195312 0.664062
v 0.349821 0.731854 0.595717
vt 0.195312 0.640625
v 0.251757 0.579089 0.178781
vt 0.257812 0.640625
vn 0.976289 -0.056027 -0.209096
v 0.0820544 0.748976 0.156449
vt 0.28125 0.664062
v 0.248538 0.739422 0.120793
vt 0.257812 0.664062
v 0.251757 0.579089 0.178781
vt 0.257812 0.640625
v 0.085273 0.588643 0.214438
vt 0.28125 0.640625
vn -0.215648 -0.335939 -0.916865
v 0.180118 0.90174 0.573384
vt 0.34375 0.664062
v 0.0820544 0.748976 0.156449
vt 0.28125 0.664062
v 0.085273 0.588643 0.214438
vt 0.28125 0.640625
v 0.183337 0.741408 0.631373
vt 0.34375 0.640625
vn -0.976289 0.056027 0.209096
v 0.346602 0.892186 0.537728
vt 0.367188 0.664062
v 0.180118 0.90174 0.573384
vt 0.34375 0.664062
v 0.183337 0.741408 0.631373
vt 0.34375 0.640625
v 0.349821 0.731854 0.595717
vt 0.367188 0.640625
vn 0.215648 0.335939 0.916865
v 0.127226 0.672785 0.360591
vt 0.445312 0.640625
v 0.282611 0.663868 0.327311
vt 0.421875 0.640625
v 0.248975 0.591325 0.189697
vt 0.421875 0.617188
v 0.0935895 0.600242 0.222976
vt 0.445312 0.617188
vn -0.04686 0.888323 -0.456821
v 0.106375 0.357868 0.347617
vt 0.46875 0.617188
v 0.26176 0.348951 0.314338
vt 0.445312 0.617188
v 0.295397 0.421494 0.451952
vt 0.445312 0.640625
v 0.140012 0.430411 0.485232
vt 0.46875 0.640625
vn 0.04686 -0.888323 0.456821
v 0.248975 0.591325 0.189697
vt 0.421875 0.617188
v 0.282611 0.663868 0.327311
vt 0.398438 0.617188
v 0.295397 0.421494 0.451952
vt 0.398438 0.578125
v 0.26176 0.348951 0.314338
vt 0.421875 0.578125
vn 0.976289 -0.056027 -0.209096
v 0.0935895 0.600242 0.222976
vt 0.445312 0.617188
v 0.248975 0.591325 0.189697
vt 0.421875 0.617188
v 0.26176 0.348951 0.314338
vt 0.421875 0.578125
v 0.106375 0.357868 0.347617
vt 0.445312 0.578125
vn -0.21134 -0.455788 -0.864635
v 0.127226 0.672785 0.360591
vt 0.46875 0.617188
v 0.0935895 0.600242 0.222976
vt 0.445312 0.617188
v 0.106375 0.357868 0.347617
vt 0.445312 0.578125
v 0.140012 0.430411 0.485232
vt 0.46875 0.578125
vn -0.976289 0.056027 0.209096
v 0.282611 0.663868 0.327311
vt 0.492188 0.617188
v 0.127226 0.672785 0.360591
vt 0.46875 0.617188
v 0.140012 0.430411 0.485232
vt 0.46875 0.578125
v 0.295397 0.421494 0.451952
vt 0.492188 0.578125
vn 0.21134 0.455788 0.864635
v 0.130664 0.250819 0.245042
vt 0.484375 0.9375
v 0.186158 0.247635 0.233157
vt 0.476562 0.9375
v 0.150952 0.256065 0.0665163
vt 0.476562 0.914062
v 0.0954572 0.25925 0.0784019
vt 0.484375 0.914062
vn 0.065088 0.997204 0.0367
v 0.0917574 0.202567 0.0763158
vt 0.492188 0.914062
v 0.147252 0.199382 0.0644302
vt 0.484375 0.914062
v 0.182458 0.190951 0.231071
vt 0.484375 0.9375
v 0.126964 0.194136 0.242956
vt 0.492188 0.9375
vn -0.065088 -0.997204 -0.0367
v 0.150952 0.256065 0.0665163
vt 0.476562 0.914062
v 0.186158 0.247635 0.233157
vt 0.453125 0.914062
v 0.182458 0.190951 0.231071
vt 0.453125 0.90625
v 0.147252 0.199382 0.0644302
vt 0.476562 0.90625
vn 0.976289 -0.056027 -0.209096
v 0.0954572 0.25925 0.0784019
vt 0.484375 0.914062
v 0.150952 0.256065 0.0665163
vt 0.476562 0.914062
v 0.147252 0.199382 0.0644302
vt 0.476562 0.90625
v 0.0917574 0.202567 0.0763158
vt 0.484375 0.90625
vn -0.206456 0.049439 -0.977206
v 0.130664 0.250819 0.245042
vt 0.507812 0.914062
v 0.0954572 0.25925 0.0784019
vt 0.484375 0.914062
v 0.0917574 0.202567 0.0763158
vt 0.484375 0.90625
v 0.126964 0.194136 0.242956
vt 0.507812 0.90625
vn -0.976289 0.056027 0.209096
v 0.186158 0.247635 0.233157
vt 0.515625 0.914062
v 0.130664 0.250819 0.245042
vt 0.507812 0.914062
v 0.126964 0.194136 0.242956
vt 0.507812 0.90625
v 0.182458 0.190951 0.231071
vt 0.515625 0.90625
vn 0.206456 -0.049439 0.977206
v 0.077097 0.253662 0.262799
vt 0.484375 0.9375
v 0.128735 0.251161 0.239171
vt 0.476562 0.9375
v 0.0583246 0.26146 0.0842006
vt 0.476562 0.914062
v 0.00668619 0.263961 0.107829
vt 0.484375 0.914062
vn 0.065088 0.997204 0.0367
v 0.00298643 0.207278 0.105743
vt 0.492188 0.914062
v 0.0546249 0.204777 0.0821144
vt 0.484375 0.914062
v 0.125036 0.194478 0.237085
vt 0.484375 0.9375
v 0.0733973 0.196979 0.260713
vt 0.492188 0.9375
vn -0.065088 -0.997204 -0.0367
v 0.0583246 0.26146 0.0842006
vt 0.476562 0.914062
v 0.128735 0.251161 0.239171
vt 0.453125 0.914062
v 0.125036 0.194478 0.237085
vt 0.453125 0.90625
v 0.0546249 0.204777 0.0821144
vt 0.476562 0.90625
vn 0.908448 -0.043997 -0.415677
v 0.00668619 0.263961 0.107829
vt 0.484375 0.914062
v 0.0583246 0.26146 0.0842006
vt 0.476562 0.914062
v 0.0546249 0.204777 0.0821144
vt 0.476562 0.90625
v 0.00298643 0.207278 0.105743
vt 0.484375 0.90625
vn -0.4129 0.060395 -0.908772
v 0.077097 0.253662 0.262799
vt 0.507812 0.914062
v 0.00668619 0.263961 0.107829
vt 0.484375 0.914062
v 0.00298643 0.207278 0.105743
vt 0.484375 0.90625
v 0.0733973 0.196979 0.260713
vt 0.507812 0.90625
vn -0.908448 0.043997 0.415677
v 0.128735 0.251161 0.239171
vt 0.515625 0.914062
v 0.077097 0.253662 0.262799
vt 0.507812 0.914062
v 0.0733973 0.196979 0.260713
vt 0.507812 0.90625
v 0.125036 0.194478 0.237085
vt 0.515625 0.90625
vn 0.4129 -0.060395 0.908772
v 0.185546 0.247901 0.227004
vt 0.484375 0.9375
v 0.242265 0.244184 0.227424
vt 0.476562 0.9375
v 0.243933 0.250346 0.0570164
vt 0.476562 0.914062
v 0.187214 0.254064 0.0565958
vt 0.484375 0.914062
vn 0.065088 0.997204 0.0367
v 0.183514 0.19738 0.0545097
vt 0.492188 0.914062
v 0.240233 0.193663 0.0549303
vt 0.484375 0.914062
v 0.238565 0.1875 0.225338
vt 0.484375 0.9375
v 0.181846 0.191218 0.224918
vt 0.492188 0.9375
vn -0.065088 -0.997204 -0.0367
v 0.243933 0.250346 0.0570164
vt 0.476562 0.914062
v 0.242265 0.244184 0.227424
vt 0.453125 0.914062
v 0.238565 0.1875 0.225338
vt 0.453125 0.90625
v 0.240233 0.193663 0.0549303
vt 0.476562 0.90625
vn 0.997832 -0.065401 0.0074
v 0.187214 0.254064 0.0565958
vt 0.484375 0.914062
v 0.243933 0.250346 0.0570164
vt 0.476562 0.914062
v 0.240233 0.193663 0.0549303
vt 0.476562 0.90625
v 0.183514 0.19738 0.0545097
vt 0.484375 0.90625
vn 0.009779 0.036139 -0.999299
v 0.185546 0.247901 0.227004
vt 0.507812 0.914062
v 0.187214 0.254064 0.0565958
vt 0.484375 0.914062
v 0.183514 0.19738 0.0545097
vt 0.484375 0.90625
v 0.181846 0.191218 0.224918
vt 0.507812 0.90625
vn -0.997832 0.065401 -0.0074
v 0.242265 0.244184 0.227424
vt 0.515625 0.914062
v 0.185546 0.247901 0.227004
vt 0.507812 0.914062
v 0.181846 0.191218 0.224918
vt 0.507812 0.90625
v 0.238565 0.1875 0.225338
vt 0.515625 0.90625
vn -0.009779 -0.036139 0.999299
v 0.14397 0.458391 0.46903
vt 0.0703125 0.6875
v 0.288256 0.450111 0.438128
vt 0.046875 0.6875
v 0.22254 0.280924 0.176626
vt 0.046875 0.640625
v 0.0782534 0.289204 0.207528
vt 0.0703125 0.640625
vn -0.065108 0.845201 -0.530468
v 0.0841749 0.212335 0.255773
vt 0.09375 0.640625
v 0.228461 0.204054 0.224871
vt 0.0703125 0.640625
v 0.294178 0.373242 0.486373
vt 0.0703125 0.6875
v 0.149891 0.381522 0.517275
vt 0.09375 0.6875
vn 0.065108 -0.845201 0.530468
v 0.22254 0.280924 0.176626
vt 0.046875 0.640625
v 0.288256 0.450111 0.438128
vt 0 0.640625
v 0.294178 0.373242 0.486373
vt 0 0.625
v 0.228461 0.204054 0.224871
vt 0.046875 0.625
vn 0.976289 -0.056027 -0.209096
v 0.0782534 0.289204 0.207528
vt 0.0703125 0.640625
v 0.22254 0.280924 0.176626
vt 0.046875 0.640625
v 0.228461 0.204054 0.224871
vt 0.046875 0.625
v 0.0841749 0.212335 0.255773
vt 0.0703125 0.625
vn -0.206449 -0.531504 -0.821512
v 0.14397 0.458391 0.46903
vt 0.117188 0.640625
v 0.0782534 0.289204 0.207528
vt 0.0703125 0.640625
v 0.0841749 0.212335 0.255773
vt 0.0703125 0.625
v 0.149891 0.381522 0.517275
vt 0.117188 0.625
vn -0.976289 0.056027 0.209096
v 0.288256 0.450111 0.438128
vt 0.140625 0.640625
v 0.14397 0.458391 0.46903
vt 0.117188 0.640625
v 0.149891 0.381522 0.517275
vt 0.117188 0.625
v 0.294178 0.373242 0.486373
vt 0.140625 0.625
vn 0.206449 0.531504 0.821512
v 0.0625 0 0.9375
vt 0.0625 0.9375
v 0.0625 0 0.0625
vt 0.0625 0.0625
v 0.9375 0 0.0625
vt 0.9375 0.0625
v 0.9375 0 0.9375
vt 0.9375 0.9375
vn 0 -1 0
v 0.0625 0.1875 0.0625
vt 0.0625 0.9375
v 0.0625 0.1875 0.9375
vt 0.0625 0.0625
v 0.9375 0.1875 0.9375
vt 0.9375 0.0625
v 0.9375 0.1875 0.0625
vt 0.9375 0.9375
vn 0 1 0
v 0.9375 0.1875 0.0625
vt 0.0625 0.1875
v 0.9375 0 0.0625
vt 0.0625 0
v 0.0625 0 0.0625
vt 0.9375 0
v 0.0625 0.1875 0.0625
vt 0.9375 0.1875
vn 0 0 -1
v 0.0625 0.1875 0.9375
vt 0.0625 0.1875
v 0.0625 0 0.9375
vt 0.0625 0
v 0.9375 0 0.9375
vt 0.9375 0
v 0.9375 0.1875 0.9375
vt 0.9375 0.1875
vn 0 0 1
v 0.0625 0.1875 0.0625
vt 0.0625 0.1875
v 0.0625 0 0.0625
vt 0.0625 0
v 0.0625 0 0.9375
vt 0.9375 0
v 0.0625 0.1875 0.9375
vt 0.9375 0.1875
vn -1 0 0
v 0.9375 0.1875 0.9375
vt 0.0625 0.1875
v 0.9375 0 0.9375
vt 0.0625 0
v 0.9375 0 0.0625
vt 0.9375 0
v 0.9375 0.1875 0.0625
vt 0.9375 0.1875
vn 1 0 0
usemtl stone
f 1/1/1 2/2/1 3/3/1 4/4/1
f 5/5/2 6/6/2 7/7/2 8/8/2
f 9/9/3 10/10/3 11/11/3 12/12/3
f 13/13/4 14/14/4 15/15/4 16/16/4
f 17/17/5 18/18/5 19/19/5 20/20/5
f 21/21/6 22/22/6 23/23/6 24/24/6
f 25/25/7 26/26/7 27/27/7 28/28/7
f 29/29/8 30/30/8 31/31/8 32/32/8
f 33/33/9 34/34/9 35/35/9
f 36/36/10 37/37/10 38/38/10 39/39/10
f 40/40/11 41/41/11 42/42/11 43/43/11
f 44/44/12 45/45/12 46/46/12
f 47/47/13 48/48/13 49/49/13 50/50/13
f 51/51/14 52/52/14 53/53/14 54/54/14
f 55/55/15 56/56/15 57/57/15 58/58/15
f 59/59/16 60/60/16 61/61/16 62/62/16
f 63/63/17 64/64/17 65/65/17 66/66/17
f 67/67/18 68/68/18 69/69/18 70/70/18
f 71/71/19 72/72/19 73/73/19 74/74/19
f 75/75/20 76/76/20 77/77/20 78/78/20
f 79/79/21 80/80/21 81/81/21 82/82/21
f 83/83/22 84/84/22 85/85/22 86/86/22
f 87/87/23 88/88/23 89/89/23 90/90/23
f 91/91/24 92/92/24 93/93/24 94/94/24
f 95/95/25 96/96/25 97/97/25 98/98/25
f 99/99/26 100/100/26 101/101/26
f 102/102/27 103/103/27 104/104/27 105/105/27
f 106/106/28 107/107/28 108/108/28 109/109/28
f 110/110/29 111/111/29 112/112/29
f 113/113/30 114/114/30 115/115/30 116/116/30
f 117/117/31 118/118/31 119/119/31 120/120/31
f 121/121/32 122/122/32 123/123/32 124/124/32
f 125/125/33 126/126/33 127/127/33
f 128/128/34 129/129/34 130/130/34 131/131/34
f 132/132/35 133/133/35 134/134/35 135/135/35
f 136/136/36 137/137/36 138/138/36 139/139/36
f 140/140/37 141/141/37 142/142/37 143/143/37
f 144/144/38 145/145/38 146/146/38 147/147/38
f 148/148/39 149/149/39 150/150/39 151/151/39
f 152/152/40 153/153/40 154/154/40
f 155/155/41 156/156/41 157/157/41 158/158/41
f 159/159/42 160/160/42 161/161/42 162/162/42
f 163/163/43 164/164/43 165/165/43
f 166/166/44 167/167/44 168/168/44 169/169/44
f 170/170/45 171/171/45 172/172/45 173/173/45
f 174/174/46 175/175/46 176/176/46 177/177/46
f 178/178/47 179/179/47 180/180/47
f 181/181/48 182/182/48 183/183/48 184/184/48
f 185/185/49 186/186/49 187/187/49 188/188/49
f 189/189/50 190/190/50 191/191/50 192/192/50
f 193/193/51 194/194/51 195/195/51 196/196/51
f 197/197/52 198/198/52 199/199/52 200/200/52
f 201/201/53 202/202/53 203/203/53 204/204/53
f 205/205/54 206/206/54 207/207/54 208/208/54
f 209/209/55 210/210/55 211/211/55 212/212/55
f 213/213/56 214/214/56 215/215/56 216/216/56
f 217/217/57 218/218/57 219/219/57 220/220/57
f 221/221/58 222/222/58 223/223/58 224/224/58
f 225/225/59 226/226/59 227/227/59 228/228/59
f 229/229/60 230/230/60 231/231/60 232/232/60
f 233/233/61 234/234/61 235/235/61 236/236/61
f 237/237/62 238/238/62 239/239/62 240/240/62
f 241/241/63 242/242/63 243/243/63 244/244/63
f 245/245/64 246/246/64 247/247/64 248/248/64
f 249/249/65 250/250/65 251/251/65 252/252/65
f 253/253/66 254/254/66 255/255/66 256/256/66
f 257/257/67 258/258/67 259/259/67 260/260/67
f 261/261/68 262/262/68 263/263/68 264/264/68
f 265/265/69 266/266/69 267/267/69 268/268/69
f 269/269/70 270/270/70 271/271/70 272/272/70
f 273/273/71 274/274/71 275/275/71 276/276/71
f 277/277/72 278/278/72 279/279/72 280/280/72
f 281/281/73 282/282/73 283/283/73 284/284/73
f 285/285/74 286/286/74 287/287/74 288/288/74
f 289/289/75 290/290/75 291/291/75 292/292/75
f 293/293/76 294/294/76 295/295/76 296/296/76
f 297/297/77 298/298/77 299/299/77 300/300/77
f 301/301/78 302/302/78 303/303/78 304/304/78
f 305/305/79 306/306/79 307/307/79 308/308/79
f 309/309/80 310/310/80 311/311/80 312/312/80
f 313/313/81 314/314/81 315/315/81 316/316/81
f 317/317/82 318/318/82 319/319/82 320/320/82
f 321/321/83 322/322/83 323/323/83 324/324/83
f 325/325/84 326/326/84 327/327/84 328/328/84
f 329/329/85 330/330/85 331/331/85 332/332/85
f 333/333/86 334/334/86 335/335/86 336/336/86
f 337/337/87 338/338/87 339/339/87 340/340/87
f 341/341/88 342/342/88 343/343/88 344/344/88
f 345/345/89 346/346/89 347/347/89 348/348/89
f 349/349/90 350/350/90 351/351/90 352/352/90
f 353/353/91 354/354/91 355/355/91 356/356/91
f 357/357/92 358/358/92 359/359/92 360/360/92
f 361/361/93 362/362/93 363/363/93 364/364/93
f 365/365/94 366/366/94 367/367/94 368/368/94
f 369/369/95 370/370/95 371/371/95 372/372/95
f 373/373/96 374/374/96 375/375/96 376/376/96
f 377/377/97 378/378/97 379/379/97 380/380/97
f 381/381/98 382/382/98 383/383/98 384/384/98
f 385/385/99 386/386/99 387/387/99 388/388/99
f 389/389/100 390/390/100 391/391/100 392/392/100
f 393/393/101 394/394/101 395/395/101 396/396/101
f 397/397/102 398/398/102 399/399/102 400/400/102
f 401/401/103 402/402/103 403/403/103 404/404/103
f 405/405/104 406/406/104 407/407/104 408/408/104
f 409/409/105 410/410/105 411/411/105 412/412/105
f 413/413/106 414/414/106 415/415/106 416/416/106
f 417/417/107 418/418/107 419/419/107 420/420/107
f 421/421/108 422/422/108 423/423/108 424/424/108
f 425/425/109 426/426/109 427/427/109 428/428/109
f 429/429/110 430/430/110 431/431/110 432/432/110
f 433/433/111 434/434/111 435/435/111 436/436/111
f 437/437/112 438/438/112 439/439/112 440/440/112
f 441/441/113 442/442/113 443/443/113 444/444/113
f 445/445/114 446/446/114 447/447/114 448/448/114
f 449/449/115 450/450/115 451/451/115 452/452/115
f 453/453/116 454/454/116 455/455/116 456/456/116
f 457/457/117 458/458/117 459/459/117 460/460/117
f 461/461/118 462/462/118 463/463/118 464/464/118
f 465/465/119 466/466/119 467/467/119 468/468/119
f 469/469/120 470/470/120 471/471/120 472/472/120
f 473/473/121 474/474/121 475/475/121 476/476/121
f 477/477/122 478/478/122 479/479/122 480/480/122
f 481/481/123 482/482/123 483/483/123 484/484/123
f 485/485/124 486/486/124 487/487/124 488/488/124
f 489/489/125 490/490/125 491/491/125 492/492/125
f 493/493/126 494/494/126 495/495/126 496/496/126
f 497/497/127 498/498/127 499/499/127 500/500/127
f 501/501/128 502/502/128 503/503/128 504/504/128
f 505/505/129 506/506/129 507/507/129 508/508/129
f 509/509/130 510/510/130 511/511/130 512/512/130
f 513/513/131 514/514/131 515/515/131 516/516/131
f 517/517/132 518/518/132 519/519/132 520/520/132
f 521/521/133 522/522/133 523/523/133 524/524/133
f 525/525/134 526/526/134 527/527/134 528/528/134
f 529/529/135 530/530/135 531/531/135 532/532/135
f 533/533/136 534/534/136 535/535/136 536/536/136
f 537/537/137 538/538/137 539/539/137 540/540/137
usemtl plinth
f 541/541/138 542/542/138 543/543/138 544/544/138
f 545/545/139 546/546/139 547/547/139 548/548/139
f 549/549/140 550/550/140 551/551/140 552/552/140
f 553/553/141 554/554/141 555/555/141 556/556/141
f 557/557/142 558/558/142 559/559/142 560/560/142
f 561/561/143 562/562/143 563/563/143 564/564/143
