# Generated by tools/gen_obj_models.py - edit that, not this.
mtllib gargoyle_statue_item.mtl
o gargoyle_statue_item
v 0.408577 0.648816 0.387167
vt 0.125 1
v 0.583258 0.648816 0.387167
vt 0.0625 1
v 0.583258 0.641202 0.212652
vt 0.0625 0.9375
v 0.408577 0.641202 0.212652
vt 0.125 0.9375
vn 0 0.99905 -0.043586
v 0.408577 0.510316 0.218362
vt 0.1875 0.9375
v 0.583258 0.510316 0.218362
vt 0.125 0.9375
v 0.583258 0.517929 0.392877
vt 0.125 1
v 0.408577 0.517929 0.392877
vt 0.1875 1
vn 0 -0.99905 0.043586
v 0.583258 0.641202 0.212652
vt 0.0625 0.9375
v 0.583258 0.648816 0.387167
vt 0 0.9375
v 0.583258 0.517929 0.392877
vt 0 0.890625
v 0.583258 0.510316 0.218362
vt 0.0625 0.890625
vn 1 0 -0
v 0.408577 0.641202 0.212652
vt 0.125 0.9375
v 0.583258 0.641202 0.212652
vt 0.0625 0.9375
v 0.583258 0.510316 0.218362
vt 0.0625 0.890625
v 0.408577 0.510316 0.218362
vt 0.125 0.890625
vn 0 -0.043586 -0.99905
v 0.408577 0.648816 0.387167
vt 0.1875 0.9375
v 0.408577 0.641202 0.212652
vt 0.125 0.9375
v 0.408577 0.510316 0.218362
vt 0.125 0.890625
v 0.408577 0.517929 0.392877
vt 0.1875 0.890625
vn -1 0 0
v 0.583258 0.648816 0.387167
vt 0.25 0.9375
v 0.408577 0.648816 0.387167
vt 0.1875 0.9375
v 0.408577 0.517929 0.392877
vt 0.1875 0.890625
v 0.583258 0.517929 0.392877
vt 0.25 0.890625
vn 0 0.043586 0.99905
v 0.484612 0.509588 0.224951
vt 0.265625 0.5
v 0.515491 0.540438 0.223605
vt 0.25 0.5
v 0.546371 0.509588 0.224951
vt 0.25 0.484375
v 0.515491 0.478738 0.226297
vt 0.265625 0.484375
vn -0 -0.043586 -0.99905
v 0.515491 0.540438 0.223605
vt 0.25 0.5
v 0.484612 0.509588 0.224951
vt 0.265625 0.5
v 0.515491 0.478738 0.226297
vt 0.265625 0.484375
v 0.546371 0.509588 0.224951
vt 0.25 0.484375
vn 0 0.043586 0.99905
v 0.451859 0.509588 0.224951
vt 0.265625 0.5
v 0.482738 0.540438 0.223605
vt 0.25 0.5
v 0.513618 0.509588 0.224951
vt 0.25 0.484375
v 0.482739 0.478738 0.226297
vt 0.265625 0.484375
vn -0 -0.043586 -0.99905
v 0.482738 0.540438 0.223605
vt 0.25 0.5
v 0.451859 0.509588 0.224951
vt 0.265625 0.5
v 0.482739 0.478738 0.226297
vt 0.265625 0.484375
v 0.513618 0.509588 0.224951
vt 0.25 0.484375
vn 0 0.043586 0.99905
v 0.581012 0.582441 0.273653
vt 0.28125 0.523438
v 0.560187 0.582727 0.280212
vt 0.273438 0.523438
v 0.578695 0.607671 0.337886
vt 0.273438 0.546875
v 0.59952 0.607385 0.331327
vt 0.28125 0.546875
vn -0.102846 0.924569 -0.366871
v 0.604011 0.567009 0.347348
vt 0.289062 0.546875
v 0.583186 0.567295 0.353907
vt 0.28125 0.546875
v 0.564679 0.542351 0.296234
vt 0.28125 0.523438
v 0.585503 0.542065 0.289675
vt 0.289062 0.523438
vn 0.102846 -0.924569 0.366871
v 0.564679 0.542351 0.296234
vt 0.273438 0.507812
v 0.583186 0.567295 0.353907
vt 0.25 0.507812
v 0.578695 0.607671 0.337886
vt 0.25 0.523438
v 0.560187 0.582727 0.280212
vt 0.273438 0.523438
vn -0.953727 0.013105 0.300389
v 0.585503 0.542065 0.289675
vt 0.28125 0.507812
v 0.564679 0.542351 0.296234
vt 0.273438 0.507812
v 0.560187 0.582727 0.280212
vt 0.273438 0.523438
v 0.581012 0.582441 0.273653
vt 0.28125 0.523438
vn -0.282538 -0.380789 -0.880438
v 0.604011 0.567009 0.347348
vt 0.304688 0.507812
v 0.585503 0.542065 0.289675
vt 0.28125 0.507812
v 0.581012 0.582441 0.273653
vt 0.28125 0.523438
v 0.59952 0.607385 0.331327
vt 0.304688 0.523438
vn 0.953727 -0.013105 -0.300389
v 0.583186 0.567295 0.353907
vt 0.3125 0.507812
v 0.604011 0.567009 0.347348
vt 0.304688 0.507812
v 0.59952 0.607385 0.331327
vt 0.304688 0.523438
v 0.578695 0.607671 0.337886
vt 0.3125 0.523438
vn 0.282538 0.380789 0.880438
v 0.392314 0.607385 0.331327
vt 0.28125 0.546875
v 0.413139 0.607671 0.337886
vt 0.273438 0.546875
v 0.431647 0.582727 0.280212
vt 0.273438 0.523438
v 0.410822 0.582441 0.273653
vt 0.28125 0.523438
vn 0.102846 0.924569 -0.366871
v 0.406331 0.542065 0.289675
vt 0.289062 0.523438
v 0.427156 0.542351 0.296234
vt 0.28125 0.523438
v 0.408648 0.567295 0.353907
vt 0.28125 0.546875
v 0.387823 0.567009 0.347348
vt 0.289062 0.546875
vn -0.102846 -0.924569 0.366871
v 0.431647 0.582727 0.280212
vt 0.273438 0.523438
v 0.413139 0.607671 0.337886
vt 0.25 0.523438
v 0.408648 0.567295 0.353907
vt 0.25 0.507812
v 0.427156 0.542351 0.296234
vt 0.273438 0.507812
vn 0.953727 0.013105 0.300389
v 0.410822 0.582441 0.273653
vt 0.28125 0.523438
v 0.431647 0.582727 0.280212
vt 0.273438 0.523438
v 0.427156 0.542351 0.296234
vt 0.273438 0.507812
v 0.406331 0.542065 0.289675
vt 0.28125 0.507812
vn 0.282538 -0.380789 -0.880438
v 0.392314 0.607385 0.331327
vt 0.304688 0.523438
v 0.410822 0.582441 0.273653
vt 0.28125 0.523438
v 0.406331 0.542065 0.289675
vt 0.28125 0.507812
v 0.387823 0.567009 0.347348
vt 0.304688 0.507812
vn -0.953727 -0.013105 -0.300389
v 0.413139 0.607671 0.337886
vt 0.3125 0.523438
v 0.392314 0.607385 0.331327
vt 0.304688 0.523438
v 0.387823 0.567009 0.347348
vt 0.304688 0.507812
v 0.408648 0.567295 0.353907
vt 0.3125 0.507812
vn -0.282538 0.380789 0.880438
v 0.658583 0.67772 0.290755
vt 0.304688 0.570312
v 0.554459 0.644925 0.292186
vt 0.265625 0.570312
v 0.563744 0.616848 0.32432
vt 0.265625 0.585938
v 0.667868 0.649643 0.322889
vt 0.304688 0.585938
vn -0.212609 0.704565 0.677042
v 0.677152 0.618875 0.293322
vt 0.34375 0.585938
v 0.573028 0.58608 0.294753
vt 0.304688 0.585938
v 0.563744 0.614156 0.262619
vt 0.304688 0.570312
v 0.667867 0.646952 0.261189
vt 0.34375 0.570312
vn 0.212609 -0.704565 -0.677042
v 0.563744 0.614156 0.262619
vt 0.265625 0.554688
v 0.573028 0.58608 0.294753
vt 0.25 0.554688
v 0.563744 0.616848 0.32432
vt 0.25 0.570312
v 0.554459 0.644925 0.292186
vt 0.265625 0.570312
vn -0.953727 -0.300389 0.013105
v 0.667867 0.646952 0.261189
vt 0.304688 0.554688
v 0.563744 0.614156 0.262619
vt 0.265625 0.554688
v 0.554459 0.644925 0.292186
vt 0.265625 0.570312
v 0.658583 0.67772 0.290755
vt 0.304688 0.570312
vn -0.21261 0.642927 -0.735827
v 0.677152 0.618875 0.293322
vt 0.320312 0.554688
v 0.667867 0.646952 0.261189
vt 0.304688 0.554688
v 0.658583 0.67772 0.290755
vt 0.304688 0.570312
v 0.667868 0.649643 0.322889
vt 0.320312 0.570312
vn 0.953727 0.300389 -0.013105
v 0.573028 0.58608 0.294753
vt 0.359375 0.554688
v 0.677152 0.618875 0.293322
vt 0.320312 0.554688
v 0.667868 0.649643 0.322889
vt 0.320312 0.570312
v 0.563744 0.616848 0.32432
vt 0.359375 0.570312
vn 0.21261 -0.642927 0.735827
v 0.323967 0.649643 0.322889
vt 0.304688 0.585938
v 0.428091 0.616848 0.32432
vt 0.265625 0.585938
v 0.437375 0.644925 0.292186
vt 0.265625 0.570312
v 0.333251 0.67772 0.290755
vt 0.304688 0.570312
vn 0.212609 0.704565 0.677042
v 0.323967 0.646952 0.261189
vt 0.34375 0.570312
v 0.428091 0.614156 0.262619
vt 0.304688 0.570312
v 0.418806 0.58608 0.294753
vt 0.304688 0.585938
v 0.314682 0.618875 0.293322
vt 0.34375 0.585938
vn -0.212609 -0.704565 -0.677042
v 0.437375 0.644925 0.292186
vt 0.265625 0.570312
v 0.428091 0.616848 0.32432
vt 0.25 0.570312
v 0.418806 0.58608 0.294753
vt 0.25 0.554688
v 0.428091 0.614156 0.262619
vt 0.265625 0.554688
vn 0.953727 -0.300389 0.013105
v 0.333251 0.67772 0.290755
vt 0.304688 0.570312
v 0.437375 0.644925 0.292186
vt 0.265625 0.570312
v 0.428091 0.614156 0.262619
vt 0.265625 0.554688
v 0.323967 0.646952 0.261189
vt 0.304688 0.554688
vn 0.21261 0.642927 -0.735827
v 0.323967 0.649643 0.322889
vt 0.320312 0.570312
v 0.333251 0.67772 0.290755
vt 0.304688 0.570312
v 0.323967 0.646952 0.261189
vt 0.304688 0.554688
v 0.314682 0.618875 0.293322
vt 0.320312 0.554688
vn -0.953727 0.300389 -0.013105
v 0.428091 0.616848 0.32432
vt 0.359375 0.570312
v 0.323967 0.649643 0.322889
vt 0.320312 0.570312
v 0.314682 0.618875 0.293322
vt 0.320312 0.554688
v 0.418806 0.58608 0.294753
vt 0.359375 0.554688
vn -0.21261 -0.642927 0.735827
v 0.408577 0.516769 0.340214
vt 0.304688 0.796875
v 0.583258 0.516769 0.340214
vt 0.242188 0.796875
v 0.583258 0.471969 0.217101
vt 0.242188 0.75
v 0.408577 0.471969 0.217101
vt 0.304688 0.75
vn 0 0.939715 -0.341958
v 0.408577 0.430931 0.232034
vt 0.367188 0.75
v 0.583258 0.430931 0.232034
vt 0.304688 0.75
v 0.583258 0.475731 0.355147
vt 0.304688 0.796875
v 0.408577 0.475731 0.355147
vt 0.367188 0.796875
vn 0 -0.939715 0.341958
v 0.583258 0.471969 0.217101
vt 0.242188 0.75
v 0.583258 0.516769 0.340214
vt 0.195312 0.75
v 0.583258 0.475731 0.355147
vt 0.195312 0.734375
v 0.583258 0.430931 0.232034
vt 0.242188 0.734375
vn 1 0 0
v 0.408577 0.471969 0.217101
vt 0.304688 0.75
v 0.583258 0.471969 0.217101
vt 0.242188 0.75
v 0.583258 0.430931 0.232034
vt 0.242188 0.734375
v 0.408577 0.430931 0.232034
vt 0.304688 0.734375
vn 0 -0.341958 -0.939715
v 0.408577 0.516769 0.340214
vt 0.351562 0.75
v 0.408577 0.471969 0.217101
vt 0.304688 0.75
v 0.408577 0.430931 0.232034
vt 0.304688 0.734375
v 0.408577 0.475731 0.355147
vt 0.351562 0.734375
vn -1 0 0
v 0.583258 0.516769 0.340214
vt 0.414062 0.75
v 0.408577 0.516769 0.340214
vt 0.351562 0.75
v 0.408577 0.475731 0.355147
vt 0.351562 0.734375
v 0.583258 0.475731 0.355147
vt 0.414062 0.734375
vn 0 0.341958 0.939715
v 0.462776 0.469337 0.21922
vt 0.164062 0.664062
v 0.493656 0.498355 0.208661
vt 0.148438 0.664062
v 0.524536 0.469337 0.21922
vt 0.148438 0.648438
v 0.493656 0.440319 0.22978
vt 0.164062 0.648438
vn 0 -0.341958 -0.939715
v 0.493656 0.498355 0.208661
vt 0.148438 0.664062
v 0.462776 0.469337 0.21922
vt 0.164062 0.664062
v 0.493656 0.440319 0.22978
vt 0.164062 0.648438
v 0.524536 0.469337 0.21922
vt 0.148438 0.648438
vn -0 0.341958 0.939715
v 0.506447 0.469337 0.21922
vt 0.164062 0.6875
v 0.537326 0.498355 0.208661
vt 0.148438 0.6875
v 0.568206 0.469337 0.21922
vt 0.148438 0.671875
v 0.537326 0.440319 0.22978
vt 0.164062 0.671875
vn 0 -0.341958 -0.939715
v 0.537326 0.498355 0.208661
vt 0.148438 0.6875
v 0.506447 0.469337 0.21922
vt 0.164062 0.6875
v 0.537326 0.440319 0.22978
vt 0.164062 0.671875
v 0.568206 0.469337 0.21922
vt 0.148438 0.671875
vn -0 0.341958 0.939715
v 0.419106 0.469337 0.21922
vt 0.164062 0.6875
v 0.449986 0.498355 0.208661
vt 0.148438 0.6875
v 0.480865 0.469337 0.21922
vt 0.148438 0.671875
v 0.449986 0.440319 0.22978
vt 0.164062 0.671875
vn 0 -0.341958 -0.939715
v 0.449986 0.498355 0.208661
vt 0.148438 0.6875
v 0.419106 0.469337 0.21922
vt 0.164062 0.6875
v 0.449986 0.440319 0.22978
vt 0.164062 0.671875
v 0.480865 0.469337 0.21922
vt 0.148438 0.671875
vn -0 0.341958 0.939715
v 0.408577 0.488972 0.504876
vt 0.09375 0.796875
v 0.583258 0.488972 0.504876
vt 0.03125 0.796875
v 0.583258 0.455549 0.424184
vt 0.03125 0.765625
v 0.408577 0.455549 0.424184
vt 0.09375 0.765625
vn 0 0.923879 -0.382684
v 0.408577 0.273991 0.499388
vt 0.15625 0.765625
v 0.583258 0.273991 0.499388
vt 0.09375 0.765625
v 0.583258 0.307415 0.58008
vt 0.09375 0.796875
v 0.408577 0.307415 0.58008
vt 0.15625 0.796875
vn 0 -0.923879 0.382684
v 0.583258 0.455549 0.424184
vt 0.03125 0.765625
v 0.583258 0.488972 0.504876
vt 0 0.765625
v 0.583258 0.307415 0.58008
vt 0 0.695312
v 0.583258 0.273991 0.499388
vt 0.03125 0.695312
vn 1 0 -0
v 0.408577 0.455549 0.424184
vt 0.09375 0.765625
v 0.583258 0.455549 0.424184
vt 0.03125 0.765625
v 0.583258 0.273991 0.499388
vt 0.03125 0.695312
v 0.408577 0.273991 0.499388
vt 0.09375 0.695312
vn 0 -0.382684 -0.923879
v 0.408577 0.488972 0.504876
vt 0.125 0.765625
v 0.408577 0.455549 0.424184
vt 0.09375 0.765625
v 0.408577 0.273991 0.499388
vt 0.09375 0.695312
v 0.408577 0.307415 0.58008
vt 0.125 0.695312
vn -1 0 0
v 0.583258 0.488972 0.504876
vt 0.1875 0.765625
v 0.408577 0.488972 0.504876
vt 0.125 0.765625
v 0.408577 0.307415 0.58008
vt 0.125 0.695312
v 0.583258 0.307415 0.58008
vt 0.1875 0.695312
vn 0 0.382684 0.923879
v 0.406393 0.393049 0.552881
vt 0.101562 0.507812
v 0.585441 0.393049 0.552881
vt 0.0390625 0.507812
v 0.585441 0.349598 0.447981
vt 0.0390625 0.46875
v 0.406393 0.349598 0.447981
vt 0.101562 0.46875
vn 0 0.923879 -0.382684
v 0.406393 0.305218 0.466364
vt 0.164062 0.46875
v 0.585441 0.305218 0.466364
vt 0.101562 0.46875
v 0.585441 0.348669 0.571264
vt 0.101562 0.507812
v 0.406393 0.348669 0.571264
vt 0.164062 0.507812
vn 0 -0.923879 0.382684
v 0.585441 0.349598 0.447981
vt 0.0390625 0.46875
v 0.585441 0.393049 0.552881
vt 0 0.46875
v 0.585441 0.348669 0.571264
vt 0 0.453125
v 0.585441 0.305218 0.466364
vt 0.0390625 0.453125
vn 1 0 -0
v 0.406393 0.349598 0.447981
vt 0.101562 0.46875
v 0.585441 0.349598 0.447981
vt 0.0390625 0.46875
v 0.585441 0.305218 0.466364
vt 0.0390625 0.453125
v 0.406393 0.305218 0.466364
vt 0.101562 0.453125
vn 0 -0.382684 -0.923879
v 0.406393 0.393049 0.552881
vt 0.140625 0.46875
v 0.406393 0.349598 0.447981
vt 0.101562 0.46875
v 0.406393 0.305218 0.466364
vt 0.101562 0.453125
v 0.406393 0.348669 0.571264
vt 0.140625 0.453125
vn -1 0 0
v 0.585441 0.393049 0.552881
vt 0.203125 0.46875
v 0.406393 0.393049 0.552881
vt 0.140625 0.46875
v 0.406393 0.348669 0.571264
vt 0.140625 0.453125
v 0.585441 0.348669 0.571264
vt 0.203125 0.453125
vn 0 0.382684 0.923879
v 0.441329 0.334225 0.472155
vt 0.460938 0.796875
v 0.550505 0.334225 0.472155
vt 0.421875 0.796875
v 0.550505 0.182687 0.492105
vt 0.421875 0.742188
v 0.441329 0.182687 0.492105
vt 0.460938 0.742188
vn 0 -0.130526 -0.991445
v 0.550505 0.334225 0.472155
vt 0.421875 0.796875
v 0.441329 0.334225 0.472155
vt 0.460938 0.796875
v 0.441329 0.182687 0.492105
vt 0.460938 0.742188
v 0.550505 0.182687 0.492105
vt 0.421875 0.742188
vn 0 0.130526 0.991445
v 0.545046 0.424146 0.410061
vt 0.46875 0.554688
v 0.501376 0.424146 0.410061
vt 0.453125 0.554688
v 0.501376 0.447609 0.446893
vt 0.453125 0.570312
v 0.545046 0.447609 0.446893
vt 0.46875 0.570312
vn 0 0.843409 -0.537273
v 0.545046 0.355529 0.50555
vt 0.484375 0.570312
v 0.501376 0.355529 0.50555
vt 0.46875 0.570312
v 0.501376 0.332066 0.468719
vt 0.46875 0.554688
v 0.545046 0.332066 0.468719
vt 0.484375 0.554688
vn 0 -0.843409 0.537273
v 0.501376 0.332066 0.468719
vt 0.453125 0.515625
v 0.501376 0.355529 0.50555
vt 0.4375 0.515625
v 0.501376 0.447609 0.446893
vt 0.4375 0.554688
v 0.501376 0.424146 0.410061
vt 0.453125 0.554688
vn -1 0 0
v 0.545046 0.332066 0.468719
vt 0.46875 0.515625
v 0.501376 0.332066 0.468719
vt 0.453125 0.515625
v 0.501376 0.424146 0.410061
vt 0.453125 0.554688
v 0.545046 0.424146 0.410061
vt 0.46875 0.554688
vn -0 -0.537273 -0.843409
v 0.545046 0.355529 0.50555
vt 0.484375 0.515625
v 0.545046 0.332066 0.468719
vt 0.46875 0.515625
v 0.545046 0.424146 0.410061
vt 0.46875 0.554688
v 0.545046 0.447609 0.446893
vt 0.484375 0.554688
vn 1 0 0
v 0.501376 0.355529 0.50555
vt 0.5 0.515625
v 0.545046 0.355529 0.50555
vt 0.484375 0.515625
v 0.545046 0.447609 0.446893
vt 0.484375 0.554688
v 0.501376 0.447609 0.446893
vt 0.5 0.554688
vn -0 0.537273 0.843409
v 0.446788 0.447609 0.446893
vt 0.46875 0.570312
v 0.490458 0.447609 0.446893
vt 0.453125 0.570312
v 0.490458 0.424146 0.410061
vt 0.453125 0.554688
v 0.446788 0.424146 0.410061
vt 0.46875 0.554688
vn 0 0.843409 -0.537273
v 0.446788 0.332066 0.468719
vt 0.484375 0.554688
v 0.490458 0.332066 0.468719
vt 0.46875 0.554688
v 0.490458 0.355529 0.50555
vt 0.46875 0.570312
v 0.446788 0.355529 0.50555
vt 0.484375 0.570312
vn 0 -0.843409 0.537273
v 0.490458 0.424146 0.410061
vt 0.453125 0.554688
v 0.490458 0.447609 0.446893
vt 0.4375 0.554688
v 0.490458 0.355529 0.50555
vt 0.4375 0.515625
v 0.490458 0.332066 0.468719
vt 0.453125 0.515625
vn 1 0 -0
v 0.446788 0.424146 0.410061
vt 0.46875 0.554688
v 0.490458 0.424146 0.410061
vt 0.453125 0.554688
v 0.490458 0.332066 0.468719
vt 0.453125 0.515625
v 0.446788 0.332066 0.468719
vt 0.46875 0.515625
vn 0 -0.537273 -0.843409
v 0.446788 0.447609 0.446893
vt 0.484375 0.554688
v 0.446788 0.424146 0.410061
vt 0.46875 0.554688
v 0.446788 0.332066 0.468719
vt 0.46875 0.515625
v 0.446788 0.355529 0.50555
vt 0.484375 0.515625
vn -1 -0 0
v 0.490458 0.447609 0.446893
vt 0.5 0.554688
v 0.446788 0.447609 0.446893
vt 0.484375 0.554688
v 0.446788 0.355529 0.50555
vt 0.484375 0.515625
v 0.490458 0.355529 0.50555
vt 0.5 0.515625
vn 0 0.537273 0.843409
v 0.428228 0.62086 0.345906
vt 0.539062 0.890625
v 0.563606 0.62086 0.345906
vt 0.492188 0.890625
v 0.563606 0.557533 0.316379
vt 0.492188 0.867188
v 0.428228 0.557533 0.316379
vt 0.539062 0.867188
vn 0 0.422586 -0.906323
v 0.428228 0.518778 0.399496
vt 0.585938 0.867188
v 0.563606 0.518778 0.399496
vt 0.539062 0.867188
v 0.563606 0.582105 0.429023
vt 0.539062 0.890625
v 0.428228 0.582105 0.429023
vt 0.585938 0.890625
vn 0 -0.422586 0.906323
v 0.563606 0.557533 0.316379
vt 0.492188 0.867188
v 0.563606 0.62086 0.345906
vt 0.46875 0.867188
v 0.563606 0.582105 0.429023
vt 0.46875 0.835938
v 0.563606 0.518778 0.399496
vt 0.492188 0.835938
vn 1 0 0
v 0.428228 0.557533 0.316379
vt 0.539062 0.867188
v 0.563606 0.557533 0.316379
vt 0.492188 0.867188
v 0.563606 0.518778 0.399496
vt 0.492188 0.835938
v 0.428228 0.518778 0.399496
vt 0.539062 0.835938
vn 0 -0.906323 -0.422586
v 0.428228 0.62086 0.345906
vt 0.5625 0.867188
v 0.428228 0.557533 0.316379
vt 0.539062 0.867188
v 0.428228 0.518778 0.399496
vt 0.539062 0.835938
v 0.428228 0.582105 0.429023
vt 0.5625 0.835938
vn -1 -0 0
v 0.563606 0.62086 0.345906
vt 0.609375 0.867188
v 0.428228 0.62086 0.345906
vt 0.5625 0.867188
v 0.428228 0.582105 0.429023
vt 0.5625 0.835938
v 0.563606 0.582105 0.429023
vt 0.609375 0.835938
vn 0 0.906323 0.422586
v 0.349622 0.590244 0.425355
vt 0.140625 0.304688
v 0.642213 0.590244 0.425355
vt 0.0390625 0.304688
v 0.642213 0.514456 0.335028
vt 0.0390625 0.265625
v 0.349622 0.514456 0.335028
vt 0.140625 0.265625
vn 0 0.766065 -0.642763
v 0.349622 0.424129 0.410816
vt 0.242188 0.265625
v 0.642213 0.424129 0.410816
vt 0.140625 0.265625
v 0.642213 0.499917 0.501143
vt 0.140625 0.304688
v 0.349622 0.499917 0.501143
vt 0.242188 0.304688
vn 0 -0.766065 0.642763
v 0.642213 0.514456 0.335028
vt 0.0390625 0.265625
v 0.642213 0.590244 0.425355
vt 0 0.265625
v 0.642213 0.499917 0.501143
vt 0 0.226562
v 0.642213 0.424129 0.410816
vt 0.0390625 0.226562
vn 1 0 -0
v 0.349622 0.514456 0.335028
vt 0.140625 0.265625
v 0.642213 0.514456 0.335028
vt 0.0390625 0.265625
v 0.642213 0.424129 0.410816
vt 0.0390625 0.226562
v 0.349622 0.424129 0.410816
vt 0.140625 0.226562
vn 0 -0.642763 -0.766065
v 0.349622 0.590244 0.425355
vt 0.179688 0.265625
v 0.349622 0.514456 0.335028
vt 0.140625 0.265625
v 0.349622 0.424129 0.410816
vt 0.140625 0.226562
v 0.349622 0.499917 0.501143
vt 0.179688 0.226562
vn -1 0 0
v 0.642213 0.590244 0.425355
vt 0.28125 0.265625
v 0.349622 0.590244 0.425355
vt 0.179688 0.265625
v 0.349622 0.499917 0.501143
vt 0.179688 0.226562
v 0.642213 0.499917 0.501143
vt 0.28125 0.226562
vn 0 0.642763 0.766065
v 0.528493 0.540515 0.481944
vt 0.296875 0.359375
v 0.700237 0.736748 0.448624
vt 0.203125 0.359375
v 0.707076 0.727443 0.429071
vt 0.203125 0.351562
v 0.535332 0.531209 0.462392
vt 0.296875 0.351562
vn -0.694642 0.524326 -0.492499
v 0.551106 0.519303 0.473576
vt 0.390625 0.351562
v 0.72285 0.715536 0.440255
vt 0.296875 0.351562
v 0.716011 0.724841 0.459808
vt 0.296875 0.359375
v 0.544267 0.528608 0.493128
vt 0.390625 0.359375
vn 0.694642 -0.524326 0.492499
v 0.707076 0.727443 0.429071
vt 0.203125 0.351562
v 0.700237 0.736748 0.448624
vt 0.195312 0.351562
v 0.716011 0.724841 0.459808
vt 0.195312 0.34375
v 0.72285 0.715536 0.440255
vt 0.203125 0.34375
vn 0.65328 0.746432 -0.126745
v 0.535332 0.531209 0.462392
vt 0.296875 0.351562
v 0.707076 0.727443 0.429071
vt 0.203125 0.351562
v 0.72285 0.715536 0.440255
vt 0.203125 0.34375
v 0.551106 0.519303 0.473576
vt 0.296875 0.34375
vn 0.301161 -0.409782 -0.861035
v 0.528493 0.540515 0.481944
vt 0.304688 0.351562
v 0.535332 0.531209 0.462392
vt 0.296875 0.351562
v 0.551106 0.519303 0.473576
vt 0.296875 0.34375
v 0.544267 0.528608 0.493128
vt 0.304688 0.34375
vn -0.65328 -0.746432 0.126745
v 0.700237 0.736748 0.448624
vt 0.398438 0.351562
v 0.528493 0.540515 0.481944
vt 0.304688 0.351562
v 0.544267 0.528608 0.493128
vt 0.304688 0.34375
v 0.716011 0.724841 0.459808
vt 0.398438 0.34375
vn -0.301161 0.409782 0.861035
v 0.532501 0.535959 0.472328
vt 0.351562 1
v 0.703675 0.73154 0.439118
vt 0.257812 1
v 0.885686 0.594156 0.568163
vt 0.257812 0.90625
v 0.714512 0.398574 0.601373
vt 0.351562 0.90625
vn 0.301161 -0.409782 -0.861035
v 0.703675 0.73154 0.439118
vt 0.257812 1
v 0.532501 0.535959 0.472328
vt 0.351562 1
v 0.714512 0.398574 0.601373
vt 0.351562 0.90625
v 0.885686 0.594156 0.568163
vt 0.257812 0.90625
vn -0.301161 0.409782 0.861035
v 0.70057 0.708349 0.462256
vt 0.117188 0.617188
v 0.715405 0.725299 0.459378
vt 0.109375 0.617188
v 0.722244 0.715994 0.439825
vt 0.109375 0.609375
v 0.707408 0.699043 0.442703
vt 0.117188 0.609375
vn -0.694642 0.524326 -0.492499
v 0.874859 0.572649 0.561425
vt 0.125 0.609375
v 0.889694 0.5896 0.558546
vt 0.117188 0.609375
v 0.882855 0.598905 0.578099
vt 0.117188 0.617188
v 0.86802 0.581955 0.580978
vt 0.125 0.617188
vn 0.694642 -0.524326 0.492499
v 0.722244 0.715994 0.439825
vt 0.109375 0.609375
v 0.715405 0.725299 0.459378
vt 0.101562 0.609375
v 0.882855 0.598905 0.578099
vt 0.101562 0.523438
v 0.889694 0.5896 0.558546
vt 0.109375 0.523438
vn 0.65328 0.746432 -0.126745
v 0.707408 0.699043 0.442703
vt 0.117188 0.609375
v 0.722244 0.715994 0.439825
vt 0.109375 0.609375
v 0.889694 0.5896 0.558546
vt 0.109375 0.523438
v 0.874859 0.572649 0.561425
vt 0.117188 0.523438
vn 0.301161 -0.409782 -0.861035
v 0.70057 0.708349 0.462256
vt 0.125 0.609375
v 0.707408 0.699043 0.442703
vt 0.117188 0.609375
v 0.874859 0.572649 0.561425
vt 0.117188 0.523438
v 0.86802 0.581955 0.580978
vt 0.125 0.523438
vn -0.65328 -0.746432 0.126745
v 0.715405 0.725299 0.459378
vt 0.132812 0.609375
v 0.70057 0.708349 0.462256
vt 0.125 0.609375
v 0.86802 0.581955 0.580978
vt 0.125 0.523438
v 0.882855 0.598905 0.578099
vt 0.132812 0.523438
vn -0.301161 0.409782 0.861035
v 0.706844 0.726593 0.451547
vt 0.546875 0.773438
v 0.690535 0.673038 0.417535
vt 0.523438 0.773438
v 0.645032 0.707384 0.385274
vt 0.523438 0.796875
v 0.661342 0.760939 0.419286
vt 0.546875 0.796875
vn 0.674892 0.238049 -0.698465
v 0.690535 0.673038 0.417535
vt 0.523438 0.773438
v 0.706844 0.726593 0.451547
vt 0.546875 0.773438
v 0.661342 0.760939 0.419286
vt 0.546875 0.796875
v 0.645032 0.707384 0.385274
vt 0.523438 0.796875
vn -0.674892 -0.238049 0.698465
v 0.817989 0.681611 0.224728
vt 0.367188 0.898438
v 0.691262 0.725208 0.449883
vt 0.273438 0.898438
v 0.873273 0.587823 0.578928
vt 0.273438 0.804688
v 1 0.544226 0.353773
vt 0.367188 0.804688
vn 0.532499 0.835103 0.138011
v 0.691262 0.725208 0.449883
vt 0.273438 0.898438
v 0.817989 0.681611 0.224728
vt 0.367188 0.898438
v 1 0.544226 0.353773
vt 0.367188 0.804688
v 0.873273 0.587823 0.578928
vt 0.273438 0.804688
vn -0.532499 -0.835103 -0.138011
v 0.695262 0.712394 0.429713
vt 0.101562 0.4375
v 0.707354 0.731358 0.432847
vt 0.09375 0.4375
v 0.823943 0.691249 0.225704
vt 0.09375 0.351562
v 0.811851 0.672285 0.22257
vt 0.101562 0.351562
vn -0.694642 0.524326 -0.492499
v 0.827625 0.660378 0.233754
vt 0.109375 0.351562
v 0.839717 0.679342 0.236888
vt 0.101562 0.351562
v 0.723128 0.719452 0.444031
vt 0.101562 0.4375
v 0.711036 0.700488 0.440897
vt 0.109375 0.4375
vn 0.694642 -0.524326 0.492499
v 0.823943 0.691249 0.225704
vt 0.09375 0.351562
v 0.707354 0.731358 0.432847
vt 0.0078125 0.351562
v 0.723128 0.719452 0.444031
vt 0.0078125 0.34375
v 0.839717 0.679342 0.236888
vt 0.09375 0.34375
vn 0.532499 0.835103 0.138011
v 0.811851 0.672285 0.22257
vt 0.101562 0.351562
v 0.823943 0.691249 0.225704
vt 0.09375 0.351562
v 0.839717 0.679342 0.236888
vt 0.09375 0.34375
v 0.827625 0.660378 0.233754
vt 0.101562 0.34375
vn 0.48365 -0.166387 -0.859301
v 0.695262 0.712394 0.429713
vt 0.1875 0.351562
v 0.811851 0.672285 0.22257
vt 0.101562 0.351562
v 0.827625 0.660378 0.233754
vt 0.101562 0.34375
v 0.711036 0.700488 0.440897
vt 0.1875 0.34375
vn -0.532499 -0.835103 -0.138011
v 0.707354 0.731358 0.432847
vt 0.195312 0.351562
v 0.695262 0.712394 0.429713
vt 0.1875 0.351562
v 0.711036 0.700488 0.440897
vt 0.1875 0.34375
v 0.723128 0.719452 0.444031
vt 0.195312 0.34375
vn -0.48365 0.166387 0.859301
v 0.290492 0.736079 0.450379
vt 0.296875 0.359375
v 0.462236 0.539846 0.4837
vt 0.203125 0.359375
v 0.456797 0.531612 0.463247
vt 0.203125 0.351562
v 0.285053 0.727846 0.429926
vt 0.296875 0.351562
vn 0.71823 0.558022 -0.41564
v 0.268743 0.715174 0.439365
vt 0.390625 0.351562
v 0.440487 0.518941 0.472686
vt 0.296875 0.351562
v 0.445926 0.527174 0.493138
vt 0.296875 0.359375
v 0.274182 0.723407 0.459818
vt 0.390625 0.359375
vn -0.71823 -0.558022 0.41564
v 0.456797 0.531612 0.463247
vt 0.203125 0.351562
v 0.462236 0.539846 0.4837
vt 0.195312 0.351562
v 0.445926 0.527174 0.493138
vt 0.195312 0.34375
v 0.440487 0.518941 0.472686
vt 0.203125 0.34375
vn 0.65328 -0.746432 0.126745
v 0.285053 0.727846 0.429926
vt 0.296875 0.351562
v 0.456797 0.531612 0.463247
vt 0.203125 0.351562
v 0.440487 0.518941 0.472686
vt 0.203125 0.34375
v 0.268743 0.715174 0.439365
vt 0.296875 0.34375
vn -0.239521 -0.362562 -0.900655
v 0.290492 0.736079 0.450379
vt 0.304688 0.351562
v 0.285053 0.727846 0.429926
vt 0.296875 0.351562
v 0.268743 0.715174 0.439365
vt 0.296875 0.34375
v 0.274182 0.723407 0.459818
vt 0.304688 0.34375
vn -0.65328 0.746432 -0.126745
v 0.462236 0.539846 0.4837
vt 0.398438 0.351562
v 0.290492 0.736079 0.450379
vt 0.304688 0.351562
v 0.274182 0.723407 0.459818
vt 0.304688 0.34375
v 0.445926 0.527174 0.493138
vt 0.398438 0.34375
vn 0.239521 0.362562 0.900655
v 0.270726 0.389598 0.582506
vt 0.351562 0.90625
v 0.0995524 0.585179 0.549296
vt 0.257812 0.90625
v 0.287744 0.731393 0.44039
vt 0.257812 1
v 0.458918 0.535811 0.473599
vt 0.351562 1
vn -0.239521 -0.362562 -0.900655
v 0.0995524 0.585179 0.549296
vt 0.257812 0.90625
v 0.270726 0.389598 0.582506
vt 0.351562 0.90625
v 0.458918 0.535811 0.473599
vt 0.351562 1
v 0.287744 0.731393 0.44039
vt 0.257812 1
vn 0.239521 0.362562 0.900655
v 0.27481 0.723895 0.459454
vt 0.117188 0.617188
v 0.289645 0.706944 0.462333
vt 0.109375 0.617188
v 0.284205 0.698711 0.44188
vt 0.109375 0.609375
v 0.26937 0.715661 0.439002
vt 0.117188 0.609375
vn 0.71823 0.558022 -0.41564
v 0.0962339 0.581145 0.539196
vt 0.125 0.609375
v 0.111069 0.564194 0.542074
vt 0.117188 0.609375
v 0.116508 0.572428 0.562527
vt 0.117188 0.617188
v 0.101673 0.589378 0.559649
vt 0.125 0.617188
vn -0.71823 -0.558022 0.41564
v 0.284205 0.698711 0.44188
vt 0.109375 0.609375
v 0.289645 0.706944 0.462333
vt 0.101562 0.609375
v 0.116508 0.572428 0.562527
vt 0.101562 0.523438
v 0.111069 0.564194 0.542074
vt 0.109375 0.523438
vn 0.65328 -0.746432 0.126745
v 0.26937 0.715661 0.439002
vt 0.117188 0.609375
v 0.284205 0.698711 0.44188
vt 0.109375 0.609375
v 0.111069 0.564194 0.542074
vt 0.109375 0.523438
v 0.0962339 0.581145 0.539196
vt 0.117188 0.523438
vn -0.239521 -0.362562 -0.900655
v 0.27481 0.723895 0.459454
vt 0.125 0.609375
v 0.26937 0.715661 0.439002
vt 0.117188 0.609375
v 0.0962339 0.581145 0.539196
vt 0.117188 0.523438
v 0.101673 0.589378 0.559649
vt 0.125 0.523438
vn -0.65328 0.746432 -0.126745
v 0.289645 0.706944 0.462333
vt 0.132812 0.609375
v 0.27481 0.723895 0.459454
vt 0.125 0.609375
v 0.101673 0.589378 0.559649
vt 0.125 0.523438
v 0.116508 0.572428 0.562527
vt 0.132812 0.523438
vn 0.239521 0.362562 0.900655
v 0.330889 0.762266 0.425059
vt 0.546875 0.796875
v 0.350054 0.710898 0.389212
vt 0.523438 0.796875
v 0.303006 0.674345 0.416438
vt 0.523438 0.773438
v 0.283841 0.725713 0.452286
vt 0.546875 0.773438
vn -0.631306 0.271439 -0.72648
v 0.350054 0.710898 0.389212
vt 0.523438 0.796875
v 0.330889 0.762266 0.425059
vt 0.546875 0.796875
v 0.283841 0.725713 0.452286
vt 0.546875 0.773438
v 0.303006 0.674345 0.416438
vt 0.523438 0.773438
vn 0.631306 -0.271439 0.72648
v 0.188192 0.692772 0.216511
vt 0.367188 0.898438
v 0.299515 0.724568 0.451567
vt 0.273438 0.898438
v 0.111323 0.578355 0.560474
vt 0.273438 0.804688
v 0 0.546558 0.325418
vt 0.367188 0.804688
vn 0.551033 -0.820905 -0.149924
v 0.299515 0.724568 0.451567
vt 0.273438 0.898438
v 0.188192 0.692772 0.216511
vt 0.367188 0.898438
v 0 0.546558 0.325418
vt 0.367188 0.804688
v 0.111323 0.578355 0.560474
vt 0.273438 0.804688
vn -0.551033 0.820905 0.149924
v 0.284481 0.731536 0.433892
vt 0.101562 0.4375
v 0.296994 0.712895 0.430487
vt 0.09375 0.4375
v 0.194577 0.683642 0.214235
vt 0.09375 0.351562
v 0.182063 0.702283 0.21764
vt 0.101562 0.351562
vn 0.71823 0.558022 -0.41564
v 0.165753 0.689611 0.227079
vt 0.109375 0.351562
v 0.178267 0.67097 0.223674
vt 0.101562 0.351562
v 0.280684 0.700223 0.439926
vt 0.101562 0.4375
v 0.268171 0.718864 0.44333
vt 0.109375 0.4375
vn -0.71823 -0.558022 0.41564
v 0.194577 0.683642 0.214235
vt 0.09375 0.351562
v 0.296994 0.712895 0.430487
vt 0.0078125 0.351562
v 0.280684 0.700223 0.439926
vt 0.0078125 0.34375
v 0.178267 0.67097 0.223674
vt 0.09375 0.34375
vn 0.551033 -0.820905 -0.149924
v 0.182063 0.702283 0.21764
vt 0.101562 0.351562
v 0.194577 0.683642 0.214235
vt 0.09375 0.351562
v 0.178267 0.67097 0.223674
vt 0.09375 0.34375
v 0.165753 0.689611 0.227079
vt 0.101562 0.34375
vn -0.424862 -0.121352 -0.897087
v 0.284481 0.731536 0.433892
vt 0.1875 0.351562
v 0.182063 0.702283 0.21764
vt 0.101562 0.351562
v 0.165753 0.689611 0.227079
vt 0.101562 0.34375
v 0.268171 0.718864 0.44333
vt 0.1875 0.34375
vn -0.551033 0.820905 0.149924
v 0.296994 0.712895 0.430487
vt 0.195312 0.351562
v 0.284481 0.731536 0.433892
vt 0.1875 0.351562
v 0.268171 0.718864 0.44333
vt 0.1875 0.34375
v 0.280684 0.700223 0.439926
vt 0.195312 0.34375
vn 0.424862 0.121352 0.897087
v 0.306007 0.557581 0.461162
vt 0.421875 0.726562
v 0.370952 0.552085 0.454612
vt 0.398438 0.726562
v 0.364906 0.558051 0.389659
vt 0.398438 0.703125
v 0.299961 0.563547 0.396209
vt 0.421875 0.703125
vn 0.092296 0.992303 0.082555
v 0.285854 0.411877 0.383591
vt 0.445312 0.703125
v 0.350799 0.406382 0.377041
vt 0.421875 0.703125
v 0.356845 0.400416 0.441993
vt 0.421875 0.726562
v 0.2919 0.405911 0.448543
vt 0.445312 0.726562
vn -0.092296 -0.992303 -0.082555
v 0.364906 0.558051 0.389659
vt 0.398438 0.703125
v 0.370952 0.552085 0.454612
vt 0.375 0.703125
v 0.356845 0.400416 0.441993
vt 0.375 0.648438
v 0.350799 0.406382 0.377041
vt 0.398438 0.648438
vn 0.991445 -0.083898 -0.099992
v 0.299961 0.563547 0.396209
vt 0.421875 0.703125
v 0.364906 0.558051 0.389659
vt 0.398438 0.703125
v 0.350799 0.406382 0.377041
vt 0.398438 0.648438
v 0.285854 0.411877 0.383591
vt 0.421875 0.648438
vn -0.092296 0.091077 -0.991558
v 0.306007 0.557581 0.461162
vt 0.445312 0.703125
v 0.299961 0.563547 0.396209
vt 0.421875 0.703125
v 0.285854 0.411877 0.383591
vt 0.421875 0.648438
v 0.2919 0.405911 0.448543
vt 0.445312 0.648438
vn -0.991445 0.083898 0.099992
v 0.370952 0.552085 0.454612
vt 0.46875 0.703125
v 0.306007 0.557581 0.461162
vt 0.445312 0.703125
v 0.2919 0.405911 0.448543
vt 0.445312 0.648438
v 0.356845 0.400416 0.441993
vt 0.46875 0.648438
vn 0.092296 -0.091077 0.991558
v 0.289619 0.387808 0.441118
vt 0.046875 0.617188
v 0.354564 0.382313 0.434568
vt 0.0234375 0.617188
v 0.35308 0.424485 0.384466
vt 0.0234375 0.59375
v 0.288135 0.42998 0.391016
vt 0.046875 0.59375
vn 0.128544 0.760585 0.636386
v 0.268487 0.313728 0.293747
vt 0.0703125 0.59375
v 0.333432 0.308232 0.287197
vt 0.046875 0.59375
v 0.334917 0.26606 0.3373
vt 0.046875 0.617188
v 0.269972 0.271556 0.34385
vt 0.0703125 0.617188
vn -0.128544 -0.760585 -0.636386
v 0.35308 0.424485 0.384466
vt 0.0234375 0.59375
v 0.354564 0.382313 0.434568
vt 0 0.59375
v 0.334917 0.26606 0.3373
vt 0 0.539062
v 0.333432 0.308232 0.287197
vt 0.0234375 0.539062
vn 0.991445 -0.083898 -0.099992
v 0.288135 0.42998 0.391016
vt 0.046875 0.59375
v 0.35308 0.424485 0.384466
vt 0.0234375 0.59375
v 0.333432 0.308232 0.287197
vt 0.0234375 0.539062
v 0.268487 0.313728 0.293747
vt 0.046875 0.539062
vn -0.022661 0.643795 -0.764863
v 0.289619 0.387808 0.441118
vt 0.0703125 0.59375
v 0.288135 0.42998 0.391016
vt 0.046875 0.59375
v 0.268487 0.313728 0.293747
vt 0.046875 0.539062
v 0.269972 0.271556 0.34385
vt 0.0703125 0.539062
vn -0.991445 0.083898 0.099992
v 0.354564 0.382313 0.434568
vt 0.09375 0.59375
v 0.289619 0.387808 0.441118
vt 0.0703125 0.59375
v 0.269972 0.271556 0.34385
vt 0.0703125 0.539062
v 0.334917 0.26606 0.3373
vt 0.09375 0.539062
vn 0.022661 -0.643795 0.764863
v 0.314838 0.319643 0.311626
vt 0.21875 0.539062
v 0.37975 0.32723 0.316089
vt 0.195312 0.539062
v 0.388425 0.277682 0.274127
vt 0.195312 0.515625
v 0.323514 0.270096 0.269665
vt 0.21875 0.515625
vn -0.022661 0.643795 -0.764863
v 0.37975 0.32723 0.316089
vt 0.195312 0.539062
v 0.314838 0.319643 0.311626
vt 0.21875 0.539062
v 0.323514 0.270096 0.269665
vt 0.21875 0.515625
v 0.388425 0.277682 0.274127
vt 0.195312 0.515625
vn 0.022661 -0.643795 0.764863
v 0.237987 0.268 0.349448
vt 0.164062 0.539062
v 0.293932 0.300389 0.338861
vt 0.140625 0.539062
v 0.313746 0.252911 0.298311
vt 0.140625 0.515625
v 0.257801 0.220522 0.308898
vt 0.164062 0.515625
vn -0.423219 0.479791 -0.768561
v 0.293932 0.300389 0.338861
vt 0.140625 0.539062
v 0.237987 0.268 0.349448
vt 0.164062 0.539062
v 0.257801 0.220522 0.308898
vt 0.164062 0.515625
v 0.313746 0.252911 0.298311
vt 0.140625 0.515625
vn 0.423219 -0.479791 0.768561
v 0.241467 0.308731 0.282697
vt 0.164062 0.539062
v 0.293437 0.314446 0.32216
vt 0.140625 0.539062
v 0.326293 0.271574 0.2851
vt 0.140625 0.515625
v 0.274323 0.265858 0.245637
vt 0.164062 0.515625
vn 0.344924 0.751023 -0.563021
v 0.293437 0.314446 0.32216
vt 0.140625 0.539062
v 0.241467 0.308731 0.282697
vt 0.164062 0.539062
v 0.274323 0.265858 0.245637
vt 0.164062 0.515625
v 0.326293 0.271574 0.2851
vt 0.140625 0.515625
vn -0.344924 -0.751023 0.563021
v 0.691873 0.563547 0.396209
vt 0.421875 0.703125
v 0.626928 0.558051 0.389659
vt 0.398438 0.703125
v 0.620882 0.552085 0.454612
vt 0.398438 0.726562
v 0.685827 0.557581 0.461162
vt 0.421875 0.726562
vn -0.092296 0.992303 0.082555
v 0.699934 0.405911 0.448543
vt 0.445312 0.726562
v 0.634989 0.400416 0.441993
vt 0.421875 0.726562
v 0.641035 0.406382 0.377041
vt 0.421875 0.703125
v 0.70598 0.411877 0.383591
vt 0.445312 0.703125
vn 0.092296 -0.992303 -0.082555
v 0.641035 0.406382 0.377041
vt 0.398438 0.648438
v 0.634989 0.400416 0.441993
vt 0.375 0.648438
v 0.620882 0.552085 0.454612
vt 0.375 0.703125
v 0.626928 0.558051 0.389659
vt 0.398438 0.703125
vn -0.991445 -0.083898 -0.099992
v 0.70598 0.411877 0.383591
vt 0.421875 0.648438
v 0.641035 0.406382 0.377041
vt 0.398438 0.648438
v 0.626928 0.558051 0.389659
vt 0.398438 0.703125
v 0.691873 0.563547 0.396209
vt 0.421875 0.703125
vn 0.092296 0.091077 -0.991558
v 0.699934 0.405911 0.448543
vt 0.445312 0.648438
v 0.70598 0.411877 0.383591
vt 0.421875 0.648438
v 0.691873 0.563547 0.396209
vt 0.421875 0.703125
v 0.685827 0.557581 0.461162
vt 0.445312 0.703125
vn 0.991445 0.083898 0.099992
v 0.634989 0.400416 0.441993
vt 0.46875 0.648438
v 0.699934 0.405911 0.448543
vt 0.445312 0.648438
v 0.685827 0.557581 0.461162
vt 0.445312 0.703125
v 0.620882 0.552085 0.454612
vt 0.46875 0.703125
vn -0.092296 -0.091077 0.991558
v 0.703699 0.42998 0.391016
vt 0.046875 0.59375
v 0.638754 0.424485 0.384466
vt 0.0234375 0.59375
v 0.63727 0.382313 0.434568
vt 0.0234375 0.617188
v 0.702215 0.387808 0.441118
vt 0.046875 0.617188
vn -0.128544 0.760585 0.636386
v 0.721862 0.271556 0.34385
vt 0.0703125 0.617188
v 0.656917 0.26606 0.3373
vt 0.046875 0.617188
v 0.658402 0.308232 0.287197
vt 0.046875 0.59375
v 0.723347 0.313728 0.293747
vt 0.0703125 0.59375
vn 0.128544 -0.760585 -0.636386
v 0.658402 0.308232 0.287197
vt 0.0234375 0.539062
v 0.656917 0.26606 0.3373
vt 0 0.539062
v 0.63727 0.382313 0.434568
vt 0 0.59375
v 0.638754 0.424485 0.384466
vt 0.0234375 0.59375
vn -0.991445 -0.083898 -0.099992
v 0.723347 0.313728 0.293747
vt 0.046875 0.539062
v 0.658402 0.308232 0.287197
vt 0.0234375 0.539062
v 0.638754 0.424485 0.384466
vt 0.0234375 0.59375
v 0.703699 0.42998 0.391016
vt 0.046875 0.59375
vn 0.022661 0.643795 -0.764863
v 0.721862 0.271556 0.34385
vt 0.0703125 0.539062
v 0.723347 0.313728 0.293747
vt 0.046875 0.539062
v 0.703699 0.42998 0.391016
vt 0.046875 0.59375
v 0.702215 0.387808 0.441118
vt 0.0703125 0.59375
vn 0.991445 0.083898 0.099992
v 0.656917 0.26606 0.3373
vt 0.09375 0.539062
v 0.721862 0.271556 0.34385
vt 0.0703125 0.539062
v 0.702215 0.387808 0.441118
vt 0.0703125 0.59375
v 0.63727 0.382313 0.434568
vt 0.09375 0.59375
vn -0.022661 -0.643795 0.764863
v 0.701938 0.272941 0.273055
vt 0.21875 0.515625
v 0.641386 0.254737 0.255939
vt 0.195312 0.515625
v 0.616443 0.301439 0.29451
vt 0.195312 0.539062
v 0.676996 0.319643 0.311626
vt 0.21875 0.539062
vn 0.022661 0.643795 -0.764863
v 0.641386 0.254737 0.255939
vt 0.195312 0.515625
v 0.701938 0.272941 0.273055
vt 0.21875 0.515625
v 0.676996 0.319643 0.311626
vt 0.21875 0.539062
v 0.616443 0.301439 0.29451
vt 0.195312 0.539062
vn -0.022661 -0.643795 0.764863
v 0.74743 0.226144 0.314028
vt 0.164062 0.515625
v 0.689226 0.250842 0.296899
vt 0.140625 0.515625
v 0.697902 0.300389 0.338861
vt 0.140625 0.539062
v 0.756105 0.275692 0.355989
vt 0.164062 0.539062
vn 0.439295 0.534543 -0.722
v 0.689226 0.250842 0.296899
vt 0.140625 0.515625
v 0.74743 0.226144 0.314028
vt 0.164062 0.515625
v 0.756105 0.275692 0.355989
vt 0.164062 0.539062
v 0.697902 0.300389 0.338861
vt 0.140625 0.539062
vn -0.439295 -0.534543 0.722
v 0.706072 0.264744 0.244361
vt 0.164062 0.515625
v 0.658428 0.27533 0.288052
vt 0.140625 0.515625
v 0.698397 0.314446 0.32216
vt 0.140625 0.539062
v 0.746041 0.30386 0.278469
vt 0.164062 0.539062
vn -0.314132 0.78569 -0.532928
v 0.658428 0.27533 0.288052
vt 0.140625 0.515625
v 0.706072 0.264744 0.244361
vt 0.164062 0.515625
v 0.746041 0.30386 0.278469
vt 0.164062 0.539062
v 0.698397 0.314446 0.32216
vt 0.140625 0.539062
vn 0.314132 -0.78569 0.532928
v 0.463164 0.35429 0.561636
vt 0.195312 0.632812
v 0.52867 0.35429 0.561636
vt 0.171875 0.632812
v 0.52867 0.30797 0.515317
vt 0.171875 0.609375
v 0.463164 0.30797 0.515317
vt 0.195312 0.609375
vn 0 0.707105 -0.707108
v 0.463164 0.184452 0.638836
vt 0.21875 0.609375
v 0.52867 0.184452 0.638836
vt 0.195312 0.609375
v 0.52867 0.230772 0.685155
vt 0.195312 0.632812
v 0.463164 0.230772 0.685155
vt 0.21875 0.632812
vn 0 -0.707105 0.707108
v 0.52867 0.30797 0.515317
vt 0.171875 0.609375
v 0.52867 0.35429 0.561636
vt 0.148438 0.609375
v 0.52867 0.230772 0.685155
vt 0.148438 0.546875
v 0.52867 0.184452 0.638836
vt 0.171875 0.546875
vn 1 0 -0
v 0.463164 0.30797 0.515317
vt 0.195312 0.609375
v 0.52867 0.30797 0.515317
vt 0.171875 0.609375
v 0.52867 0.184452 0.638836
vt 0.171875 0.546875
v 0.463164 0.184452 0.638836
vt 0.195312 0.546875
vn 0 -0.707108 -0.707105
v 0.463164 0.35429 0.561636
vt 0.21875 0.609375
v 0.463164 0.30797 0.515317
vt 0.195312 0.609375
v 0.463164 0.184452 0.638836
vt 0.195312 0.546875
v 0.463164 0.230772 0.685155
vt 0.21875 0.546875
vn -1 -0 0
v 0.52867 0.35429 0.561636
vt 0.242188 0.609375
v 0.463164 0.35429 0.561636
vt 0.21875 0.609375
v 0.463164 0.230772 0.685155
vt 0.21875 0.546875
v 0.52867 0.230772 0.685155
vt 0.242188 0.546875
vn 0 0.707108 0.707105
v 0.474082 0.234034 0.662427
vt 0.398438 0.570312
v 0.517752 0.234034 0.662427
vt 0.382812 0.570312
v 0.517752 0.197202 0.638965
vt 0.382812 0.554688
v 0.474082 0.197202 0.638965
vt 0.398438 0.554688
vn 0 0.53727 -0.843411
v 0.474082 0.115083 0.767877
vt 0.414062 0.554688
v 0.517752 0.115083 0.767877
vt 0.398438 0.554688
v 0.517752 0.151915 0.791339
vt 0.398438 0.570312
v 0.474082 0.151915 0.791339
vt 0.414062 0.570312
vn 0 -0.53727 0.843411
v 0.517752 0.197202 0.638965
vt 0.382812 0.554688
v 0.517752 0.234034 0.662427
vt 0.367188 0.554688
v 0.517752 0.151915 0.791339
vt 0.367188 0.5
v 0.517752 0.115083 0.767877
vt 0.382812 0.5
vn 1 0 -0
v 0.474082 0.197202 0.638965
vt 0.398438 0.554688
v 0.517752 0.197202 0.638965
vt 0.382812 0.554688
v 0.517752 0.115083 0.767877
vt 0.382812 0.5
v 0.474082 0.115083 0.767877
vt 0.398438 0.5
vn 0 -0.843411 -0.53727
v 0.474082 0.234034 0.662427
vt 0.414062 0.554688
v 0.474082 0.197202 0.638965
vt 0.398438 0.554688
v 0.474082 0.115083 0.767877
vt 0.398438 0.5
v 0.474082 0.151915 0.791339
vt 0.414062 0.5
vn -1 -0 0
v 0.517752 0.234034 0.662427
vt 0.429688 0.554688
v 0.474082 0.234034 0.662427
vt 0.414062 0.554688
v 0.474082 0.151915 0.791339
vt 0.414062 0.5
v 0.517752 0.151915 0.791339
vt 0.429688 0.5
vn 0 0.843411 0.53727
v 0.652381 0.287707 0.368031
vt 0.28125 0.664062
v 0.588429 0.284037 0.354334
vt 0.257812 0.664062
v 0.55076 0.342719 0.514493
vt 0.257812 0.726562
v 0.614712 0.346389 0.528189
vt 0.28125 0.726562
vn 0.018874 0.940216 -0.340055
v 0.613475 0.2848 0.550465
vt 0.304688 0.726562
v 0.549523 0.28113 0.536768
vt 0.28125 0.726562
v 0.587193 0.222448 0.376609
vt 0.28125 0.664062
v 0.651145 0.226118 0.390306
vt 0.304688 0.664062
vn -0.018874 -0.940216 0.340055
v 0.587193 0.222448 0.376609
vt 0.257812 0.640625
v 0.549523 0.28113 0.536768
vt 0.195312 0.640625
v 0.55076 0.342719 0.514493
vt 0.195312 0.664062
v 0.588429 0.284037 0.354334
vt 0.257812 0.664062
vn -0.976289 -0.056027 -0.209096
v 0.651145 0.226118 0.390306
vt 0.28125 0.640625
v 0.587193 0.222448 0.376609
vt 0.257812 0.640625
v 0.588429 0.284037 0.354334
vt 0.257812 0.664062
v 0.652381 0.287707 0.368031
vt 0.28125 0.664062
vn 0.215648 -0.335939 -0.916865
v 0.613475 0.2848 0.550465
vt 0.34375 0.640625
v 0.651145 0.226118 0.390306
vt 0.28125 0.640625
v 0.652381 0.287707 0.368031
vt 0.28125 0.664062
v 0.614712 0.346389 0.528189
vt 0.34375 0.664062
vn 0.976289 0.056027 0.209096
v 0.549523 0.28113 0.536768
vt 0.367188 0.640625
v 0.613475 0.2848 0.550465
vt 0.34375 0.640625
v 0.614712 0.346389 0.528189
vt 0.34375 0.664062
v 0.55076 0.342719 0.514493
vt 0.367188 0.664062
vn -0.215648 0.335939 0.916865
v 0.64795 0.230573 0.393586
vt 0.445312 0.617188
v 0.588262 0.227148 0.380802
vt 0.421875 0.617188
v 0.575341 0.255014 0.433664
vt 0.421875 0.640625
v 0.635029 0.25844 0.446448
vt 0.445312 0.640625
vn 0.04686 0.888323 -0.456821
v 0.630118 0.165336 0.494327
vt 0.46875 0.640625
v 0.570429 0.16191 0.481543
vt 0.445312 0.640625
v 0.58335 0.134044 0.428681
vt 0.445312 0.617188
v 0.643039 0.137469 0.441465
vt 0.46875 0.617188
vn -0.04686 -0.888323 0.456821
v 0.58335 0.134044 0.428681
vt 0.421875 0.578125
v 0.570429 0.16191 0.481543
vt 0.398438 0.578125
v 0.575341 0.255014 0.433664
vt 0.398438 0.617188
v 0.588262 0.227148 0.380802
vt 0.421875 0.617188
vn -0.976289 -0.056027 -0.209096
v 0.643039 0.137469 0.441465
vt 0.445312 0.578125
v 0.58335 0.134044 0.428681
vt 0.421875 0.578125
v 0.588262 0.227148 0.380802
vt 0.421875 0.617188
v 0.64795 0.230573 0.393586
vt 0.445312 0.617188
vn 0.21134 -0.455788 -0.864635
v 0.630118 0.165336 0.494327
vt 0.46875 0.578125
v 0.643039 0.137469 0.441465
vt 0.445312 0.578125
v 0.64795 0.230573 0.393586
vt 0.445312 0.617188
v 0.635029 0.25844 0.446448
vt 0.46875 0.617188
vn 0.976289 0.056027 0.209096
v 0.570429 0.16191 0.481543
vt 0.492188 0.578125
v 0.630118 0.165336 0.494327
vt 0.46875 0.578125
v 0.635029 0.25844 0.446448
vt 0.46875 0.617188
v 0.575341 0.255014 0.433664
vt 0.492188 0.617188
vn -0.21134 0.455788 0.864635
v 0.612392 0.0951249 0.397496
vt 0.484375 0.9375
v 0.633709 0.0963483 0.402062
vt 0.476562 0.9375
v 0.647233 0.0995868 0.33805
vt 0.476562 0.914062
v 0.625916 0.0983635 0.333484
vt 0.484375 0.914062
vn -0.065088 0.997204 0.0367
v 0.627337 0.0765894 0.332683
vt 0.492188 0.914062
v 0.648654 0.0778127 0.337248
vt 0.484375 0.914062
v 0.63513 0.0745742 0.401261
vt 0.484375 0.9375
v 0.613813 0.0733508 0.396695
vt 0.492188 0.9375
vn 0.065088 -0.997204 -0.0367
v 0.647233 0.0995868 0.33805
vt 0.476562 0.914062
v 0.633709 0.0963483 0.402062
vt 0.453125 0.914062
v 0.63513 0.0745742 0.401261
vt 0.453125 0.90625
v 0.648654 0.0778127 0.337248
vt 0.476562 0.90625
vn 0.976289 0.056027 0.209096
v 0.625916 0.0983635 0.333484
vt 0.484375 0.914062
v 0.647233 0.0995868 0.33805
vt 0.476562 0.914062
v 0.648654 0.0778127 0.337248
vt 0.476562 0.90625
v 0.627337 0.0765894 0.332683
vt 0.484375 0.90625
vn 0.206456 0.049439 -0.977206
v 0.612392 0.0951249 0.397496
vt 0.507812 0.914062
v 0.625916 0.0983635 0.333484
vt 0.484375 0.914062
v 0.627337 0.0765894 0.332683
vt 0.484375 0.90625
v 0.613813 0.0733508 0.396695
vt 0.507812 0.90625
vn -0.976289 -0.056027 -0.209096
v 0.633709 0.0963483 0.402062
vt 0.515625 0.914062
v 0.612392 0.0951249 0.397496
vt 0.507812 0.914062
v 0.613813 0.0733508 0.396695
vt 0.507812 0.90625
v 0.63513 0.0745742 0.401261
vt 0.515625 0.90625
vn -0.206456 -0.049439 0.977206
v 0.590839 0.0937992 0.395294
vt 0.484375 0.9375
v 0.612627 0.0952273 0.395133
vt 0.476562 0.9375
v 0.611986 0.0975945 0.329673
vt 0.476562 0.914062
v 0.590198 0.0961665 0.329835
vt 0.484375 0.914062
vn -0.065088 0.997204 0.0367
v 0.59162 0.0743924 0.329034
vt 0.492188 0.914062
v 0.613407 0.0758204 0.328872
vt 0.484375 0.914062
v 0.614048 0.0734532 0.394331
vt 0.484375 0.9375
v 0.59226 0.0720251 0.394493
vt 0.492188 0.9375
vn 0.065088 -0.997204 -0.0367
v 0.611986 0.0975945 0.329673
vt 0.476562 0.914062
v 0.612627 0.0952273 0.395133
vt 0.453125 0.914062
v 0.614048 0.0734532 0.394331
vt 0.453125 0.90625
v 0.613407 0.0758204 0.328872
vt 0.476562 0.90625
vn 0.997832 0.065401 -0.0074
v 0.590198 0.0961665 0.329835
vt 0.484375 0.914062
v 0.611986 0.0975945 0.329673
vt 0.476562 0.914062
v 0.613407 0.0758204 0.328872
vt 0.476562 0.90625
v 0.59162 0.0743924 0.329034
vt 0.484375 0.90625
vn -0.009779 0.036139 -0.999299
v 0.590839 0.0937992 0.395294
vt 0.507812 0.914062
v 0.590198 0.0961665 0.329835
vt 0.484375 0.914062
v 0.59162 0.0743924 0.329034
vt 0.484375 0.90625
v 0.59226 0.0720251 0.394493
vt 0.507812 0.90625
vn -0.997832 -0.065401 0.0074
v 0.612627 0.0952273 0.395133
vt 0.515625 0.914062
v 0.590839 0.0937992 0.395294
vt 0.507812 0.914062
v 0.59226 0.0720251 0.394493
vt 0.507812 0.90625
v 0.614048 0.0734532 0.394331
vt 0.515625 0.90625
vn 0.009779 -0.036139 0.999299
v 0.63445 0.0964796 0.399807
vt 0.484375 0.9375
v 0.654286 0.0974403 0.408883
vt 0.476562 0.9375
v 0.681333 0.101397 0.349354
vt 0.476562 0.914062
v 0.661497 0.100436 0.340277
vt 0.484375 0.914062
vn -0.065088 0.997204 0.0367
v 0.662918 0.0786618 0.339476
vt 0.492188 0.914062
v 0.682754 0.0796224 0.348552
vt 0.484375 0.914062
v 0.655707 0.0756662 0.408082
vt 0.484375 0.9375
v 0.635871 0.0747056 0.399005
vt 0.492188 0.9375
vn 0.065088 -0.997204 -0.0367
v 0.681333 0.101397 0.349354
vt 0.476562 0.914062
v 0.654286 0.0974403 0.408883
vt 0.453125 0.914062
v 0.655707 0.0756662 0.408082
vt 0.453125 0.90625
v 0.682754 0.0796224 0.348552
vt 0.476562 0.90625
vn 0.908448 0.043997 0.415677
v 0.661497 0.100436 0.340277
vt 0.484375 0.914062
v 0.681333 0.101397 0.349354
vt 0.476562 0.914062
v 0.682754 0.0796224 0.348552
vt 0.476562 0.90625
v 0.662918 0.0786618 0.339476
vt 0.484375 0.90625
vn 0.4129 0.060395 -0.908772
v 0.63445 0.0964796 0.399807
vt 0.507812 0.914062
v 0.661497 0.100436 0.340277
vt 0.484375 0.914062
v 0.662918 0.0786618 0.339476
vt 0.484375 0.90625
v 0.635871 0.0747056 0.399005
vt 0.507812 0.90625
vn -0.908448 -0.043997 -0.415677
v 0.654286 0.0974403 0.408883
vt 0.515625 0.914062
v 0.63445 0.0964796 0.399807
vt 0.507812 0.914062
v 0.635871 0.0747056 0.399005
vt 0.507812 0.90625
v 0.655707 0.0756662 0.408082
vt 0.515625 0.90625
vn -0.4129 -0.060395 0.908772
v 0.653841 0.111093 0.387652
vt 0.0703125 0.640625
v 0.598416 0.107912 0.375781
vt 0.046875 0.640625
v 0.573172 0.172903 0.476233
vt 0.046875 0.6875
v 0.628598 0.176084 0.488104
vt 0.0703125 0.6875
vn 0.065108 0.845201 -0.530468
v 0.626323 0.146556 0.506636
vt 0.09375 0.6875
v 0.570898 0.143375 0.494765
vt 0.0703125 0.6875
v 0.596142 0.0783843 0.394314
vt 0.0703125 0.640625
v 0.651567 0.081565 0.406184
vt 0.09375 0.640625
vn -0.065108 -0.845201 0.530468
v 0.596142 0.0783843 0.394314
vt 0.046875 0.625
v 0.570898 0.143375 0.494765
vt 0 0.625
v 0.573172 0.172903 0.476233
vt 0 0.640625
v 0.598416 0.107912 0.375781
vt 0.046875 0.640625
vn -0.976289 -0.056027 -0.209096
v 0.651567 0.081565 0.406184
vt 0.0703125 0.625
v 0.596142 0.0783843 0.394314
vt 0.046875 0.625
v 0.598416 0.107912 0.375781
vt 0.046875 0.640625
v 0.653841 0.111093 0.387652
vt 0.0703125 0.640625
vn 0.206449 -0.531504 -0.821512
v 0.626323 0.146556 0.506636
vt 0.117188 0.625
v 0.651567 0.081565 0.406184
vt 0.0703125 0.625
v 0.653841 0.111093 0.387652
vt 0.0703125 0.640625
v 0.628598 0.176084 0.488104
vt 0.117188 0.640625
vn 0.976289 0.056027 0.209096
v 0.570898 0.143375 0.494765
vt 0.140625 0.625
v 0.626323 0.146556 0.506636
vt 0.117188 0.625
v 0.628598 0.176084 0.488104
vt 0.117188 0.640625
v 0.573172 0.172903 0.476233
vt 0.140625 0.640625
vn -0.206449 0.531504 0.821512
v 0.377123 0.346389 0.528189
vt 0.28125 0.726562
v 0.441075 0.342719 0.514493
vt 0.257812 0.726562
v 0.403405 0.284037 0.354334
vt 0.257812 0.664062
v 0.339453 0.287707 0.368031
vt 0.28125 0.664062
vn -0.018874 0.940216 -0.340055
v 0.340689 0.226118 0.390306
vt 0.304688 0.664062
v 0.404641 0.222448 0.376609
vt 0.28125 0.664062
v 0.442311 0.28113 0.536768
vt 0.28125 0.726562
v 0.378359 0.2848 0.550465
vt 0.304688 0.726562
vn 0.018874 -0.940216 0.340055
v 0.403405 0.284037 0.354334
vt 0.257812 0.664062
v 0.441075 0.342719 0.514493
vt 0.195312 0.664062
v 0.442311 0.28113 0.536768
vt 0.195312 0.640625
v 0.404641 0.222448 0.376609
vt 0.257812 0.640625
vn 0.976289 -0.056027 -0.209096
v 0.339453 0.287707 0.368031
vt 0.28125 0.664062
v 0.403405 0.284037 0.354334
vt 0.257812 0.664062
v 0.404641 0.222448 0.376609
vt 0.257812 0.640625
v 0.340689 0.226118 0.390306
vt 0.28125 0.640625
vn -0.215648 -0.335939 -0.916865
v 0.377123 0.346389 0.528189
vt 0.34375 0.664062
v 0.339453 0.287707 0.368031
vt 0.28125 0.664062
v 0.340689 0.226118 0.390306
vt 0.28125 0.640625
v 0.378359 0.2848 0.550465
vt 0.34375 0.640625
vn -0.976289 0.056027 0.209096
v 0.441075 0.342719 0.514493
vt 0.367188 0.664062
v 0.377123 0.346389 0.528189
vt 0.34375 0.664062
v 0.378359 0.2848 0.550465
vt 0.34375 0.640625
v 0.442311 0.28113 0.536768
vt 0.367188 0.640625
vn 0.215648 0.335939 0.916865
v 0.356805 0.25844 0.446448
vt 0.445312 0.640625
v 0.416494 0.255014 0.433664
vt 0.421875 0.640625
v 0.403573 0.227148 0.380802
vt 0.421875 0.617188
v 0.343884 0.230573 0.393586
vt 0.445312 0.617188
vn -0.04686 0.888323 -0.456821
v 0.348795 0.137469 0.441465
vt 0.46875 0.617188
v 0.408484 0.134044 0.428681
vt 0.445312 0.617188
v 0.421405 0.16191 0.481543
vt 0.445312 0.640625
v 0.361716 0.165336 0.494327
vt 0.46875 0.640625
vn 0.04686 -0.888323 0.456821
v 0.403573 0.227148 0.380802
vt 0.421875 0.617188
v 0.416494 0.255014 0.433664
vt 0.398438 0.617188
v 0.421405 0.16191 0.481543
vt 0.398438 0.578125
v 0.408484 0.134044 0.428681
vt 0.421875 0.578125
vn 0.976289 -0.056027 -0.209096
v 0.343884 0.230573 0.393586
vt 0.445312 0.617188
v 0.403573 0.227148 0.380802
vt 0.421875 0.617188
v 0.408484 0.134044 0.428681
vt 0.421875 0.578125
v 0.348795 0.137469 0.441465
vt 0.445312 0.578125
vn -0.21134 -0.455788 -0.864635
v 0.356805 0.25844 0.446448
vt 0.46875 0.617188
v 0.343884 0.230573 0.393586
vt 0.445312 0.617188
v 0.348795 0.137469 0.441465
vt 0.445312 0.578125
v 0.361716 0.165336 0.494327
vt 0.46875 0.578125
vn -0.976289 0.056027 0.209096
v 0.416494 0.255014 0.433664
vt 0.492188 0.617188
v 0.356805 0.25844 0.446448
vt 0.46875 0.617188
v 0.361716 0.165336 0.494327
vt 0.46875 0.578125
v 0.421405 0.16191 0.481543
vt 0.492188 0.578125
vn 0.21134 0.455788 0.864635
v 0.358125 0.0963483 0.402062
vt 0.484375 0.9375
v 0.379443 0.0951249 0.397496
vt 0.476562 0.9375
v 0.365919 0.0983635 0.333484
vt 0.476562 0.914062
v 0.344601 0.0995868 0.33805
vt 0.484375 0.914062
vn 0.065088 0.997204 0.0367
v 0.34318 0.0778127 0.337248
vt 0.492188 0.914062
v 0.364498 0.0765894 0.332683
vt 0.484375 0.914062
v 0.378021 0.0733508 0.396695
vt 0.484375 0.9375
v 0.356704 0.0745742 0.401261
vt 0.492188 0.9375
vn -0.065088 -0.997204 -0.0367
v 0.365919 0.0983635 0.333484
vt 0.476562 0.914062
v 0.379443 0.0951249 0.397496
vt 0.453125 0.914062
v 0.378021 0.0733508 0.396695
vt 0.453125 0.90625
v 0.364498 0.0765894 0.332683
vt 0.476562 0.90625
vn 0.976289 -0.056027 -0.209096
v 0.344601 0.0995868 0.33805
vt 0.484375 0.914062
v 0.365919 0.0983635 0.333484
vt 0.476562 0.914062
v 0.364498 0.0765894 0.332683
vt 0.476562 0.90625
v 0.34318 0.0778127 0.337248
vt 0.484375 0.90625
vn -0.206456 0.049439 -0.977206
v 0.358125 0.0963483 0.402062
vt 0.507812 0.914062
v 0.344601 0.0995868 0.33805
vt 0.484375 0.914062
v 0.34318 0.0778127 0.337248
vt 0.484375 0.90625
v 0.356704 0.0745742 0.401261
vt 0.507812 0.90625
vn -0.976289 0.056027 0.209096
v 0.379443 0.0951249 0.397496
vt 0.515625 0.914062
v 0.358125 0.0963483 0.402062
vt 0.507812 0.914062
v 0.356704 0.0745742 0.401261
vt 0.507812 0.90625
v 0.378021 0.0733508 0.396695
vt 0.515625 0.90625
vn 0.206456 -0.049439 0.977206
v 0.337549 0.0974403 0.408883
vt 0.484375 0.9375
v 0.357385 0.0964796 0.399807
vt 0.476562 0.9375
v 0.330337 0.100436 0.340277
vt 0.476562 0.914062
v 0.310501 0.101397 0.349354
vt 0.484375 0.914062
vn 0.065088 0.997204 0.0367
v 0.30908 0.0796224 0.348552
vt 0.492188 0.914062
v 0.328916 0.0786618 0.339476
vt 0.484375 0.914062
v 0.355963 0.0747056 0.399005
vt 0.484375 0.9375
v 0.336127 0.0756662 0.408082
vt 0.492188 0.9375
vn -0.065088 -0.997204 -0.0367
v 0.330337 0.100436 0.340277
vt 0.476562 0.914062
v 0.357385 0.0964796 0.399807
vt 0.453125 0.914062
v 0.355963 0.0747056 0.399005
vt 0.453125 0.90625
v 0.328916 0.0786618 0.339476
vt 0.476562 0.90625
vn 0.908448 -0.043997 -0.415677
v 0.310501 0.101397 0.349354
vt 0.484375 0.914062
v 0.330337 0.100436 0.340277
vt 0.476562 0.914062
v 0.328916 0.0786618 0.339476
vt 0.476562 0.90625
v 0.30908 0.0796224 0.348552
vt 0.484375 0.90625
vn -0.4129 0.060395 -0.908772
v 0.337549 0.0974403 0.408883
vt 0.507812 0.914062
v 0.310501 0.101397 0.349354
vt 0.484375 0.914062
v 0.30908 0.0796224 0.348552
vt 0.484375 0.90625
v 0.336127 0.0756662 0.408082
vt 0.507812 0.90625
vn -0.908448 0.043997 0.415677
v 0.357385 0.0964796 0.399807
vt 0.515625 0.914062
v 0.337549 0.0974403 0.408883
vt 0.507812 0.914062
v 0.336127 0.0756662 0.408082
vt 0.507812 0.90625
v 0.355963 0.0747056 0.399005
vt 0.515625 0.90625
vn 0.4129 -0.060395 0.908772
v 0.379208 0.0952273 0.395133
vt 0.484375 0.9375
v 0.400995 0.0937992 0.395294
vt 0.476562 0.9375
v 0.401636 0.0961665 0.329835
vt 0.476562 0.914062
v 0.379848 0.0975945 0.329673
vt 0.484375 0.914062
vn 0.065088 0.997204 0.0367
v 0.378427 0.0758204 0.328872
vt 0.492188 0.914062
v 0.400215 0.0743924 0.329034
vt 0.484375 0.914062
v 0.399574 0.0720251 0.394493
vt 0.484375 0.9375
v 0.377786 0.0734532 0.394331
vt 0.492188 0.9375
vn -0.065088 -0.997204 -0.0367
v 0.401636 0.0961665 0.329835
vt 0.476562 0.914062
v 0.400995 0.0937992 0.395294
vt 0.453125 0.914062
v 0.399574 0.0720251 0.394493
vt 0.453125 0.90625
v 0.400215 0.0743924 0.329034
vt 0.476562 0.90625
vn 0.997832 -0.065401 0.0074
v 0.379848 0.0975945 0.329673
vt 0.484375 0.914062
v 0.401636 0.0961665 0.329835
vt 0.476562 0.914062
v 0.400215 0.0743924 0.329034
vt 0.476562 0.90625
v 0.378427 0.0758204 0.328872
vt 0.484375 0.90625
vn 0.009779 0.036139 -0.999299
v 0.379208 0.0952273 0.395133
vt 0.507812 0.914062
v 0.379848 0.0975945 0.329673
vt 0.484375 0.914062
v 0.378427 0.0758204 0.328872
vt 0.484375 0.90625
v 0.377786 0.0734532 0.394331
vt 0.507812 0.90625
vn -0.997832 0.065401 -0.0074
v 0.400995 0.0937992 0.395294
vt 0.515625 0.914062
v 0.379208 0.0952273 0.395133
vt 0.507812 0.914062
v 0.377786 0.0734532 0.394331
vt 0.507812 0.90625
v 0.399574 0.0720251 0.394493
vt 0.515625 0.90625
vn -0.009779 -0.036139 0.999299
v 0.363237 0.176084 0.488104
vt 0.0703125 0.6875
v 0.418662 0.172903 0.476233
vt 0.046875 0.6875
v 0.393418 0.107912 0.375781
vt 0.046875 0.640625
v 0.337993 0.111093 0.387652
vt 0.0703125 0.640625
vn -0.065108 0.845201 -0.530468
v 0.340267 0.081565 0.406184
vt 0.09375 0.640625
v 0.395693 0.0783843 0.394314
vt 0.0703125 0.640625
v 0.420937 0.143375 0.494765
vt 0.0703125 0.6875
v 0.365511 0.146556 0.506636
vt 0.09375 0.6875
vn 0.065108 -0.845201 0.530468
v 0.393418 0.107912 0.375781
vt 0.046875 0.640625
v 0.418662 0.172903 0.476233
vt 0 0.640625
v 0.420937 0.143375 0.494765
vt 0 0.625
v 0.395693 0.0783843 0.394314
vt 0.046875 0.625
vn 0.976289 -0.056027 -0.209096
v 0.337993 0.111093 0.387652
vt 0.0703125 0.640625
v 0.393418 0.107912 0.375781
vt 0.046875 0.640625
v 0.395693 0.0783843 0.394314
vt 0.046875 0.625
v 0.340267 0.081565 0.406184
vt 0.0703125 0.625
vn -0.206449 -0.531504 -0.821512
v 0.363237 0.176084 0.488104
vt 0.117188 0.640625
v 0.337993 0.111093 0.387652
vt 0.0703125 0.640625
v 0.340267 0.081565 0.406184
vt 0.0703125 0.625
v 0.365511 0.146556 0.506636
vt 0.117188 0.625
vn -0.976289 0.056027 0.209096
v 0.418662 0.172903 0.476233
vt 0.140625 0.640625
v 0.363237 0.176084 0.488104
vt 0.117188 0.640625
v 0.365511 0.146556 0.506636
vt 0.117188 0.625
v 0.420937 0.143375 0.494765
vt 0.140625 0.625
vn 0.206449 0.531504 0.821512
v 0.331941 0 0.668059
vt 0.0625 0.9375
v 0.331941 0 0.331941
vt 0.0625 0.0625
v 0.668059 0 0.331941
vt 0.9375 0.0625
v 0.668059 0 0.668059
vt 0.9375 0.9375
vn 0 -1 0
v 0.331941 0.0720251 0.331941
vt 0.0625 0.9375
v 0.331941 0.0720251 0.668059
vt 0.0625 0.0625
v 0.668059 0.0720251 0.668059
vt 0.9375 0.0625
v 0.668059 0.0720251 0.331941
vt 0.9375 0.9375
vn 0 1 0
v 0.668059 0.0720251 0.331941
vt 0.0625 0.1875
v 0.668059 0 0.331941
vt 0.0625 0
v 0.331941 0 0.331941
vt 0.9375 0
v 0.331941 0.0720251 0.331941
vt 0.9375 0.1875
vn 0 -0 -1
v 0.331941 0.0720251 0.668059
vt 0.0625 0.1875
v 0.331941 0 0.668059
vt 0.0625 0
v 0.668059 0 0.668059
vt 0.9375 0
v 0.668059 0.0720251 0.668059
vt 0.9375 0.1875
vn 0 0 1
v 0.331941 0.0720251 0.331941
vt 0.0625 0.1875
v 0.331941 0 0.331941
vt 0.0625 0
v 0.331941 0 0.668059
vt 0.9375 0
v 0.331941 0.0720251 0.668059
vt 0.9375 0.1875
vn -1 0 0
v 0.668059 0.0720251 0.668059
vt 0.0625 0.1875
v 0.668059 0 0.668059
vt 0.0625 0
v 0.668059 0 0.331941
vt 0.9375 0
v 0.668059 0.0720251 0.331941
vt 0.9375 0.1875
vn 1 0 0
usemtl stone
f 1/1/1 2/2/1 3/3/1 4/4/1
f 5/5/2 6/6/2 7/7/2 8/8/2
f 9/9/3 10/10/3 11/11/3 12/12/3
f 13/13/4 14/14/4 15/15/4 16/16/4
f 17/17/5 18/18/5 19/19/5 20/20/5
f 21/21/6 22/22/6 23/23/6 24/24/6
f 25/25/7 26/26/7 27/27/7 28/28/7
f 29/29/8 30/30/8 31/31/8 32/32/8
f 33/33/9 34/34/9 35/35/9 36/36/9
f 37/37/10 38/38/10 39/39/10 40/40/10
f 41/41/11 42/42/11 43/43/11 44/44/11
f 45/45/12 46/46/12 47/47/12 48/48/12
f 49/49/13 50/50/13 51/51/13 52/52/13
f 53/53/14 54/54/14 55/55/14 56/56/14
f 57/57/15 58/58/15 59/59/15 60/60/15
f 61/61/16 62/62/16 63/63/16 64/64/16
f 65/65/17 66/66/17 67/67/17 68/68/17
f 69/69/18 70/70/18 71/71/18 72/72/18
f 73/73/19 74/74/19 75/75/19 76/76/19
f 77/77/20 78/78/20 79/79/20 80/80/20
f 81/81/21 82/82/21 83/83/21 84/84/21
f 85/85/22 86/86/22 87/87/22 88/88/22
f 89/89/23 90/90/23 91/91/23 92/92/23
f 93/93/24 94/94/24 95/95/24 96/96/24
f 97/97/25 98/98/25 99/99/25 100/100/25
f 101/101/26 102/102/26 103/103/26 104/104/26
f 105/105/27 106/106/27 107/107/27 108/108/27
f 109/109/28 110/110/28 111/111/28 112/112/28
f 113/113/29 114/114/29 115/115/29 116/116/29
f 117/117/30 118/118/30 119/119/30 120/120/30
f 121/121/31 122/122/31 123/123/31 124/124/31
f 125/125/32 126/126/32 127/127/32 128/128/32
f 129/129/33 130/130/33 131/131/33 132/132/33
f 133/133/34 134/134/34 135/135/34 136/136/34
f 137/137/35 138/138/35 139/139/35 140/140/35
f 141/141/36 142/142/36 143/143/36 144/144/36
f 145/145/37 146/146/37 147/147/37 148/148/37
f 149/149/38 150/150/38 151/151/38 152/152/38
f 153/153/39 154/154/39 155/155/39 156/156/39
f 157/157/40 158/158/40 159/159/40 160/160/40
f 161/161/41 162/162/41 163/163/41 164/164/41
f 165/165/42 166/166/42 167/167/42 168/168/42
f 169/169/43 170/170/43 171/171/43 172/172/43
f 173/173/44 174/174/44 175/175/44 176/176/44
f 177/177/45 178/178/45 179/179/45 180/180/45
f 181/181/46 182/182/46 183/183/46 184/184/46
f 185/185/47 186/186/47 187/187/47 188/188/47
f 189/189/48 190/190/48 191/191/48 192/192/48
f 193/193/49 194/194/49 195/195/49 196/196/49
f 197/197/50 198/198/50 199/199/50 200/200/50
f 201/201/51 202/202/51 203/203/51 204/204/51
f 205/205/52 206/206/52 207/207/52 208/208/52
f 209/209/53 210/210/53 211/211/53 212/212/53
f 213/213/54 214/214/54 215/215/54 216/216/54
f 217/217/55 218/218/55 219/219/55 220/220/55
f 221/221/56 222/222/56 223/223/56 224/224/56
f 225/225/57 226/226/57 227/227/57 228/228/57
f 229/229/58 230/230/58 231/231/58 232/232/58
f 233/233/59 234/234/59 235/235/59 236/236/59
f 237/237/60 238/238/60 239/239/60 240/240/60
f 241/241/61 242/242/61 243/243/61 244/244/61
f 245/245/62 246/246/62 247/247/62 248/248/62
f 249/249/63 250/250/63 251/251/63 252/252/63
f 253/253/64 254/254/64 255/255/64 256/256/64
f 257/257/65 258/258/65 259/259/65 260/260/65
f 261/261/66 262/262/66 263/263/66 264/264/66
f 265/265/67 266/266/67 267/267/67 268/268/67
f 269/269/68 270/270/68 271/271/68 272/272/68
f 273/273/69 274/274/69 275/275/69 276/276/69
f 277/277/70 278/278/70 279/279/70 280/280/70
f 281/281/71 282/282/71 283/283/71 284/284/71
f 285/285/72 286/286/72 287/287/72 288/288/72
f 289/289/73 290/290/73 291/291/73 292/292/73
f 293/293/74 294/294/74 295/295/74 296/296/74
f 297/297/75 298/298/75 299/299/75 300/300/75
f 301/301/76 302/302/76 303/303/76 304/304/76
f 305/305/77 306/306/77 307/307/77 308/308/77
f 309/309/78 310/310/78 311/311/78 312/312/78
f 313/313/79 314/314/79 315/315/79 316/316/79
f 317/317/80 318/318/80 319/319/80 320/320/80
f 321/321/81 322/322/81 323/323/81 324/324/81
f 325/325/82 326/326/82 327/327/82 328/328/82
f 329/329/83 330/330/83 331/331/83 332/332/83
f 333/333/84 334/334/84 335/335/84 336/336/84
f 337/337/85 338/338/85 339/339/85 340/340/85
f 341/341/86 342/342/86 343/343/86 344/344/86
f 345/345/87 346/346/87 347/347/87 348/348/87
f 349/349/88 350/350/88 351/351/88 352/352/88
f 353/353/89 354/354/89 355/355/89 356/356/89
f 357/357/90 358/358/90 359/359/90 360/360/90
f 361/361/91 362/362/91 363/363/91 364/364/91
f 365/365/92 366/366/92 367/367/92 368/368/92
f 369/369/93 370/370/93 371/371/93 372/372/93
f 373/373/94 374/374/94 375/375/94 376/376/94
f 377/377/95 378/378/95 379/379/95 380/380/95
f 381/381/96 382/382/96 383/383/96 384/384/96
f 385/385/97 386/386/97 387/387/97 388/388/97
f 389/389/98 390/390/98 391/391/98 392/392/98
f 393/393/99 394/394/99 395/395/99 396/396/99
f 397/397/100 398/398/100 399/399/100 400/400/100
f 401/401/101 402/402/101 403/403/101 404/404/101
f 405/405/102 406/406/102 407/407/102 408/408/102
f 409/409/103 410/410/103 411/411/103 412/412/103
f 413/413/104 414/414/104 415/415/104 416/416/104
f 417/417/105 418/418/105 419/419/105 420/420/105
f 421/421/106 422/422/106 423/423/106 424/424/106
f 425/425/107 426/426/107 427/427/107 428/428/107
f 429/429/108 430/430/108 431/431/108 432/432/108
f 433/433/109 434/434/109 435/435/109 436/436/109
f 437/437/110 438/438/110 439/439/110 440/440/110
f 441/441/111 442/442/111 443/443/111 444/444/111
f 445/445/112 446/446/112 447/447/112 448/448/112
f 449/449/113 450/450/113 451/451/113 452/452/113
f 453/453/114 454/454/114 455/455/114 456/456/114
f 457/457/115 458/458/115 459/459/115 460/460/115
f 461/461/116 462/462/116 463/463/116 464/464/116
f 465/465/117 466/466/117 467/467/117 468/468/117
f 469/469/118 470/470/118 471/471/118 472/472/118
f 473/473/119 474/474/119 475/475/119 476/476/119
f 477/477/120 478/478/120 479/479/120 480/480/120
f 481/481/121 482/482/121 483/483/121 484/484/121
f 485/485/122 486/486/122 487/487/122 488/488/122
f 489/489/123 490/490/123 491/491/123 492/492/123
f 493/493/124 494/494/124 495/495/124 496/496/124
f 497/497/125 498/498/125 499/499/125 500/500/125
f 501/501/126 502/502/126 503/503/126 504/504/126
f 505/505/127 506/506/127 507/507/127 508/508/127
f 509/509/128 510/510/128 511/511/128 512/512/128
f 513/513/129 514/514/129 515/515/129 516/516/129
f 517/517/130 518/518/130 519/519/130 520/520/130
f 521/521/131 522/522/131 523/523/131 524/524/131
f 525/525/132 526/526/132 527/527/132 528/528/132
f 529/529/133 530/530/133 531/531/133 532/532/133
f 533/533/134 534/534/134 535/535/134 536/536/134
f 537/537/135 538/538/135 539/539/135 540/540/135
f 541/541/136 542/542/136 543/543/136 544/544/136
f 545/545/137 546/546/137 547/547/137 548/548/137
f 549/549/138 550/550/138 551/551/138 552/552/138
f 553/553/139 554/554/139 555/555/139 556/556/139
f 557/557/140 558/558/140 559/559/140 560/560/140
f 561/561/141 562/562/141 563/563/141 564/564/141
f 565/565/142 566/566/142 567/567/142 568/568/142
f 569/569/143 570/570/143 571/571/143 572/572/143
f 573/573/144 574/574/144 575/575/144 576/576/144
f 577/577/145 578/578/145 579/579/145 580/580/145
f 581/581/146 582/582/146 583/583/146 584/584/146
f 585/585/147 586/586/147 587/587/147 588/588/147
f 589/589/148 590/590/148 591/591/148 592/592/148
f 593/593/149 594/594/149 595/595/149 596/596/149
f 597/597/150 598/598/150 599/599/150 600/600/150
f 601/601/151 602/602/151 603/603/151 604/604/151
f 605/605/152 606/606/152 607/607/152 608/608/152
f 609/609/153 610/610/153 611/611/153 612/612/153
f 613/613/154 614/614/154 615/615/154 616/616/154
f 617/617/155 618/618/155 619/619/155 620/620/155
f 621/621/156 622/622/156 623/623/156 624/624/156
f 625/625/157 626/626/157 627/627/157 628/628/157
f 629/629/158 630/630/158 631/631/158 632/632/158
f 633/633/159 634/634/159 635/635/159 636/636/159
f 637/637/160 638/638/160 639/639/160 640/640/160
f 641/641/161 642/642/161 643/643/161 644/644/161
f 645/645/162 646/646/162 647/647/162 648/648/162
f 649/649/163 650/650/163 651/651/163 652/652/163
f 653/653/164 654/654/164 655/655/164 656/656/164
f 657/657/165 658/658/165 659/659/165 660/660/165
f 661/661/166 662/662/166 663/663/166 664/664/166
f 665/665/167 666/666/167 667/667/167 668/668/167
f 669/669/168 670/670/168 671/671/168 672/672/168
f 673/673/169 674/674/169 675/675/169 676/676/169
f 677/677/170 678/678/170 679/679/170 680/680/170
f 681/681/171 682/682/171 683/683/171 684/684/171
f 685/685/172 686/686/172 687/687/172 688/688/172
f 689/689/173 690/690/173 691/691/173 692/692/173
f 693/693/174 694/694/174 695/695/174 696/696/174
f 697/697/175 698/698/175 699/699/175 700/700/175
f 701/701/176 702/702/176 703/703/176 704/704/176
f 705/705/177 706/706/177 707/707/177 708/708/177
f 709/709/178 710/710/178 711/711/178 712/712/178
f 713/713/179 714/714/179 715/715/179 716/716/179
f 717/717/180 718/718/180 719/719/180 720/720/180
f 721/721/181 722/722/181 723/723/181 724/724/181
f 725/725/182 726/726/182 727/727/182 728/728/182
f 729/729/183 730/730/183 731/731/183 732/732/183
f 733/733/184 734/734/184 735/735/184 736/736/184
f 737/737/185 738/738/185 739/739/185 740/740/185
f 741/741/186 742/742/186 743/743/186 744/744/186
f 745/745/187 746/746/187 747/747/187 748/748/187
f 749/749/188 750/750/188 751/751/188 752/752/188
f 753/753/189 754/754/189 755/755/189 756/756/189
f 757/757/190 758/758/190 759/759/190 760/760/190
f 761/761/191 762/762/191 763/763/191 764/764/191
f 765/765/192 766/766/192 767/767/192 768/768/192
f 769/769/193 770/770/193 771/771/193 772/772/193
f 773/773/194 774/774/194 775/775/194 776/776/194
f 777/777/195 778/778/195 779/779/195 780/780/195
f 781/781/196 782/782/196 783/783/196 784/784/196
f 785/785/197 786/786/197 787/787/197 788/788/197
f 789/789/198 790/790/198 791/791/198 792/792/198
f 793/793/199 794/794/199 795/795/199 796/796/199
f 797/797/200 798/798/200 799/799/200 800/800/200
f 801/801/201 802/802/201 803/803/201 804/804/201
f 805/805/202 806/806/202 807/807/202 808/808/202
f 809/809/203 810/810/203 811/811/203 812/812/203
f 813/813/204 814/814/204 815/815/204 816/816/204
f 817/817/205 818/818/205 819/819/205 820/820/205
f 821/821/206 822/822/206 823/823/206 824/824/206
f 825/825/207 826/826/207 827/827/207 828/828/207
f 829/829/208 830/830/208 831/831/208 832/832/208
f 833/833/209 834/834/209 835/835/209 836/836/209
f 837/837/210 838/838/210 839/839/210 840/840/210
f 841/841/211 842/842/211 843/843/211 844/844/211
f 845/845/212 846/846/212 847/847/212 848/848/212
f 849/849/213 850/850/213 851/851/213 852/852/213
f 853/853/214 854/854/214 855/855/214 856/856/214
f 857/857/215 858/858/215 859/859/215 860/860/215
f 861/861/216 862/862/216 863/863/216 864/864/216
f 865/865/217 866/866/217 867/867/217 868/868/217
f 869/869/218 870/870/218 871/871/218 872/872/218
f 873/873/219 874/874/219 875/875/219 876/876/219
f 877/877/220 878/878/220 879/879/220 880/880/220
f 881/881/221 882/882/221 883/883/221 884/884/221
f 885/885/222 886/886/222 887/887/222 888/888/222
f 889/889/223 890/890/223 891/891/223 892/892/223
f 893/893/224 894/894/224 895/895/224 896/896/224
f 897/897/225 898/898/225 899/899/225 900/900/225
f 901/901/226 902/902/226 903/903/226 904/904/226
f 905/905/227 906/906/227 907/907/227 908/908/227
f 909/909/228 910/910/228 911/911/228 912/912/228
f 913/913/229 914/914/229 915/915/229 916/916/229
f 917/917/230 918/918/230 919/919/230 920/920/230
f 921/921/231 922/922/231 923/923/231 924/924/231
f 925/925/232 926/926/232 927/927/232 928/928/232
f 929/929/233 930/930/233 931/931/233 932/932/233
f 933/933/234 934/934/234 935/935/234 936/936/234
f 937/937/235 938/938/235 939/939/235 940/940/235
f 941/941/236 942/942/236 943/943/236 944/944/236
f 945/945/237 946/946/237 947/947/237 948/948/237
f 949/949/238 950/950/238 951/951/238 952/952/238
f 953/953/239 954/954/239 955/955/239 956/956/239
f 957/957/240 958/958/240 959/959/240 960/960/240
f 961/961/241 962/962/241 963/963/241 964/964/241
f 965/965/242 966/966/242 967/967/242 968/968/242
f 969/969/243 970/970/243 971/971/243 972/972/243
f 973/973/244 974/974/244 975/975/244 976/976/244
f 977/977/245 978/978/245 979/979/245 980/980/245
f 981/981/246 982/982/246 983/983/246 984/984/246
f 985/985/247 986/986/247 987/987/247 988/988/247
f 989/989/248 990/990/248 991/991/248 992/992/248
f 993/993/249 994/994/249 995/995/249 996/996/249
f 997/997/250 998/998/250 999/999/250 1000/1000/250
f 1001/1001/251 1002/1002/251 1003/1003/251 1004/1004/251
f 1005/1005/252 1006/1006/252 1007/1007/252 1008/1008/252
usemtl plinth
f 1009/1009/253 1010/1010/253 1011/1011/253 1012/1012/253
f 1013/1013/254 1014/1014/254 1015/1015/254 1016/1016/254
f 1017/1017/255 1018/1018/255 1019/1019/255 1020/1020/255
f 1021/1021/256 1022/1022/256 1023/1023/256 1024/1024/256
f 1025/1025/257 1026/1026/257 1027/1027/257 1028/1028/257
f 1029/1029/258 1030/1030/258 1031/1031/258 1032/1032/258
