# Generated by tools/gen_obj_models.py - edit that, not this.
mtllib iron_maiden_spikes_upper_open.mtl
o iron_maiden_spikes_upper_open
v 0.359375 0.203125 0.8125
vt 0.453125 0
v 0.265625 0.203125 0.8125
vt 0.546875 0
v 0.3125 0.25 0.625
vt 0.5 0.193271
vn -0 -0.970143 -0.242536
v 0.265625 0.203125 0.8125
vt 0.453125 0
v 0.265625 0.296875 0.8125
vt 0.546875 0
v 0.3125 0.25 0.625
vt 0.5 0.193271
vn -0.970143 0 -0.242536
v 0.265625 0.296875 0.8125
vt 0.453125 0
v 0.359375 0.296875 0.8125
vt 0.546875 0
v 0.3125 0.25 0.625
vt 0.5 0.193271
vn 0 0.970143 -0.242536
v 0.359375 0.296875 0.8125
vt 0.453125 0
v 0.359375 0.203125 0.8125
vt 0.546875 0
v 0.3125 0.25 0.625
vt 0.5 0.193271
vn 0.970143 0 -0.242536
v 0.546875 0.203125 0.8125
vt 0.453125 0
v 0.453125 0.203125 0.8125
vt 0.546875 0
v 0.5 0.25 0.625
vt 0.5 0.193271
vn -0 -0.970143 -0.242536
v 0.453125 0.203125 0.8125
vt 0.453125 0
v 0.453125 0.296875 0.8125
vt 0.546875 0
v 0.5 0.25 0.625
vt 0.5 0.193271
vn -0.970143 0 -0.242536
v 0.453125 0.296875 0.8125
vt 0.453125 0
v 0.546875 0.296875 0.8125
vt 0.546875 0
v 0.5 0.25 0.625
vt 0.5 0.193271
vn 0 0.970143 -0.242536
v 0.546875 0.296875 0.8125
vt 0.453125 0
v 0.546875 0.203125 0.8125
vt 0.546875 0
v 0.5 0.25 0.625
vt 0.5 0.193271
vn 0.970143 0 -0.242536
v 0.734375 0.203125 0.8125
vt 0.453125 0
v 0.640625 0.203125 0.8125
vt 0.546875 0
v 0.6875 0.25 0.625
vt 0.5 0.193271
vn -0 -0.970143 -0.242536
v 0.640625 0.203125 0.8125
vt 0.453125 0
v 0.640625 0.296875 0.8125
vt 0.546875 0
v 0.6875 0.25 0.625
vt 0.5 0.193271
vn -0.970143 0 -0.242536
v 0.640625 0.296875 0.8125
vt 0.453125 0
v 0.734375 0.296875 0.8125
vt 0.546875 0
v 0.6875 0.25 0.625
vt 0.5 0.193271
vn 0 0.970143 -0.242536
v 0.734375 0.296875 0.8125
vt 0.453125 0
v 0.734375 0.203125 0.8125
vt 0.546875 0
v 0.6875 0.25 0.625
vt 0.5 0.193271
vn 0.970143 0 -0.242536
v 0.1875 0.203125 0.203125
vt 0.453125 0
v 0.1875 0.296875 0.203125
vt 0.546875 0
v 0.34375 0.25 0.25
vt 0.5 0.16313
vn 0.287348 0 -0.957826
v 0.1875 0.296875 0.203125
vt 0.453125 0
v 0.1875 0.296875 0.296875
vt 0.546875 0
v 0.34375 0.25 0.25
vt 0.5 0.16313
vn 0.287348 0.957826 -0
v 0.1875 0.296875 0.296875
vt 0.453125 0
v 0.1875 0.203125 0.296875
vt 0.546875 0
v 0.34375 0.25 0.25
vt 0.5 0.16313
vn 0.287348 0 0.957826
v 0.1875 0.203125 0.296875
vt 0.453125 0
v 0.1875 0.203125 0.203125
vt 0.546875 0
v 0.34375 0.25 0.25
vt 0.5 0.16313
vn 0.287348 -0.957826 0
v 0.8125 0.296875 0.203125
vt 0.453125 0
v 0.8125 0.203125 0.203125
vt 0.546875 0
v 0.65625 0.25 0.25
vt 0.5 0.16313
vn -0.287348 -0 -0.957826
v 0.8125 0.203125 0.203125
vt 0.453125 0
v 0.8125 0.203125 0.296875
vt 0.546875 0
v 0.65625 0.25 0.25
vt 0.5 0.16313
vn -0.287348 -0.957826 0
v 0.8125 0.203125 0.296875
vt 0.453125 0
v 0.8125 0.296875 0.296875
vt 0.546875 0
v 0.65625 0.25 0.25
vt 0.5 0.16313
vn -0.287348 0 0.957826
v 0.8125 0.296875 0.296875
vt 0.453125 0
v 0.8125 0.296875 0.203125
vt 0.546875 0
v 0.65625 0.25 0.25
vt 0.5 0.16313
vn -0.287348 0.957826 0
usemtl spike
f 1/1/1 2/2/1 3/3/1
f 4/4/2 5/5/2 6/6/2
f 7/7/3 8/8/3 9/9/3
f 10/10/4 11/11/4 12/12/4
f 13/13/5 14/14/5 15/15/5
f 16/16/6 17/17/6 18/18/6
f 19/19/7 20/20/7 21/21/7
f 22/22/8 23/23/8 24/24/8
f 25/25/9 26/26/9 27/27/9
f 28/28/10 29/29/10 30/30/10
f 31/31/11 32/32/11 33/33/11
f 34/34/12 35/35/12 36/36/12
f 37/37/13 38/38/13 39/39/13
f 40/40/14 41/41/14 42/42/14
f 43/43/15 44/44/15 45/45/15
f 46/46/16 47/47/16 48/48/16
f 49/49/17 50/50/17 51/51/17
f 52/52/18 53/53/18 54/54/18
f 55/55/19 56/56/19 57/57/19
f 58/58/20 59/59/20 60/60/20
