# Generated by tools/gen_obj_models.py - edit that, not this.
mtllib portcullis_bottom.mtl
o portcullis_bottom
v 0.1875 1 0.4375
vt 0.1875 0.5625
v 0.1875 1 0.5625
vt 0.1875 0.4375
v 0.3125 1 0.5625
vt 0.3125 0.4375
v 0.3125 1 0.4375
vt 0.3125 0.5625
vn 0 1 0
v 0.3125 1 0.4375
vt 0.4375 0.90625
v 0.3125 0.1875 0.4375
vt 0.4375 0.09375
v 0.1875 0.1875 0.4375
vt 0.5625 0.09375
v 0.1875 1 0.4375
vt 0.5625 0.90625
vn 0 0 -1
v 0.1875 1 0.5625
vt 0.4375 0.90625
v 0.1875 0.1875 0.5625
vt 0.4375 0.09375
v 0.3125 0.1875 0.5625
vt 0.5625 0.09375
v 0.3125 1 0.5625
vt 0.5625 0.90625
vn 0 0 1
v 0.1875 1 0.4375
vt 0.4375 0.90625
v 0.1875 0.1875 0.4375
vt 0.4375 0.09375
v 0.1875 0.1875 0.5625
vt 0.5625 0.09375
v 0.1875 1 0.5625
vt 0.5625 0.90625
vn -1 0 0
v 0.3125 1 0.5625
vt 0.4375 0.90625
v 0.3125 0.1875 0.5625
vt 0.4375 0.09375
v 0.3125 0.1875 0.4375
vt 0.5625 0.09375
v 0.3125 1 0.4375
vt 0.5625 0.90625
vn 1 0 0
v 0.1875 0.1875 0.4375
vt 0.1875 0
v 0.3125 0.1875 0.4375
vt 0.3125 0
v 0.25 0 0.5
vt 0.25 0.197642
vn 0 -0.316228 -0.948683
v 0.3125 0.1875 0.4375
vt 0.1875 0
v 0.3125 0.1875 0.5625
vt 0.3125 0
v 0.25 0 0.5
vt 0.25 0.197642
vn 0.948683 -0.316228 0
v 0.3125 0.1875 0.5625
vt 0.1875 0
v 0.1875 0.1875 0.5625
vt 0.3125 0
v 0.25 0 0.5
vt 0.25 0.197642
vn 0 -0.316228 0.948683
v 0.1875 0.1875 0.5625
vt 0.1875 0
v 0.1875 0.1875 0.4375
vt 0.3125 0
v 0.25 0 0.5
vt 0.25 0.197642
vn -0.948683 -0.316228 -0
v 0.6875 1 0.4375
vt 0.6875 0.5625
v 0.6875 1 0.5625
vt 0.6875 0.4375
v 0.8125 1 0.5625
vt 0.8125 0.4375
v 0.8125 1 0.4375
vt 0.8125 0.5625
vn 0 1 0
v 0.8125 1 0.4375
vt 0.4375 0.90625
v 0.8125 0.1875 0.4375
vt 0.4375 0.09375
v 0.6875 0.1875 0.4375
vt 0.5625 0.09375
v 0.6875 1 0.4375
vt 0.5625 0.90625
vn 0 0 -1
v 0.6875 1 0.5625
vt 0.4375 0.90625
v 0.6875 0.1875 0.5625
vt 0.4375 0.09375
v 0.8125 0.1875 0.5625
vt 0.5625 0.09375
v 0.8125 1 0.5625
vt 0.5625 0.90625
vn 0 0 1
v 0.6875 1 0.4375
vt 0.4375 0.90625
v 0.6875 0.1875 0.4375
vt 0.4375 0.09375
v 0.6875 0.1875 0.5625
vt 0.5625 0.09375
v 0.6875 1 0.5625
vt 0.5625 0.90625
vn -1 0 0
v 0.8125 1 0.5625
vt 0.4375 0.90625
v 0.8125 0.1875 0.5625
vt 0.4375 0.09375
v 0.8125 0.1875 0.4375
vt 0.5625 0.09375
v 0.8125 1 0.4375
vt 0.5625 0.90625
vn 1 0 0
v 0.6875 0.1875 0.4375
vt 0.6875 0
v 0.8125 0.1875 0.4375
vt 0.8125 0
v 0.75 0 0.5
vt 0.75 0.197642
vn 0 -0.316228 -0.948683
v 0.8125 0.1875 0.4375
vt 0.6875 0
v 0.8125 0.1875 0.5625
vt 0.8125 0
v 0.75 0 0.5
vt 0.75 0.197642
vn 0.948683 -0.316228 0
v 0.8125 0.1875 0.5625
vt 0.6875 0
v 0.6875 0.1875 0.5625
vt 0.8125 0
v 0.75 0 0.5
vt 0.75 0.197642
vn 0 -0.316228 0.948683
v 0.6875 0.1875 0.5625
vt 0.6875 0
v 0.6875 0.1875 0.4375
vt 0.8125 0
v 0.75 0 0.5
vt 0.75 0.197642
vn -0.948683 -0.316228 -0
v 0 0.1875 0.625
vt 0.375 1
v 0 0.1875 0.375
vt 0.625 1
v 1 0.1875 0.375
vt 0.625 0
v 1 0.1875 0.625
vt 0.375 0
vn 0 -1 0
v 0 0.3125 0.375
vt 0.375 1
v 0 0.3125 0.625
vt 0.625 1
v 1 0.3125 0.625
vt 0.625 0
v 1 0.3125 0.375
vt 0.375 0
vn 0 1 0
v 1 0.3125 0.375
vt 0.4375 1
v 1 0.1875 0.375
vt 0.5625 1
v 0 0.1875 0.375
vt 0.5625 0
v 0 0.3125 0.375
vt 0.4375 0
vn 0 0 -1
v 0 0.3125 0.625
vt 0.4375 1
v 0 0.1875 0.625
vt 0.5625 1
v 1 0.1875 0.625
vt 0.5625 0
v 1 0.3125 0.625
vt 0.4375 0
vn 0 0 1
v 0 0.3125 0.375
vt 0.375 0.3125
v 0 0.1875 0.375
vt 0.375 0.1875
v 0 0.1875 0.625
vt 0.625 0.1875
v 0 0.3125 0.625
vt 0.625 0.3125
vn -1 0 0
v 1 0.3125 0.625
vt 0.375 0.3125
v 1 0.1875 0.625
vt 0.375 0.1875
v 1 0.1875 0.375
vt 0.625 0.1875
v 1 0.3125 0.375
vt 0.625 0.3125
vn 1 0 0
v 0 0.6875 0.625
vt 0.375 1
v 0 0.6875 0.375
vt 0.625 1
v 1 0.6875 0.375
vt 0.625 0
v 1 0.6875 0.625
vt 0.375 0
vn 0 -1 0
v 0 0.8125 0.375
vt 0.375 1
v 0 0.8125 0.625
vt 0.625 1
v 1 0.8125 0.625
vt 0.625 0
v 1 0.8125 0.375
vt 0.375 0
vn 0 1 0
v 1 0.8125 0.375
vt 0.4375 1
v 1 0.6875 0.375
vt 0.5625 1
v 0 0.6875 0.375
vt 0.5625 0
v 0 0.8125 0.375
vt 0.4375 0
vn 0 0 -1
v 0 0.8125 0.625
vt 0.4375 1
v 0 0.6875 0.625
vt 0.5625 1
v 1 0.6875 0.625
vt 0.5625 0
v 1 0.8125 0.625
vt 0.4375 0
vn 0 0 1
v 0 0.8125 0.375
vt 0.375 0.8125
v 0 0.6875 0.375
vt 0.375 0.6875
v 0 0.6875 0.625
vt 0.625 0.6875
v 0 0.8125 0.625
vt 0.625 0.8125
vn -1 0 0
v 1 0.8125 0.625
vt 0.375 0.8125
v 1 0.6875 0.625
vt 0.375 0.6875
v 1 0.6875 0.375
vt 0.625 0.6875
v 1 0.8125 0.375
vt 0.625 0.8125
vn 1 0 0
usemtl bar
f 1/1/1 2/2/1 3/3/1 4/4/1
f 5/5/2 6/6/2 7/7/2 8/8/2
f 9/9/3 10/10/3 11/11/3 12/12/3
f 13/13/4 14/14/4 15/15/4 16/16/4
f 17/17/5 18/18/5 19/19/5 20/20/5
f 21/21/6 22/22/6 23/23/6
f 24/24/7 25/25/7 26/26/7
f 27/27/8 28/28/8 29/29/8
f 30/30/9 31/31/9 32/32/9
f 33/33/10 34/34/10 35/35/10 36/36/10
f 37/37/11 38/38/11 39/39/11 40/40/11
f 41/41/12 42/42/12 43/43/12 44/44/12
f 45/45/13 46/46/13 47/47/13 48/48/13
f 49/49/14 50/50/14 51/51/14 52/52/14
f 53/53/15 54/54/15 55/55/15
f 56/56/16 57/57/16 58/58/16
f 59/59/17 60/60/17 61/61/17
f 62/62/18 63/63/18 64/64/18
f 65/65/19 66/66/19 67/67/19 68/68/19
f 69/69/20 70/70/20 71/71/20 72/72/20
f 73/73/21 74/74/21 75/75/21 76/76/21
f 77/77/22 78/78/22 79/79/22 80/80/22
f 81/81/23 82/82/23 83/83/23 84/84/23
f 85/85/24 86/86/24 87/87/24 88/88/24
f 89/89/25 90/90/25 91/91/25 92/92/25
f 93/93/26 94/94/26 95/95/26 96/96/26
f 97/97/27 98/98/27 99/99/27 100/100/27
f 101/101/28 102/102/28 103/103/28 104/104/28
f 105/105/29 106/106/29 107/107/29 108/108/29
f 109/109/30 110/110/30 111/111/30 112/112/30
