# Generated by tools/gen_obj_models.py - edit that, not this.
mtllib pyramid.mtl
o pyramid
v 1 0 0
vt 0 0
v 0 0 0
vt 1 0
v 0.5 1 0.5
vt 0.5 1
vn 0 0.447214 -0.894427
v 0 0 0
vt 0 0
v 0 0 1
vt 1 0
v 0.5 1 0.5
vt 0.5 1
vn -0.894427 0.447214 0
v 0 0 1
vt 0 0
v 1 0 1
vt 1 0
v 0.5 1 0.5
vt 0.5 1
vn -0 0.447214 0.894427
v 1 0 1
vt 0 0
v 1 0 0
vt 1 0
v 0.5 1 0.5
vt 0.5 1
vn 0.894427 0.447214 0
v 0 0 0
vt 0 1
v 1 0 0
vt 1 1
v 1 0 1
vt 1 0
v 0 0 1
vt 0 0
vn 0 -1 0
usemtl facet
f 1/1/1 2/2/1 3/3/1
f 4/4/2 5/5/2 6/6/2
f 7/7/3 8/8/3 9/9/3
f 10/10/4 11/11/4 12/12/4
usemtl base
f 13/13/5 14/14/5 15/15/5 16/16/5
