# Generated by tools/gen_obj_models.py - edit that, not this.
mtllib sill.mtl
o sill
v 0 0 0
vt 0 0
v 1 0 0
vt 1 0
v 1 0 1
vt 1 1
v 0 0 1
vt 0 1
vn 0 -1 0
v 0 0 1
vt 0 0
v 1 0 1
vt 1 0
v 1 0.75 1
vt 1 0.75
v 0 0.75 1
vt 0 0.75
vn 0 0 1
v 0 0.75 0
vt 1 0.75
v 1 0.75 0
vt 0 0.75
v 1 0 0
vt 0 0
v 0 0 0
vt 1 0
vn 0 0 -1
v 0 0.75 1
vt 0 0.75
v 1 0.75 1
vt 1 0.75
v 1 1 1
vt 1 1
v 0 1 1
vt 0 1
vn 0 0 1
v 0 1 1
vt 0 0
v 1 1 1
vt 1 0
v 1 1 0.5
vt 1 0.5
v 0 1 0.5
vt 0 0.5
vn 0 1 0
v 0 1 0.5
vt 0 0.5
v 1 1 0.5
vt 1 0.5
v 1 0.75 0
vt 1 1
v 0 0.75 0
vt 0 1
vn 0 0.894427 -0.447214
v 0 0 0
vt 0 0
v 0 0 1
vt 1 0
v 0 0.75 1
vt 1 0.75
v 0 0.75 0
vt 0 0.75
vn -1 0 0
v 1 0.75 0
vt 1 0.75
v 1 0.75 1
vt 0 0.75
v 1 0 1
vt 0 0
v 1 0 0
vt 1 0
vn 1 0 0
v 0 0.75 0
vt 0 0.75
v 0 0.75 1
vt 1 0.75
v 0 1 1
vt 1 1
v 0 1 0.5
vt 0.5 1
vn -1 0 0
v 1 1 0.5
vt 0.5 1
v 1 1 1
vt 0 1
v 1 0.75 1
vt 0 0.75
v 1 0.75 0
vt 1 0.75
vn 1 0 0
usemtl stone
f 1/1/1 2/2/1 3/3/1 4/4/1
f 5/5/2 6/6/2 7/7/2 8/8/2
f 9/9/3 10/10/3 11/11/3 12/12/3
f 13/13/4 14/14/4 15/15/4 16/16/4
f 17/17/5 18/18/5 19/19/5 20/20/5
f 21/21/6 22/22/6 23/23/6 24/24/6
f 25/25/7 26/26/7 27/27/7 28/28/7
f 29/29/8 30/30/8 31/31/8 32/32/8
f 33/33/9 34/34/9 35/35/9 36/36/9
f 37/37/10 38/38/10 39/39/10 40/40/10
