# Generated by tools/gen_obj_models.py - edit that, not this.
mtllib spikes.mtl
o spikes
v 0 0 1
vt 0 1
v 0 0 0
vt 0 0
v 1 0 0
vt 1 0
v 1 0 1
vt 1 1
vn 0 -1 0
v 0 0.0625 0
vt 0 1
v 0 0.0625 1
vt 0 0
v 1 0.0625 1
vt 1 0
v 1 0.0625 0
vt 1 1
vn 0 1 0
v 1 0.0625 0
vt 0 0.0625
v 1 0 0
vt 0 0
v 0 0 0
vt 1 0
v 0 0.0625 0
vt 1 0.0625
vn 0 0 -1
v 0 0.0625 1
vt 0 0.0625
v 0 0 1
vt 0 0
v 1 0 1
vt 1 0
v 1 0.0625 1
vt 1 0.0625
vn 0 0 1
v 0 0.0625 0
vt 0 0.0625
v 0 0 0
vt 0 0
v 0 0 1
vt 1 0
v 0 0.0625 1
vt 1 0.0625
vn -1 0 0
v 1 0.0625 1
vt 0 0.0625
v 1 0 1
vt 0 0
v 1 0 0
vt 1 0
v 1 0.0625 0
vt 1 0.0625
vn 1 0 0
v 0.3125 0.0625 0.0625
vt 0.375 0
v 0.0625 0.0625 0.0625
vt 0.625 0
v 0.1875 0.75 0.1875
vt 0.5 0.698771
vn 0 0.178885 -0.98387
v 0.0625 0.0625 0.0625
vt 0.375 0
v 0.0625 0.0625 0.3125
vt 0.625 0
v 0.1875 0.75 0.1875
vt 0.5 0.698771
vn -0.98387 0.178885 0
v 0.0625 0.0625 0.3125
vt 0.375 0
v 0.3125 0.0625 0.3125
vt 0.625 0
v 0.1875 0.75 0.1875
vt 0.5 0.698771
vn -0 0.178885 0.98387
v 0.3125 0.0625 0.3125
vt 0.375 0
v 0.3125 0.0625 0.0625
vt 0.625 0
v 0.1875 0.75 0.1875
vt 0.5 0.698771
vn 0.98387 0.178885 0
v 0.3125 0.0625 0.375
vt 0.375 0
v 0.0625 0.0625 0.375
vt 0.625 0
v 0.1875 0.75 0.5
vt 0.5 0.698771
vn 0 0.178885 -0.98387
v 0.0625 0.0625 0.375
vt 0.375 0
v 0.0625 0.0625 0.625
vt 0.625 0
v 0.1875 0.75 0.5
vt 0.5 0.698771
vn -0.98387 0.178885 0
v 0.0625 0.0625 0.625
vt 0.375 0
v 0.3125 0.0625 0.625
vt 0.625 0
v 0.1875 0.75 0.5
vt 0.5 0.698771
vn -0 0.178885 0.98387
v 0.3125 0.0625 0.625
vt 0.375 0
v 0.3125 0.0625 0.375
vt 0.625 0
v 0.1875 0.75 0.5
vt 0.5 0.698771
vn 0.98387 0.178885 0
v 0.3125 0.0625 0.6875
vt 0.375 0
v 0.0625 0.0625 0.6875
vt 0.625 0
v 0.1875 0.75 0.8125
vt 0.5 0.698771
vn 0 0.178885 -0.98387
v 0.0625 0.0625 0.6875
vt 0.375 0
v 0.0625 0.0625 0.9375
vt 0.625 0
v 0.1875 0.75 0.8125
vt 0.5 0.698771
vn -0.98387 0.178885 0
v 0.0625 0.0625 0.9375
vt 0.375 0
v 0.3125 0.0625 0.9375
vt 0.625 0
v 0.1875 0.75 0.8125
vt 0.5 0.698771
vn -0 0.178885 0.98387
v 0.3125 0.0625 0.9375
vt 0.375 0
v 0.3125 0.0625 0.6875
vt 0.625 0
v 0.1875 0.75 0.8125
vt 0.5 0.698771
vn 0.98387 0.178885 0
v 0.625 0.0625 0.0625
vt 0.375 0
v 0.375 0.0625 0.0625
vt 0.625 0
v 0.5 0.75 0.1875
vt 0.5 0.698771
vn 0 0.178885 -0.98387
v 0.375 0.0625 0.0625
vt 0.375 0
v 0.375 0.0625 0.3125
vt 0.625 0
v 0.5 0.75 0.1875
vt 0.5 0.698771
vn -0.98387 0.178885 0
v 0.375 0.0625 0.3125
vt 0.375 0
v 0.625 0.0625 0.3125
vt 0.625 0
v 0.5 0.75 0.1875
vt 0.5 0.698771
vn -0 0.178885 0.98387
v 0.625 0.0625 0.3125
vt 0.375 0
v 0.625 0.0625 0.0625
vt 0.625 0
v 0.5 0.75 0.1875
vt 0.5 0.698771
vn 0.98387 0.178885 0
v 0.625 0.0625 0.375
vt 0.375 0
v 0.375 0.0625 0.375
vt 0.625 0
v 0.5 0.75 0.5
vt 0.5 0.698771
vn 0 0.178885 -0.98387
v 0.375 0.0625 0.375
vt 0.375 0
v 0.375 0.0625 0.625
vt 0.625 0
v 0.5 0.75 0.5
vt 0.5 0.698771
vn -0.98387 0.178885 0
v 0.375 0.0625 0.625
vt 0.375 0
v 0.625 0.0625 0.625
vt 0.625 0
v 0.5 0.75 0.5
vt 0.5 0.698771
vn -0 0.178885 0.98387
v 0.625 0.0625 0.625
vt 0.375 0
v 0.625 0.0625 0.375
vt 0.625 0
v 0.5 0.75 0.5
vt 0.5 0.698771
vn 0.98387 0.178885 0
v 0.625 0.0625 0.6875
vt 0.375 0
v 0.375 0.0625 0.6875
vt 0.625 0
v 0.5 0.75 0.8125
vt 0.5 0.698771
vn 0 0.178885 -0.98387
v 0.375 0.0625 0.6875
vt 0.375 0
v 0.375 0.0625 0.9375
vt 0.625 0
v 0.5 0.75 0.8125
vt 0.5 0.698771
vn -0.98387 0.178885 0
v 0.375 0.0625 0.9375
vt 0.375 0
v 0.625 0.0625 0.9375
vt 0.625 0
v 0.5 0.75 0.8125
vt 0.5 0.698771
vn -0 0.178885 0.98387
v 0.625 0.0625 0.9375
vt 0.375 0
v 0.625 0.0625 0.6875
vt 0.625 0
v 0.5 0.75 0.8125
vt 0.5 0.698771
vn 0.98387 0.178885 0
v 0.9375 0.0625 0.0625
vt 0.375 0
v 0.6875 0.0625 0.0625
vt 0.625 0
v 0.8125 0.75 0.1875
vt 0.5 0.698771
vn 0 0.178885 -0.98387
v 0.6875 0.0625 0.0625
vt 0.375 0
v 0.6875 0.0625 0.3125
vt 0.625 0
v 0.8125 0.75 0.1875
vt 0.5 0.698771
vn -0.98387 0.178885 0
v 0.6875 0.0625 0.3125
vt 0.375 0
v 0.9375 0.0625 0.3125
vt 0.625 0
v 0.8125 0.75 0.1875
vt 0.5 0.698771
vn -0 0.178885 0.98387
v 0.9375 0.0625 0.3125
vt 0.375 0
v 0.9375 0.0625 0.0625
vt 0.625 0
v 0.8125 0.75 0.1875
vt 0.5 0.698771
vn 0.98387 0.178885 0
v 0.9375 0.0625 0.375
vt 0.375 0
v 0.6875 0.0625 0.375
vt 0.625 0
v 0.8125 0.75 0.5
vt 0.5 0.698771
vn 0 0.178885 -0.98387
v 0.6875 0.0625 0.375
vt 0.375 0
v 0.6875 0.0625 0.625
vt 0.625 0
v 0.8125 0.75 0.5
vt 0.5 0.698771
vn -0.98387 0.178885 0
v 0.6875 0.0625 0.625
vt 0.375 0
v 0.9375 0.0625 0.625
vt 0.625 0
v 0.8125 0.75 0.5
vt 0.5 0.698771
vn -0 0.178885 0.98387
v 0.9375 0.0625 0.625
vt 0.375 0
v 0.9375 0.0625 0.375
vt 0.625 0
v 0.8125 0.75 0.5
vt 0.5 0.698771
vn 0.98387 0.178885 0
v 0.9375 0.0625 0.6875
vt 0.375 0
v 0.6875 0.0625 0.6875
vt 0.625 0
v 0.8125 0.75 0.8125
vt 0.5 0.698771
vn 0 0.178885 -0.98387
v 0.6875 0.0625 0.6875
vt 0.375 0
v 0.6875 0.0625 0.9375
vt 0.625 0
v 0.8125 0.75 0.8125
vt 0.5 0.698771
vn -0.98387 0.178885 0
v 0.6875 0.0625 0.9375
vt 0.375 0
v 0.9375 0.0625 0.9375
vt 0.625 0
v 0.8125 0.75 0.8125
vt 0.5 0.698771
vn -0 0.178885 0.98387
v 0.9375 0.0625 0.9375
vt 0.375 0
v 0.9375 0.0625 0.6875
vt 0.625 0
v 0.8125 0.75 0.8125
vt 0.5 0.698771
vn 0.98387 0.178885 0
usemtl plate
f 1/1/1 2/2/1 3/3/1 4/4/1
f 5/5/2 6/6/2 7/7/2 8/8/2
f 9/9/3 10/10/3 11/11/3 12/12/3
f 13/13/4 14/14/4 15/15/4 16/16/4
f 17/17/5 18/18/5 19/19/5 20/20/5
f 21/21/6 22/22/6 23/23/6 24/24/6
usemtl spike
f 25/25/7 26/26/7 27/27/7
f 28/28/8 29/29/8 30/30/8
f 31/31/9 32/32/9 33/33/9
f 34/34/10 35/35/10 36/36/10
f 37/37/11 38/38/11 39/39/11
f 40/40/12 41/41/12 42/42/12
f 43/43/13 44/44/13 45/45/13
f 46/46/14 47/47/14 48/48/14
f 49/49/15 50/50/15 51/51/15
f 52/52/16 53/53/16 54/54/16
f 55/55/17 56/56/17 57/57/17
f 58/58/18 59/59/18 60/60/18
f 61/61/19 62/62/19 63/63/19
f 64/64/20 65/65/20 66/66/20
f 67/67/21 68/68/21 69/69/21
f 70/70/22 71/71/22 72/72/22
f 73/73/23 74/74/23 75/75/23
f 76/76/24 77/77/24 78/78/24
f 79/79/25 80/80/25 81/81/25
f 82/82/26 83/83/26 84/84/26
f 85/85/27 86/86/27 87/87/27
f 88/88/28 89/89/28 90/90/28
f 91/91/29 92/92/29 93/93/29
f 94/94/30 95/95/30 96/96/30
f 97/97/31 98/98/31 99/99/31
f 100/100/32 101/101/32 102/102/32
f 103/103/33 104/104/33 105/105/33
f 106/106/34 107/107/34 108/108/34
f 109/109/35 110/110/35 111/111/35
f 112/112/36 113/113/36 114/114/36
f 115/115/37 116/116/37 117/117/37
f 118/118/38 119/119/38 120/120/38
f 121/121/39 122/122/39 123/123/39
f 124/124/40 125/125/40 126/126/40
f 127/127/41 128/128/41 129/129/41
f 130/130/42 131/131/42 132/132/42
