# Generated by tools/gen_obj_models.py - edit that, not this.
mtllib walkway_bracket.mtl
o walkway_bracket
v 0.375 0 1
vt 0.375 1
v 0.375 0 0.75
vt 0.375 0.75
v 0.625 0 0.75
vt 0.625 0.75
v 0.625 0 1
vt 0.625 1
vn 0 -1 0
v 0.375 1 0.75
vt 0.375 0.25
v 0.375 1 1
vt 0.375 0
v 0.625 1 1
vt 0.625 0
v 0.625 1 0.75
vt 0.625 0.25
vn 0 1 0
v 0.625 1 0.75
vt 0.375 1
v 0.625 0 0.75
vt 0.375 0
v 0.375 0 0.75
vt 0.625 0
v 0.375 1 0.75
vt 0.625 1
vn 0 0 -1
v 0.375 1 1
vt 0.375 1
v 0.375 0 1
vt 0.375 0
v 0.625 0 1
vt 0.625 0
v 0.625 1 1
vt 0.625 1
vn 0 0 1
v 0.375 1 0.75
vt 0.375 1
v 0.375 0 0.75
vt 0.375 0
v 0.375 0 1
vt 0.625 0
v 0.375 1 1
vt 0.625 1
vn -1 0 0
v 0.625 1 1
vt 0.375 1
v 0.625 0 1
vt 0.375 0
v 0.625 0 0.75
vt 0.625 0
v 0.625 1 0.75
vt 0.625 1
vn 1 0 0
v 0.375 0.75 0.75
vt 0.375 0.875
v 0.375 0.75 0
vt 0.375 0.125
v 0.625 0.75 0
vt 0.625 0.125
v 0.625 0.75 0.75
vt 0.625 0.875
vn 0 -1 0
v 0.375 1 0
vt 0.375 0.875
v 0.375 1 0.75
vt 0.375 0.125
v 0.625 1 0.75
vt 0.625 0.125
v 0.625 1 0
vt 0.625 0.875
vn 0 1 0
v 0.625 1 0
vt 0.375 1
v 0.625 0.75 0
vt 0.375 0.75
v 0.375 0.75 0
vt 0.625 0.75
v 0.375 1 0
vt 0.625 1
vn 0 0 -1
v 0.375 1 0
vt 0.375 0.875
v 0.375 0.75 0
vt 0.625 0.875
v 0.375 0.75 0.75
vt 0.625 0.125
v 0.375 1 0.75
vt 0.375 0.125
vn -1 0 0
v 0.625 1 0.75
vt 0.375 0.875
v 0.625 0.75 0.75
vt 0.625 0.875
v 0.625 0.75 0
vt 0.625 0.125
v 0.625 1 0
vt 0.375 0.125
vn 1 0 0
v 0.40625 0.143452 0.832881
vt 0.40625 0.515625
v 0.40625 0.0108692 0.700298
vt 0.40625 0.328125
v 0.59375 0.0108692 0.700298
vt 0.59375 0.328125
v 0.59375 0.143452 0.832881
vt 0.59375 0.515625
vn 0 -0.707107 0.707107
v 0.40625 0.700298 0.0108692
vt 0.40625 0.671875
v 0.40625 0.832881 0.143452
vt 0.40625 0.484375
v 0.59375 0.832881 0.143452
vt 0.59375 0.484375
v 0.59375 0.700298 0.0108692
vt 0.59375 0.671875
vn 0 0.707107 -0.707107
v 0.59375 0.700298 0.0108692
vt 0.40625 0.9875
v 0.59375 0.0108692 0.700298
vt 0.40625 0.0125
v 0.40625 0.0108692 0.700298
vt 0.59375 0.0125
v 0.40625 0.700298 0.0108692
vt 0.59375 0.9875
vn 0 -0.707107 -0.707107
v 0.40625 0.832881 0.143452
vt 0.40625 0.9875
v 0.40625 0.143452 0.832881
vt 0.40625 0.0125
v 0.59375 0.143452 0.832881
vt 0.59375 0.0125
v 0.59375 0.832881 0.143452
vt 0.59375 0.9875
vn 0 0.707107 0.707107
v 0.40625 0.700298 0.0108692
vt 0.40625 0.9875
v 0.40625 0.0108692 0.700298
vt 0.40625 0.0125
v 0.40625 0.143452 0.832881
vt 0.59375 0.0125
v 0.40625 0.832881 0.143452
vt 0.59375 0.9875
vn -1 0 0
v 0.59375 0.832881 0.143452
vt 0.40625 0.9875
v 0.59375 0.143452 0.832881
vt 0.40625 0.0125
v 0.59375 0.0108692 0.700298
vt 0.59375 0.0125
v 0.59375 0.700298 0.0108692
vt 0.59375 0.9875
vn 1 0 0
usemtl wood
f 9/9/3 10/10/3 11/11/3 12/12/3
f 13/13/4 14/14/4 15/15/4 16/16/4
f 17/17/5 18/18/5 19/19/5 20/20/5
f 21/21/6 22/22/6 23/23/6 24/24/6
f 25/25/7 26/26/7 27/27/7 28/28/7
f 29/29/8 30/30/8 31/31/8 32/32/8
f 37/37/10 38/38/10 39/39/10 40/40/10
f 41/41/11 42/42/11 43/43/11 44/44/11
f 53/53/14 54/54/14 55/55/14 56/56/14
f 57/57/15 58/58/15 59/59/15 60/60/15
f 61/61/16 62/62/16 63/63/16 64/64/16
f 65/65/17 66/66/17 67/67/17 68/68/17
usemtl end
f 1/1/1 2/2/1 3/3/1 4/4/1
f 5/5/2 6/6/2 7/7/2 8/8/2
f 33/33/9 34/34/9 35/35/9 36/36/9
f 45/45/12 46/46/12 47/47/12 48/48/12
f 49/49/13 50/50/13 51/51/13 52/52/13
